<svg width="40" height="40" viewBox="0 0 40 40" fill="none" xmlns="http://www.w3.org/2000/svg">
<circle cx="20" cy="20" r="20" fill="#A0A0A0"/>
<path d="M15.4381 9.12264C15.4381 8.3477 16.0652 7.71924 16.8415 7.71924H22.4552C23.2314 7.71924 23.8586 8.3477 23.8586 9.12264V10.526H25.9637C27.1259 10.526 28.0688 11.4685 28.0688 12.6312V18.2448L30.0161 18.8938C31.0335 19.2315 31.3098 20.5385 30.5204 21.2577L26.0909 25.3232C25.3804 25.7311 24.569 25.9854 23.8586 25.9854C22.999 25.9854 22.0692 25.6477 21.2622 25.0907C20.2974 24.411 19.0036 24.411 18.0344 25.0907C17.2801 25.6083 16.3678 25.9854 15.4381 25.9854C14.7276 25.9854 13.9162 25.731 13.2058 25.3188L8.7758 21.2577C7.98682 20.5385 8.26531 19.2315 9.28016 18.8938L11.2278 18.2053V12.5917C11.2278 11.4685 12.1708 10.4866 13.333 10.4866H15.4381V9.12264ZM14.0347 17.3106L18.7624 15.7318C19.3369 15.5432 19.9597 15.5432 20.5342 15.7318L25.262 17.3106V13.3329H14.0347V17.3106ZM23.8586 27.3669C25.0383 27.3669 26.2882 26.8932 27.2531 26.2222H27.2575C27.7794 25.8495 28.4855 25.8802 28.9766 26.2968C29.6038 26.8187 30.402 27.2178 31.1958 27.402C31.9501 27.5774 32.4194 28.3361 32.244 29.0904C32.0685 29.8448 31.2747 30.314 30.5555 30.1386C29.481 29.8842 28.5907 29.4106 28.003 29.0422C26.7312 29.722 25.3058 30.1737 23.8586 30.1737C22.4595 30.1737 21.2009 29.7395 20.3325 29.3448C20.0737 29.2308 19.8457 29.1124 19.6483 29.0071C19.451 29.1124 19.2229 29.2308 18.9642 29.3448C18.0958 29.7395 16.8371 30.1737 15.4381 30.1737C13.9513 30.1737 12.5655 29.722 11.2936 29.0422C10.7068 29.4106 9.81521 29.8842 8.73984 30.1386C7.98507 30.314 7.23042 29.8448 7.05452 29.0904C6.87861 28.3361 7.34792 27.5774 8.1026 27.402C8.89641 27.2178 9.69109 26.8187 10.3204 26.2968C10.8094 25.8802 11.5173 25.8495 12.0392 26.2222H12.0436C13.0128 26.8932 14.2583 27.3669 15.4381 27.3669C16.6441 27.3669 17.8502 26.902 18.837 26.2222C19.3238 25.8758 19.9729 25.8758 20.4597 26.2222C21.407 26.902 22.6525 27.3669 23.8586 27.3669Z" fill="white"/>
</svg>
