<svg width="873" height="1056" viewBox="0 0 873 1056" fill="none" xmlns="http://www.w3.org/2000/svg">
<path d="M10.5 25.0004L0.5 25.0004V5.00043L10.5 5.00042V25.0004ZM686 237.501L676.301 239.937L686 237.501ZM665 607.499L674.88 609.04L665 607.499ZM873 1055.5C871.974 1055.5 870.95 1055.5 869.927 1055.49L870.039 1035.49C871.024 1035.5 872.011 1035.5 873 1035.5V1055.5ZM863.805 1055.42C861.765 1055.38 859.731 1055.34 857.703 1055.28L858.303 1035.28C860.244 1035.34 862.195 1035.39 864.153 1035.42L863.805 1055.42ZM851.552 1055.05C849.508 1054.96 847.471 1054.86 845.441 1054.74L846.599 1034.77C848.531 1034.89 850.472 1034.98 852.423 1035.07L851.552 1055.05ZM839.282 1054.34C837.231 1054.18 835.187 1054.02 833.15 1053.83L834.945 1033.91C836.869 1034.09 838.804 1034.25 840.749 1034.39L839.282 1054.34ZM827.004 1053.23C824.947 1053.01 822.899 1052.77 820.859 1052.51L823.374 1032.67C825.287 1032.91 827.211 1033.13 829.147 1033.34L827.004 1053.23ZM814.731 1051.67C812.673 1051.37 810.624 1051.04 808.585 1050.7L811.911 1030.98C813.807 1031.3 815.717 1031.6 817.639 1031.88L814.731 1051.67ZM802.484 1049.6C800.43 1049.21 798.386 1048.79 796.354 1048.35L800.587 1028.8C802.46 1029.21 804.348 1029.59 806.249 1029.96L802.484 1049.6ZM790.29 1046.96C788.248 1046.46 786.218 1045.94 784.201 1045.39L789.438 1026.09C791.28 1026.59 793.138 1027.07 795.011 1027.52L790.29 1046.96ZM778.183 1043.67C776.167 1043.06 774.163 1042.43 772.173 1041.76L778.512 1022.79C780.311 1023.39 782.126 1023.97 783.958 1024.52L778.183 1043.67ZM766.234 1039.68C764.253 1038.94 762.286 1038.18 760.334 1037.39L767.859 1018.86C769.607 1019.57 771.372 1020.25 773.155 1020.91L766.234 1039.68ZM754.511 1034.91C752.578 1034.05 750.66 1033.15 748.76 1032.23L757.541 1014.26C759.228 1015.08 760.933 1015.88 762.657 1016.65L754.511 1034.91ZM743.099 1029.33C741.228 1028.33 739.375 1027.3 737.541 1026.23L747.62 1008.95C749.236 1009.9 750.872 1010.81 752.526 1011.69L743.099 1029.33ZM732.092 1022.91C730.301 1021.77 728.529 1020.59 726.776 1019.38L738.158 1002.93C739.695 1004 741.25 1005.03 742.825 1006.03L732.092 1022.91ZM721.592 1015.64C719.895 1014.36 718.219 1013.05 716.563 1011.7L729.214 996.206C730.663 997.388 732.13 998.538 733.616 999.656L721.592 1015.64ZM711.693 1007.55C710.104 1006.15 708.536 1004.7 706.99 1003.22L720.836 988.786C722.19 990.085 723.562 991.349 724.953 992.581L711.693 1007.55ZM702.475 998.712C701.002 997.183 699.552 995.617 698.123 994.014L713.058 980.711C714.313 982.121 715.587 983.496 716.879 984.837L702.475 998.712ZM693.993 989.195C692.64 987.555 691.31 985.878 690.002 984.165L705.899 972.028C707.055 973.544 708.23 975.024 709.422 976.469L693.993 989.195ZM686.272 979.092C685.05 977.367 683.85 975.607 682.671 973.811L699.391 962.836C700.441 964.437 701.509 966.002 702.594 967.534L686.272 979.092ZM679.309 968.495C678.22 966.708 677.152 964.888 676.104 963.036L693.513 953.191C694.455 954.857 695.414 956.489 696.388 958.089L679.309 968.495ZM673.078 957.481C672.118 955.653 671.178 953.794 670.257 951.905L688.234 943.14C689.069 944.854 689.92 946.536 690.787 948.187L673.078 957.481ZM667.551 946.144C666.709 944.282 665.885 942.391 665.078 940.472L683.517 932.724C684.254 934.48 685.007 936.206 685.774 937.903L667.551 946.144ZM662.727 934.665C661.972 932.727 661.234 930.763 660.514 928.769L679.323 921.971C679.987 923.81 680.667 925.619 681.361 927.399L662.727 934.665ZM658.491 922.962C657.833 921 657.192 919.012 656.566 916.998L675.667 911.069C676.249 912.941 676.844 914.786 677.453 916.603L658.491 922.962ZM654.787 911.04C654.228 909.093 653.684 907.123 653.154 905.128L672.484 899.994C672.98 901.862 673.489 903.704 674.01 905.52L654.787 911.04ZM651.609 899.07C651.124 897.088 650.652 895.084 650.195 893.055L669.706 888.658C670.136 890.568 670.58 892.454 671.035 894.315L651.609 899.07ZM648.905 887.091C648.489 885.081 648.085 883.048 647.695 880.994L667.344 877.264C667.714 879.21 668.095 881.132 668.489 883.031L648.905 887.091ZM646.589 874.9C646.248 872.929 645.918 870.938 645.6 868.927L665.355 865.806C665.658 867.72 665.971 869.613 666.296 871.485L646.589 874.9ZM644.683 862.833C644.39 860.783 644.109 858.713 643.839 856.622L663.675 854.068C663.933 856.066 664.202 858.044 664.482 859.999L644.683 862.833ZM643.113 850.674C642.881 848.674 642.66 846.655 642.451 844.617L662.345 842.568C662.547 844.524 662.758 846.459 662.98 848.376L643.113 850.674ZM641.854 838.45C641.671 836.432 641.498 834.396 641.336 832.343L661.274 830.768C661.43 832.746 661.596 834.704 661.772 836.645L641.854 838.45ZM640.896 826.348C640.759 824.333 640.632 822.301 640.514 820.252L660.481 819.107C660.595 821.086 660.718 823.047 660.85 824.991L640.896 826.348ZM640.191 814.056C640.097 812.055 640.013 810.039 639.937 808.007L659.923 807.264C659.996 809.232 660.079 811.183 660.169 813.118L640.191 814.056ZM639.742 802.002C639.685 799.984 639.638 797.952 639.599 795.905L659.596 795.528C659.633 797.516 659.679 799.487 659.734 801.443L639.742 802.002ZM639.51 789.716C639.49 787.713 639.478 785.695 639.475 783.663L659.475 783.63C659.478 785.607 659.49 787.569 659.509 789.516L639.51 789.716ZM639.489 777.677C639.502 775.667 639.522 773.644 639.551 771.607L659.549 771.888C659.521 773.874 659.501 775.845 659.489 777.802L639.489 777.677ZM639.661 765.453C639.705 763.425 639.757 761.383 639.816 759.327L659.808 759.907C659.75 761.914 659.699 763.908 659.656 765.887L639.661 765.453ZM640.009 753.383C640.081 751.388 640.16 749.381 640.246 747.362L660.227 748.213C660.143 750.188 660.066 752.15 659.996 754.099L640.009 753.383ZM640.525 741.265C640.626 739.22 640.734 737.162 640.849 735.091L660.818 736.203C660.705 738.231 660.6 740.246 660.501 742.247L640.525 741.265ZM641.201 729.108C641.322 727.134 641.451 725.149 641.586 723.153L661.54 724.502C661.408 726.46 661.282 728.406 661.163 730.34L641.201 729.108ZM642.01 717.128C642.159 715.109 642.313 713.077 642.475 711.034L662.413 712.61C662.254 714.616 662.102 716.61 661.957 718.592L642.01 717.128ZM642.979 704.87C643.145 702.907 643.317 700.933 643.495 698.948L663.415 700.737C663.24 702.687 663.071 704.627 662.908 706.555L642.979 704.87ZM644.044 693.008C644.233 691.017 644.427 689.016 644.628 687.004L664.529 688.99C664.332 690.97 664.14 692.938 663.954 694.896L644.044 693.008ZM645.249 680.936C645.462 678.903 645.681 676.859 645.906 674.804L665.787 676.982C665.565 679.005 665.35 681.018 665.14 683.019L645.249 680.936ZM646.57 668.861C646.794 666.902 647.023 664.933 647.257 662.955L667.118 665.308C666.887 667.258 666.661 669.198 666.441 671.128L646.57 668.861ZM647.977 656.99C648.222 654.992 648.473 652.984 648.729 650.967L668.57 653.489C668.317 655.479 668.069 657.458 667.828 659.428L647.977 656.99ZM649.515 644.885C649.779 642.878 650.048 640.862 650.322 638.836L670.141 641.52C669.87 643.519 669.605 645.509 669.345 647.489L649.515 644.885ZM651.126 632.979C651.4 631.017 651.678 629.047 651.961 627.068L671.759 629.9C671.48 631.855 671.205 633.801 670.935 635.737L651.126 632.979ZM652.825 621.103C653.119 619.106 653.417 617.1 653.72 615.085L673.497 618.063C673.198 620.054 672.903 622.036 672.613 624.009L652.825 621.103ZM654.646 609.013C654.802 607.997 654.96 606.978 655.12 605.957L674.88 609.04C674.723 610.049 674.567 611.057 674.412 612.061L654.646 609.013ZM655.12 605.957C655.273 604.973 655.428 603.986 655.583 602.996L675.341 606.101C675.186 607.083 675.033 608.063 674.88 609.04L655.12 605.957ZM656.528 597.026C656.842 595.054 657.159 593.071 657.479 591.079L677.226 594.255C676.907 596.237 676.591 598.209 676.279 600.17L656.528 597.026ZM658.443 585.109C658.763 583.141 659.084 581.164 659.408 579.178L679.147 582.398C678.824 584.378 678.504 586.349 678.186 588.31L658.443 585.109ZM660.383 573.213C660.705 571.247 661.029 569.273 661.354 567.291L681.09 570.531C680.765 572.511 680.442 574.482 680.12 576.445L660.383 573.213ZM662.332 561.339C662.655 559.371 662.979 557.397 663.304 555.416L683.04 558.654C682.715 560.636 682.39 562.612 682.067 564.58L662.332 561.339ZM664.278 549.472C664.6 547.503 664.923 545.529 665.245 543.549L684.985 546.766C684.661 548.751 684.338 550.73 684.015 552.702L664.278 549.472ZM666.21 537.611C666.53 535.642 666.848 533.668 667.167 531.688L686.913 534.866C686.593 536.853 686.273 538.835 685.953 540.811L666.21 537.611ZM668.118 525.755C668.432 523.785 668.746 521.81 669.058 519.832L688.813 522.953C688.499 524.942 688.184 526.927 687.868 528.906L668.118 525.755ZM669.99 513.901C670.298 511.931 670.604 509.956 670.909 507.978L690.676 511.025C690.369 513.017 690.06 515.005 689.751 516.988L669.99 513.901ZM671.817 502.049C672.117 500.077 672.414 498.102 672.71 496.125L692.49 499.083C692.192 501.076 691.892 503.067 691.59 505.053L671.817 502.049ZM673.589 490.196C673.879 488.223 674.166 486.248 674.451 484.271L694.247 487.123C693.959 489.119 693.669 491.112 693.377 493.103L673.589 490.196ZM675.297 478.341C675.575 476.368 675.85 474.393 676.123 472.415L695.936 475.145C695.66 477.144 695.382 479.141 695.101 481.134L675.297 478.341ZM676.93 466.485C677.195 464.51 677.457 462.534 677.715 460.557L697.547 463.149C697.285 465.15 697.02 467.15 696.752 469.148L676.93 466.485ZM678.479 454.626C678.729 452.65 678.976 450.673 679.219 448.696L699.07 451.132C698.824 453.137 698.574 455.14 698.32 457.142L678.479 454.626ZM679.934 442.764C680.168 440.786 680.398 438.809 680.623 436.832L700.495 439.094C700.266 441.102 700.033 443.109 699.795 445.115L679.934 442.764ZM681.285 430.898C681.5 428.92 681.711 426.941 681.917 424.964L701.81 427.035C701.6 429.046 701.386 431.057 701.167 433.068L681.285 430.898ZM682.52 419.03C682.716 417.05 682.906 415.071 683.091 413.093L703.004 414.953C702.816 416.968 702.622 418.983 702.423 420.998L682.52 419.03ZM683.628 407.159C683.802 405.178 683.97 403.198 684.132 401.22L704.065 402.849C703.9 404.868 703.729 406.887 703.552 408.907L683.628 407.159ZM684.598 395.287C684.748 393.305 684.891 391.324 685.027 389.346L704.98 390.722C704.841 392.744 704.694 394.768 704.541 396.793L684.598 395.287ZM685.416 383.415C685.539 381.432 685.656 379.451 685.764 377.474L705.734 378.572C705.623 380.598 705.504 382.626 705.378 384.655L685.416 383.415ZM686.069 371.545C686.163 369.561 686.25 367.581 686.329 365.604L706.313 366.4C706.232 368.43 706.143 370.461 706.046 372.495L686.069 371.545ZM686.541 359.679C686.604 357.696 686.658 355.716 686.704 353.741L706.699 354.207C706.652 356.239 706.595 358.275 706.531 360.313L686.541 359.679ZM686.816 347.821C686.845 345.839 686.865 343.861 686.875 341.889L706.875 341.994C706.864 344.029 706.844 346.068 706.814 348.11L686.816 347.821ZM686.878 335.975C686.869 333.995 686.851 332.021 686.822 330.052L706.82 329.763C706.85 331.8 706.869 333.842 706.878 335.888L686.878 335.975ZM686.706 324.148C686.657 322.171 686.597 320.201 686.526 318.238L706.513 317.519C706.587 319.557 706.649 321.6 706.7 323.649L686.706 324.148ZM686.281 312.345C686.187 310.374 686.082 308.41 685.965 306.454L705.93 305.265C706.051 307.303 706.161 309.347 706.258 311.397L686.281 312.345ZM685.579 300.577C685.437 298.613 685.283 296.658 685.116 294.71L705.044 293.007C705.218 295.044 705.379 297.087 705.527 299.137L685.579 300.577ZM684.576 288.854C684.382 286.9 684.174 284.955 683.954 283.02L703.825 280.756C704.057 282.788 704.274 284.829 704.478 286.876L684.576 288.854ZM683.245 277.19C682.994 275.249 682.729 273.318 682.45 271.398L702.242 268.52C702.537 270.547 702.816 272.582 703.08 274.625L683.245 277.19ZM681.558 265.603C681.246 263.677 680.918 261.762 680.575 259.859L700.257 256.31C700.621 258.33 700.969 260.358 701.3 262.396L681.558 265.603ZM679.484 254.112C679.104 252.202 678.707 250.304 678.294 248.418L697.83 244.136C698.271 246.149 698.694 248.171 699.099 250.204L679.484 254.112ZM676.991 242.744C676.765 241.805 676.536 240.869 676.301 239.937L695.699 235.064C695.95 236.064 696.196 237.066 696.438 238.072L676.991 242.744ZM676.301 239.937C676.058 238.969 675.811 238.005 675.56 237.046L694.907 231.977C695.175 233.002 695.439 234.031 695.699 235.064L676.301 239.937ZM674.003 231.343C673.468 229.459 672.917 227.592 672.351 225.743L691.473 219.883C692.081 221.866 692.671 223.864 693.243 225.88L674.003 231.343ZM670.604 220.245C670.001 218.417 669.384 216.607 668.75 214.814L687.609 208.153C688.29 210.081 688.953 212.026 689.599 213.987L670.604 220.245ZM666.723 209.272C666.031 207.443 665.322 205.632 664.597 203.838L683.137 196.339C683.919 198.272 684.683 200.223 685.428 202.192L666.723 209.272ZM662.372 198.512C661.614 196.754 660.839 195.014 660.049 193.291L678.228 184.953C679.082 186.815 679.919 188.695 680.737 190.593L662.372 198.512ZM657.539 187.986C656.685 186.234 655.813 184.501 654.925 182.786L672.684 173.587C673.646 175.445 674.589 177.321 675.514 179.216L657.539 187.986ZM652.21 177.696C651.288 176.017 650.35 174.357 649.396 172.714L666.689 162.668C667.725 164.45 668.742 166.251 669.741 168.071L652.21 177.696ZM646.401 167.703C645.385 166.05 644.351 164.415 643.301 162.798L660.073 151.903C661.214 153.659 662.336 155.435 663.439 157.23L646.401 167.703ZM640.1 158.002C639.015 156.419 637.914 154.855 636.796 153.308L653.005 141.593C654.22 143.274 655.417 144.974 656.596 146.693L640.1 158.002ZM633.329 148.637C632.157 147.098 630.968 145.578 629.762 144.075L645.363 131.56C646.673 133.192 647.965 134.845 649.239 136.517L633.329 148.637ZM626.096 139.62C624.855 138.148 623.596 136.695 622.322 135.259L637.282 121.985C638.665 123.544 640.031 125.122 641.38 126.72L626.096 139.62ZM618.419 130.968C617.101 129.555 615.768 128.16 614.418 126.782L628.706 112.788C630.17 114.282 631.616 115.795 633.045 117.328L618.419 130.968ZM610.321 122.699C608.938 121.354 607.539 120.025 606.124 118.713L619.723 104.048C621.254 105.468 622.769 106.906 624.267 108.364L610.321 122.699ZM601.826 114.821C600.378 113.54 598.915 112.276 597.436 111.029L610.334 95.7432C611.93 97.09 613.51 98.4553 615.076 99.8393L601.826 114.821ZM592.955 107.335C591.45 106.123 589.93 104.926 588.395 103.746L600.588 87.8927C602.24 89.1632 603.877 90.4517 605.5 91.7584L592.955 107.335ZM583.753 100.257C582.191 99.109 580.615 97.9771 579.025 96.8607L590.517 80.4919C592.223 81.6901 593.916 82.9057 595.595 84.1391L583.753 100.257ZM574.212 93.5574C572.606 92.4799 570.987 91.4174 569.354 90.3698L580.155 73.537C581.901 74.6578 583.635 75.7952 585.356 76.9497L574.212 93.5574ZM564.42 87.2735C562.762 86.2561 561.091 85.2533 559.408 84.2649L569.533 67.0171C571.328 68.071 573.111 69.1411 574.881 70.2276L564.42 87.2735ZM554.323 81.3454C552.635 80.3972 550.934 79.4629 549.221 78.5422L558.69 60.9258C560.51 61.9041 562.319 62.8978 564.116 63.9071L554.323 81.3454ZM544.047 75.8212C542.31 74.9277 540.562 74.0478 538.802 73.1812L547.637 55.2385C549.501 56.1563 551.354 57.089 553.196 58.0368L544.047 75.8212ZM533.505 70.6292C531.748 69.8012 529.98 68.9859 528.201 68.1832L536.428 49.9537C538.306 50.801 540.174 51.6624 542.031 52.5379L533.505 70.6292ZM522.834 65.813C521.034 65.0354 519.224 64.2703 517.404 63.5174L525.048 45.0358C526.964 45.8281 528.87 46.6339 530.767 47.4535L522.834 65.813ZM511.939 61.3057C510.127 60.5885 508.306 59.883 506.475 59.189L513.565 40.4877C515.485 41.2157 517.398 41.9565 519.301 42.7101L511.939 61.3057ZM500.956 57.1419C499.107 56.4709 497.249 55.8114 495.382 55.1632L501.943 36.2698C503.896 36.948 505.841 37.6384 507.778 38.3413L500.956 57.1419ZM489.783 53.2613C487.929 52.6452 486.066 52.0397 484.195 51.4449L490.254 32.385C492.206 33.0056 494.151 33.6377 496.089 34.2815L489.783 53.2613ZM478.558 49.6919C476.671 49.1181 474.776 48.5547 472.874 48.0015L478.458 28.7969C480.438 29.3726 482.411 29.9593 484.377 30.5572L478.558 49.6919ZM467.168 46.3793C465.28 45.8545 463.384 45.3395 461.482 44.8342L466.617 25.5047C468.592 26.0293 470.561 26.5643 472.524 27.1097L467.168 46.3793ZM455.755 43.347C453.84 42.8609 451.918 42.3842 449.989 41.9169L454.699 22.4793C456.696 22.9634 458.689 23.4574 460.675 23.9616L455.755 43.347ZM444.197 40.5458C442.283 40.1032 440.363 39.6696 438.437 39.2447L442.745 19.7143C444.736 20.1535 446.722 20.6019 448.703 21.0599L444.197 40.5458ZM432.642 37.9963C430.705 37.5888 428.762 37.19 426.814 36.7997L430.743 17.1894C432.753 17.5921 434.758 18.0037 436.758 18.4245L432.642 37.9963ZM420.954 35.654C419.02 35.285 417.08 34.9241 415.136 34.5712L418.707 14.8927C420.709 15.2561 422.707 15.6278 424.701 16.0081L420.954 35.654ZM409.289 33.5364C407.336 33.1994 405.378 32.8702 403.416 32.5487L406.65 12.8119C408.667 13.1424 410.68 13.4809 412.69 13.8277L409.289 33.5364ZM397.517 31.607C395.562 31.3031 393.603 31.0067 391.64 30.7175L394.555 10.9311C396.57 11.2279 398.581 11.5323 400.589 11.8444L397.517 31.607ZM385.754 29.8734C383.788 29.5991 381.819 29.332 379.847 29.0719L382.462 9.2436C384.483 9.51019 386.502 9.784 388.517 10.0652L385.754 29.8734ZM373.919 28.312C371.948 28.0666 369.974 27.8279 367.997 27.5958L370.329 7.73223C372.352 7.9697 374.373 8.21402 376.391 8.46533L373.919 28.312ZM362.08 26.9216C360.105 26.7033 358.127 26.4915 356.147 26.2859L358.213 6.39281C360.236 6.60289 362.257 6.81944 364.277 7.04263L362.08 26.9216ZM350.2 25.6877C348.217 25.4948 346.232 25.3079 344.246 25.127L346.06 5.20938C348.087 5.394 350.113 5.58477 352.137 5.78184L350.2 25.6877ZM338.303 24.6039C336.32 24.4353 334.335 24.2726 332.349 24.1154L333.927 4.17775C335.951 4.33791 337.974 4.50385 339.997 4.67574L338.303 24.6039ZM326.386 23.6608C324.397 23.5148 322.407 23.3743 320.416 23.2391L321.77 3.285C323.798 3.42263 325.824 3.56573 327.851 3.71447L326.386 23.6608ZM314.449 22.8501C312.459 22.7257 310.469 22.6064 308.478 22.4922L309.623 2.52504C311.648 2.64119 313.673 2.76248 315.697 2.88908L314.449 22.8501ZM302.502 22.1646C300.51 22.0603 298.517 21.9609 296.524 21.8662L297.473 1.88875C299.498 1.9849 301.523 2.08591 303.548 2.19191L302.502 22.1646ZM290.54 21.5962C288.544 21.5108 286.548 21.43 284.552 21.3537L285.317 1.3683C287.342 1.44576 289.368 1.52777 291.395 1.61448L290.54 21.5962ZM278.566 21.138C276.57 21.0704 274.575 21.0072 272.581 20.9482L273.173 0.956919C275.195 1.01679 277.218 1.0809 279.242 1.14942L278.566 21.138ZM266.592 20.7832C264.59 20.7321 262.589 20.6851 260.588 20.642L261.019 0.646675C263.045 0.690323 265.073 0.737946 267.102 0.789697L266.592 20.7832ZM254.59 20.5244C252.592 20.489 250.595 20.4573 248.599 20.4293L248.88 0.43126C250.9 0.459623 252.921 0.491652 254.945 0.527504L254.59 20.5244ZM242.616 20.3559C240.608 20.3348 238.601 20.3172 236.596 20.303L236.738 0.303534C238.765 0.317899 240.795 0.335675 242.826 0.357021L242.616 20.3559ZM230.586 20.2704C228.585 20.2628 226.585 20.2584 224.588 20.257L224.601 0.25703C226.619 0.258373 228.639 0.262815 230.662 0.270514L230.586 20.2704ZM218.603 20.2621C216.594 20.2668 214.588 20.2744 212.583 20.2849L212.479 0.285172C214.502 0.27461 216.528 0.26688 218.557 0.262142L218.603 20.2621ZM206.56 20.3247C204.555 20.3407 202.553 20.3594 200.554 20.3805L200.343 0.381651C202.358 0.360304 204.378 0.341481 206.401 0.325348L206.56 20.3247ZM194.568 20.4514C192.56 20.4776 190.555 20.5063 188.554 20.5371L188.246 0.539484C190.262 0.508402 192.282 0.479556 194.306 0.453112L194.568 20.4514ZM182.516 20.637C180.507 20.6724 178.503 20.71 176.502 20.7494L176.107 0.753312C178.121 0.713585 180.14 0.675789 182.163 0.640095L182.516 20.637ZM170.512 20.8734C168.506 20.9169 166.505 20.9621 164.508 21.009L164.038 1.0145C166.047 0.967365 168.061 0.921849 170.079 0.878121L170.512 20.8734ZM158.454 21.1562C156.441 21.2068 154.434 21.2589 152.431 21.3122L151.898 1.31935C153.91 1.26571 155.928 1.21336 157.952 1.16249L158.454 21.1562ZM146.44 21.4761C144.434 21.5324 142.434 21.5897 140.44 21.648L139.856 1.65657C141.857 1.59803 143.865 1.54045 145.88 1.48399L146.44 21.4761ZM134.372 21.8288C132.355 21.89 130.345 21.9519 128.341 22.0145L127.717 2.02421C129.726 1.96148 131.743 1.89935 133.766 1.83801L134.372 21.8288ZM122.35 22.2038C120.341 22.268 118.339 22.3326 116.345 22.3975L115.695 2.40805C117.693 2.34309 119.698 2.27834 121.711 2.21401L122.35 22.2038ZM110.263 22.5965C108.244 22.663 106.232 22.7295 104.228 22.7958L103.567 2.80672C105.571 2.74038 107.584 2.67385 109.606 2.60733L110.263 22.5965ZM98.2419 22.994C96.2228 23.0608 94.2123 23.1273 92.2107 23.1931L91.5533 3.20389C93.5529 3.13814 95.562 3.07176 97.5804 3.00496L98.2419 22.994ZM86.1212 23.3921C84.1008 23.4577 82.09 23.5224 80.0889 23.586L79.4536 3.59606C81.4495 3.53263 83.4559 3.46808 85.4726 3.40264L86.1212 23.3921ZM74.1155 23.7732C72.075 23.8362 70.045 23.8978 68.0263 23.9578L67.4329 3.96656C69.4428 3.90689 71.4647 3.84554 73.4983 3.78275L74.1155 23.7732ZM61.939 24.1341C59.9214 24.191 57.9155 24.246 55.9216 24.2987L55.393 4.30567C57.3742 4.25329 59.3683 4.19867 61.3751 4.14206L61.939 24.1341ZM49.9333 24.4509C47.8696 24.5012 45.8193 24.5487 43.783 24.5932L43.3462 4.59797C45.3646 4.55388 47.3981 4.50675 49.4464 4.45687L49.9333 24.4509ZM37.7159 24.7172C35.7078 24.7553 33.7139 24.79 31.7346 24.8211L31.4206 4.82359C33.3768 4.79286 35.3489 4.7585 37.3367 4.7208L37.7159 24.7172ZM25.6023 24.906C23.5458 24.9304 21.506 24.9504 19.4834 24.9656L19.333 4.96616C21.3249 4.95118 23.3356 4.93147 25.3647 4.90737L25.6023 24.906ZM13.4675 24.9965C12.4739 24.9991 11.4847 25.0004 10.5 25.0004V5.00042C11.4667 5.00042 12.4382 4.99911 13.4147 4.99653L13.4675 24.9965Z" fill="#C0C0C0"/>
</svg>
