<svg width="83" height="66" viewBox="0 0 83 66" fill="none" xmlns="http://www.w3.org/2000/svg">
<path d="M0 66V60.6322C8.05446 57.8669 14.2712 53.5564 18.6504 47.7006C23.1077 41.9261 25.3363 35.7856 25.3363 29.2791C25.3363 27.7338 24.9845 26.4325 24.2807 25.3752C23.7333 24.6433 23.1859 24.2773 22.6385 24.2773C21.7783 24.2773 19.9015 25.0906 17.0082 26.7172C15.6006 27.4492 14.1148 27.8152 12.5509 27.8152C8.71914 27.8152 5.6694 26.6359 3.40164 24.2773C1.13388 21.9187 0 18.6654 0 14.5176C0 10.5323 1.44667 7.11645 4.34002 4.26987C7.31157 1.42329 10.9087 0 15.1314 0C20.2925 0 24.8672 2.35859 28.8553 7.07579C32.9216 11.7116 34.9548 17.8928 34.9548 25.6192C34.9548 33.9963 32.1396 41.7634 26.5093 48.9205C20.9572 56.159 12.1208 61.8521 0 66Z" fill="#E8331A"/>
<path d="M48.0452 66V60.6322C56.0997 57.8669 62.3165 53.5564 66.6956 47.7006C71.1529 41.9261 73.3816 35.7856 73.3816 29.2791C73.3816 27.7338 73.0297 26.4325 72.3259 25.3752C71.7785 24.6433 71.2311 24.2773 70.6837 24.2773C69.8235 24.2773 67.9468 25.0906 65.0534 26.7172C63.6458 27.4492 62.1601 27.8152 60.5961 27.8152C56.7644 27.8152 53.7146 26.6359 51.4469 24.2773C49.1791 21.9187 48.0452 18.6654 48.0452 14.5176C48.0452 10.5323 49.4919 7.11645 52.3852 4.26987C55.3568 1.42329 58.9539 0 63.1767 0C68.3378 0 72.9124 2.35859 76.9005 7.07579C80.9668 11.7116 83 17.8928 83 25.6192C83 33.9963 80.1849 41.7634 74.5546 48.9205C69.0024 56.159 60.166 61.8521 48.0452 66Z" fill="#E8331A"/>
</svg>
