<svg width="48" height="48" viewBox="0 0 48 48" fill="none" xmlns="http://www.w3.org/2000/svg">
<path fill-rule="evenodd" clip-rule="evenodd" d="M24 24.0009L48 24.0009V41.1469C48 44.9155 44.9146 48.0009 41.146 48.0009H24L24 24.0009Z" fill="white"/>
<path fill-rule="evenodd" clip-rule="evenodd" d="M6.854 0.0008564L24 0.0008564L24 24.0009L0 24.0009L0 6.85486C0 3.08626 3.0854 0.0008564 6.854 0.0008564Z" fill="white"/>
<path fill-rule="evenodd" clip-rule="evenodd" d="M0 24.0009L24 24.0009L24 48.0009H6.854C3.0854 48.0119 0 44.9265 0 41.1469L0 24.0009Z" fill="white"/>
<path fill-rule="evenodd" clip-rule="evenodd" d="M24 0.0008564L41.146 0.0008564C44.9146 0.0008564 48 3.08626 48 6.85486V24.0009L24 24.0009L24 0.0008564Z" fill="white"/>
<path d="M17.496 38.9236V37.458L12.8018 34.1412V30.9567L12.7797 30.7252L12.7467 30.4828L12.6696 30.2294L12.5704 29.987L12.4602 29.8106L12.339 29.6454L12.1847 29.5462L11.9974 29.4911L11.8211 29.5462L11.6668 29.6454L11.5346 29.8106L11.4244 29.987L11.3252 30.2294L11.2481 30.4828L11.193 30.7252V30.9567V34.1412L6.50977 37.458L6.50977 38.9236L11.193 36.5655L11.193 40.1247L9.56211 41.5352V42.5269L11.9974 41.5352L14.4106 42.5269V41.5352L12.8018 40.1247L12.8018 36.5655L17.496 38.9236Z" fill="#F77F08"/>
<path fill-rule="evenodd" clip-rule="evenodd" d="M33.8842 38.0724C35.7244 37.0255 35.7244 37.0035 37.3663 38.1054L37.3553 38.9098L33.8952 38.8988L33.8842 38.0724ZM38.7658 37.4332C39.2616 37.3341 39.6473 37.6757 39.7244 38.0503C39.8346 38.5572 39.482 38.9429 39.0853 39.031C38.0385 39.2514 37.6859 37.6646 38.7658 37.4332ZM32.1432 37.4443C32.628 37.312 33.0357 37.6536 33.1349 38.0283C33.3883 39.0972 31.8236 39.4608 31.5481 38.447C31.4049 37.9291 31.7465 37.5434 32.1432 37.4443ZM32.2974 35.7473C31.8787 35.604 31.7024 35.4828 31.7024 35.0751C31.7024 34.6454 31.7024 34.2156 31.7024 33.7969C31.7024 33.312 31.6253 32.8933 31.8787 32.6949C32.077 32.5407 32.5178 32.3754 32.8374 32.3974C32.9366 32.3423 34.2589 32.3533 34.4572 32.3754C34.5013 32.5627 34.4572 33.0586 34.4793 33.29L36.7933 33.301L36.8043 32.3864C36.9366 32.3313 38.3911 32.3423 38.4793 32.3974C38.8319 32.3974 39.2396 32.5407 39.4269 32.728C39.5812 32.8933 39.5592 32.9374 39.5592 33.2128V35.0971C39.5592 35.3396 39.5151 35.4277 39.3828 35.5379L32.2974 35.7473ZM32.2644 30.8547C32.5399 30.7996 33.0688 30.8327 33.3773 30.8327C33.9944 30.8327 38.6996 30.8106 38.9641 30.8437C39.2837 30.8768 39.5481 31.0421 39.5592 31.3726C39.5922 32.133 38.4903 31.9567 37.8732 31.9567C37.2561 31.9567 32.5619 31.9897 32.2864 31.9456C31.504 31.8134 31.482 31.009 32.2644 30.8547ZM31.7795 39.8575C31.7795 40.6729 31.5812 41.3231 32.4076 41.3561C33.3443 41.3892 33.1239 40.695 33.1349 39.9456L38.1377 39.9346C38.1487 40.6729 37.9283 41.3892 38.8649 41.3561C39.7575 41.3231 39.4269 40.5627 39.5041 39.8465C39.9779 39.6922 40.3415 39.3175 40.5288 38.8768C40.7382 38.3699 40.6721 37.5985 40.6721 37.0035C40.6721 35.6702 40.6721 34.3368 40.6721 33.0145C40.6721 32.4635 40.7382 31.6151 40.5399 31.1522C39.9999 29.8299 38.8319 30.0613 37.6087 30.0613C36.2754 30.0613 34.9421 30.0613 33.6198 30.0613C33.1018 30.0613 32.1211 30.0062 31.7024 30.1605C31.2506 30.3368 30.887 30.7004 30.7107 31.1633C30.5233 31.6701 30.5894 32.4525 30.5894 33.0476C30.5894 34.3809 30.5894 35.7142 30.5894 37.0365C30.5894 37.6206 30.5233 38.4029 30.7437 38.8988C30.9421 39.3506 31.2726 39.6812 31.7795 39.8575Z" fill="#6BC54A"/>
<path fill-rule="evenodd" clip-rule="evenodd" d="M10.1799 6.27595C10.1799 6.26705 10.1799 6.25796 10.1799 6.24868C10.1799 6.03931 10.5326 5.75281 10.775 5.75281H13.2543C13.5959 5.75281 13.9155 6.01727 13.9155 6.30377C13.9155 6.65639 13.5849 6.90983 13.2543 6.90983H10.8411C10.6427 6.90983 10.5105 6.84372 10.4003 6.75556C10.1792 6.57654 10.1794 6.46797 10.1799 6.27595ZM8.5269 14.1814C8.16327 14.3137 8.02002 14.5781 8.02002 14.9197C8.02002 15.4707 8.96768 15.8123 9.48558 15.3715C10.1467 14.8095 9.43049 13.8619 8.5269 14.1814ZM15.6674 14.3137C15.5352 14.2145 15.2928 14.1153 15.0503 14.1153C14.3782 14.1153 13.8492 14.8646 14.4773 15.3715C14.7197 15.5699 15.0834 15.647 15.447 15.5038C16.0421 15.2723 16.0641 14.6002 15.6674 14.3137ZM7.7225 10.1374V11.4707C7.7225 11.6139 7.74453 11.7462 7.76657 11.8784C7.85473 12.209 8.2404 12.4734 8.61506 12.4734L15.4029 12.4734C15.8547 12.4734 16.1523 12.242 16.2845 11.9666C16.3428 11.85 16.3288 11.7382 16.3126 11.609C16.3044 11.5428 16.2955 11.472 16.2955 11.3936C16.2966 11.3516 16.2979 11.304 16.2994 11.2517C16.3134 10.7546 16.3391 9.84565 16.2294 9.58639C16.1082 9.31091 15.7886 9.0795 15.3368 9.0795L8.74729 9.0795C7.96492 9.0795 7.7225 9.53129 7.7225 10.1374ZM6.82993 14.7434L6.82993 9.0795C6.82993 7.97757 7.6674 7.27234 8.98971 7.27234L15.0724 7.27234C15.9649 7.27234 16.6702 7.63598 16.9897 8.19796C17.0999 8.37427 17.1991 8.60567 17.1991 8.85912V14.8646C17.1991 15.3385 16.9787 15.658 16.7253 15.9335C16.4718 16.209 16.0531 16.3963 15.6454 16.4735L16.8244 17.8068C16.8827 17.8651 16.9221 17.9108 16.9712 17.9676C16.987 17.986 17.0039 18.0056 17.0228 18.0272C17.0889 18.1043 17.144 18.1704 17.1991 18.2365H15.414C15.3313 18.1333 15.2401 18.0429 15.1483 17.952C15.0932 17.8974 15.038 17.8426 14.9842 17.7847L14.1357 16.9142C14.1091 16.8876 14.0852 16.865 14.062 16.8431C14.018 16.8015 13.9769 16.7626 13.9264 16.7049C13.9104 16.6869 13.8956 16.6694 13.8814 16.6526C13.8172 16.5767 13.7672 16.5175 13.695 16.5175H10.5434C10.4737 16.5175 10.4148 16.5829 10.3592 16.6447C10.3358 16.6708 10.3129 16.6963 10.29 16.7159L9.47456 17.4762C9.45253 17.4982 9.43324 17.512 9.41396 17.5258C9.39467 17.5396 9.37539 17.5533 9.35335 17.5754L8.68117 18.2365H6.79688L8.48283 16.4624C8.05307 16.4404 7.51313 16.1319 7.30376 15.9004C7.02828 15.6029 6.82993 15.2613 6.82993 14.7434Z" fill="#E8331A"/>
<path fill-rule="evenodd" clip-rule="evenodd" d="M31.6504 11.1974L35.9589 9.70979L40.3336 11.2084L39.9038 7.16433L38.4824 7.14229L38.4273 5.40125L33.3584 5.40125L33.2482 7.0872L32.1463 7.0872L31.6504 10.9109C31.6614 10.977 31.6834 11.1092 31.6504 11.1974ZM32.7149 7.75867L32.2988 10.2298L36.033 9.07599L39.7124 10.201L39.4605 7.75867L32.7149 7.75867ZM36.0426 11.8244L31.4131 13.4026L30.8846 12.0943L32.1374 11.6271L35.9643 10.2254L39.85 11.6375L41.1223 12.1359L40.584 13.3507L36.0426 11.8244ZM35.8286 12.3466L35.8217 16.224C35.5853 16.2122 35.4177 16.1791 35.2864 16.1396C35.1285 16.0921 35.0061 16.0312 34.8386 15.948L34.8288 15.9431C34.4494 15.7546 34.0202 15.5572 33.1411 15.5476C32.9786 15.5456 32.823 15.5512 32.6741 15.5627L31.9453 13.7037L35.8286 12.3466ZM38.8799 15.5223C39.0085 15.5223 39.1272 15.5279 39.2377 15.5379L40.0649 13.6565L36.19 12.3466L36.1829 16.2096C36.2769 16.1949 36.3852 16.1715 36.5087 16.139C36.7391 16.0783 36.9887 15.9955 37.2573 15.9057L37.283 15.8971L37.283 15.8971L37.283 15.8971C37.5371 15.8122 37.8086 15.7214 38.0662 15.652C38.3285 15.5813 38.6127 15.5223 38.8799 15.5223ZM37.9443 16.1852C38.1836 16.1138 38.4511 16.0516 38.7069 16.0516C39.3596 16.0516 39.7403 16.222 40.0961 16.3839L40.1104 16.3905C40.4224 16.5325 40.7346 16.6746 41.3303 16.7441L41.3304 16.7441C41.3317 16.7441 41.3412 16.7445 41.3608 16.7422C41.3841 16.7395 41.4152 16.7337 41.4549 16.7233C41.536 16.7022 41.6312 16.6677 41.7394 16.6231C41.8168 16.5912 41.8895 16.559 41.9647 16.5257L41.9647 16.5257L41.9648 16.5257C41.9967 16.5115 42.029 16.4972 42.0623 16.4826C42.1596 16.4401 42.2836 16.3869 42.395 16.3563L42.6757 17.3775C42.6495 17.3847 42.5937 17.4062 42.4868 17.4529L42.4065 17.4884C42.327 17.5236 42.234 17.5648 42.1428 17.6024C42.0163 17.6545 41.8708 17.7093 41.7227 17.748C41.58 17.7853 41.3992 17.8175 41.2128 17.7966L41.2107 17.7964C40.4482 17.7079 40.0177 17.5119 39.6675 17.3525L39.6573 17.3478C39.3437 17.2051 39.1301 17.1107 38.7069 17.1107C38.6061 17.1107 38.456 17.1378 38.2468 17.2001C38.0446 17.2604 37.8249 17.3417 37.5837 17.4309L37.5836 17.4309L37.5753 17.434C37.3385 17.5215 37.0803 17.6169 36.8334 17.6888C36.591 17.7594 36.3205 17.8197 36.0608 17.8167L36.06 17.8166C35.691 17.8118 35.403 17.7613 35.1543 17.6785C34.9252 17.6022 34.7445 17.5026 34.6034 17.4248L34.6033 17.4248L34.6033 17.4248L34.5778 17.4108C34.4302 17.3296 34.3159 17.2695 34.1666 17.2233C34.0187 17.1775 33.8163 17.1396 33.5083 17.1359L33.5075 17.1359C32.9713 17.1287 32.5383 17.2496 32.1363 17.3915C32.0633 17.4173 31.9794 17.4483 31.8935 17.48L31.8934 17.4801L31.8934 17.4801L31.8933 17.4801C31.7687 17.5261 31.6398 17.5738 31.5329 17.6096C31.3331 17.6765 31.1107 17.7389 30.8766 17.7564L30.8759 17.7564C30.0269 17.8187 29.5373 17.5355 29.2051 17.3403L29.7417 16.4272L29.7428 16.4278C30.0107 16.5853 30.2717 16.7387 30.7981 16.7002C30.9017 16.6924 31.0264 16.6624 31.1963 16.6054C31.3 16.5707 31.3916 16.5366 31.4942 16.4984L31.4943 16.4984L31.4944 16.4983C31.579 16.4669 31.6711 16.4326 31.7838 16.3928C32.2388 16.2322 32.8066 16.0673 33.5213 16.0769C33.9138 16.0816 34.2195 16.1309 34.4801 16.2117C34.7394 16.292 34.9339 16.3979 35.0882 16.4828L35.0936 16.4858C35.2478 16.5706 35.3531 16.6285 35.4887 16.6736C35.6204 16.7174 35.7984 16.754 36.0734 16.7577C36.1765 16.7588 36.3282 16.7329 36.5371 16.672C36.7419 16.6123 36.9646 16.5306 37.2079 16.4406L37.2322 16.4317C37.4611 16.347 37.7087 16.2554 37.9443 16.1852Z" fill="#0AD3F7"/>
</svg>
