<svg width="66" height="25" viewBox="0 0 66 25" fill="none" xmlns="http://www.w3.org/2000/svg">
<path d="M8.52667 1.05137C8.10782 0.772759 7.59633 0.670612 7.10472 0.767405C6.61311 0.864198 6.18166 1.152 5.90527 1.5675L4.86316 3.13415C4.77103 3.27265 4.73814 3.44237 4.77172 3.60598C4.80529 3.76958 4.9026 3.91367 5.04221 4.00654C5.46106 4.28515 5.75297 4.71741 5.85371 5.20823C5.95444 5.69904 5.85577 6.20821 5.57938 6.62371C5.30299 7.03921 4.87154 7.32701 4.37993 7.4238C3.88832 7.5206 3.37683 7.41845 2.95798 7.13983C2.81837 7.04696 2.64787 7.01291 2.484 7.04518C2.32013 7.07744 2.17631 7.17338 2.08418 7.31188L1.04207 8.87852C0.765682 9.29403 0.667003 9.80319 0.767742 10.294C0.86848 10.7848 1.16038 11.2171 1.57923 11.4957L15.2663 20.6002C15.6852 20.8788 16.1967 20.981 16.6883 20.8842C17.1799 20.7874 17.6114 20.4996 17.8877 20.0841L18.9299 18.5174C19.022 18.3789 19.0549 18.2092 19.0213 18.0456C18.9877 17.882 18.8904 17.7379 18.7508 17.645C18.332 17.3664 18.04 16.9342 17.9393 16.4433C17.8386 15.9525 17.9372 15.4434 18.2136 15.0279C18.49 14.6124 18.9215 14.3246 19.4131 14.2278C19.9047 14.131 20.4162 14.2331 20.835 14.5117C20.9747 14.6046 21.1451 14.6387 21.309 14.6064C21.4729 14.5741 21.6167 14.4782 21.7088 14.3397L22.7509 12.773C23.0273 12.3575 23.126 11.8484 23.0253 11.3576C22.9245 10.8668 22.6326 10.4345 22.2138 10.1559L8.52667 1.05137Z" fill="white"/>
<path d="M3.97401 12.0656C4.28107 11.761 4.69796 11.5896 5.13309 11.5896H21.5717C22.0069 11.5896 22.4238 11.761 22.7308 12.0656C23.0378 12.3702 23.2099 12.7828 23.2099 13.2125V15.0941C23.2099 15.1912 23.171 15.2847 23.1012 15.354C23.0313 15.4234 22.936 15.4627 22.8362 15.4627C22.2653 15.4627 21.7173 15.6877 21.3129 16.0888C20.9085 16.49 20.6809 17.0346 20.6809 17.6029C20.6809 18.1712 20.9085 18.7158 21.3129 19.117C21.7173 19.5181 22.2653 19.7431 22.8362 19.7431C22.936 19.7431 23.0313 19.7825 23.1012 19.8518C23.171 19.9211 23.2099 20.0146 23.2099 20.1117V21.9933C23.2099 22.4231 23.0378 22.8356 22.7308 23.1402C22.4238 23.4448 22.0069 23.6163 21.5717 23.6163H5.13309C4.69796 23.6163 4.28107 23.4448 3.97401 23.1402C3.66703 22.8356 3.49495 22.4231 3.49495 21.9933V20.1117C3.49495 20.0146 3.53381 19.9211 3.60365 19.8518C3.67356 19.7825 3.76882 19.7431 3.86858 19.7431C4.43956 19.7431 4.98757 19.5181 5.39194 19.117C5.79638 18.7158 6.02397 18.1712 6.02397 17.6029C6.02397 17.0346 5.79638 16.49 5.39194 16.0888C4.98757 15.6877 4.43956 15.4627 3.86858 15.4627C3.76882 15.4627 3.67356 15.4234 3.60365 15.354C3.5338 15.2847 3.49495 15.1912 3.49495 15.0941V13.2125C3.49495 12.7828 3.66703 12.3702 3.97401 12.0656Z" fill="url(#paint0_linear_305_504)" stroke="white" stroke-width="0.517241"/>
<path d="M13.5548 12.5438H9.4477C8.98087 12.5438 8.53315 12.7277 8.20305 13.0549C7.87295 13.3822 7.6875 13.826 7.6875 14.2888V18.9422C7.6875 19.4051 7.87295 19.8489 8.20305 20.1762C8.53315 20.5034 8.98087 20.6873 9.4477 20.6873L8.86097 21.2689V21.8506H9.4477L10.6212 20.6698L11.7946 20.6873V17.7789H8.86097V13.7072H14.1416V14.8705H15.315V14.2888C15.315 13.826 15.1296 13.3822 14.7995 13.0549C14.4694 12.7277 14.0217 12.5438 13.5548 12.5438ZM9.4477 18.3606C9.60331 18.3606 9.75255 18.4219 9.86258 18.5309C9.97262 18.64 10.0344 18.788 10.0344 18.9422C10.0344 19.0965 9.97262 19.2445 9.86258 19.3536C9.75255 19.4626 9.60331 19.5239 9.4477 19.5239C9.29209 19.5239 9.14285 19.4626 9.03282 19.3536C8.92278 19.2445 8.86097 19.0965 8.86097 18.9422C8.86097 18.788 8.92278 18.64 9.03282 18.5309C9.14285 18.4219 9.29209 18.3606 9.4477 18.3606ZM18.5831 15.8361C18.501 15.6034 18.278 15.4522 18.014 15.4522H13.7954C13.5255 15.4522 13.3084 15.6034 13.2204 15.8361L12.3814 18.2268V21.4318C12.3814 21.6529 12.5691 21.8506 12.7921 21.8506H13.1559C13.3788 21.8506 13.5548 21.6296 13.5548 21.4085V20.6873H18.2487V21.4085C18.2487 21.6296 18.4306 21.8506 18.6535 21.8506H19.0114C19.2344 21.8506 19.4222 21.6529 19.4222 21.4318V18.2268L18.5831 15.8361ZM13.7954 16.0339H18.014L18.6183 17.7789H13.1911L13.7954 16.0339ZM13.5548 19.5239C13.3992 19.5239 13.25 19.4626 13.1399 19.3536C13.0299 19.2445 12.9681 19.0965 12.9681 18.9422C12.9681 18.788 13.0299 18.64 13.1399 18.5309C13.25 18.4219 13.3992 18.3606 13.5548 18.3606C13.7104 18.3606 13.8597 18.4219 13.9697 18.5309C14.0797 18.64 14.1416 18.788 14.1416 18.9422C14.1416 19.0965 14.0797 19.2445 13.9697 19.3536C13.8597 19.4626 13.7104 19.5239 13.5548 19.5239ZM18.2487 19.5239C18.0931 19.5239 17.9438 19.4626 17.8338 19.3536C17.7238 19.2445 17.662 19.0965 17.662 18.9422C17.662 18.788 17.7238 18.64 17.8338 18.5309C17.9438 18.4219 18.0931 18.3606 18.2487 18.3606C18.4043 18.3606 18.5535 18.4219 18.6636 18.5309C18.7736 18.64 18.8354 18.788 18.8354 18.9422C18.8354 19.0965 18.7736 19.2445 18.6636 19.3536C18.5535 19.4626 18.4043 19.5239 18.2487 19.5239Z" fill="white"/>
<path d="M30.6506 7.73433L28.5278 14.1026V14.6923H30.1789L30.6703 13.2181H32.9896L33.4809 14.6923H35.1909V14.1026L33.0682 7.73433H30.6506ZM32.0854 9.38536C32.0854 10.5057 32.3213 11.2133 32.4982 11.744H31.1616C31.3385 11.2133 31.5744 10.5057 31.5744 9.38536H32.0854ZM37.828 9.26743H38.8894C39.597 9.26743 39.597 9.26743 39.597 10.3681C39.597 11.4492 39.597 11.4492 38.8894 11.4492H37.828V9.26743ZM36.0591 14.6923H37.828V12.9823H38.4177C39.597 12.9823 41.4839 12.9823 41.4839 10.3681C41.4839 7.73433 39.597 7.73433 38.4177 7.73433H36.0591V14.6923ZM42.5852 7.73433V14.6923H44.2952V9.38536H44.649C44.649 10.5647 44.649 10.5647 45.8873 14.6923H47.5383C48.7766 10.5647 48.7766 10.5647 48.7766 9.38536H49.1304V14.6923H50.8404V7.73433H47.9511C46.8897 11.2723 46.8897 11.2723 46.8897 12.4516H46.5359C46.5359 11.2723 46.5359 11.2723 45.4745 7.73433H42.5852Z" fill="black"/>
<path d="M28.5521 19.288H29.1107V17.5749H30.0789V19.288H30.6376V17.0907H28.5521V19.288ZM31.4871 17.0907C31.4778 17.6773 31.4716 18.0155 31.3816 18.6331C31.3444 18.8876 31.2513 18.8938 30.9813 18.8938V19.2942C31.7571 19.2942 31.8192 19.2259 31.8875 18.6983C31.9558 18.1552 31.9682 17.8324 31.9744 17.5749H32.6416V19.288H33.2002V17.0907H31.4871ZM34.2994 17.0907L33.4925 19.108V19.288H34.0325L34.2187 18.8224H35.2987L35.4849 19.288H36.0249V19.108L35.218 17.0907H34.2994ZM34.6097 17.6121H34.9077C34.9077 17.7983 34.9822 17.9845 35.1311 18.3569H34.3863C34.5353 17.9845 34.6097 17.7983 34.6097 17.6121ZM36.8754 17.0907H36.3167V19.288H36.8754V18.4314H37.8436V19.288H38.4023V17.0907H37.8436V17.9473H36.8754V17.0907ZM39.4939 18.5059V17.0907H38.9353V19.288H39.6056C40.2387 18.3383 40.3877 18.1149 40.3877 17.8728H40.5367V19.288H41.0953V17.0907H40.4249C39.7918 18.059 39.6429 18.2824 39.6429 18.5059H39.4939ZM42.1882 17.5749H42.7468C43.1006 17.5749 43.1006 17.5749 43.1006 17.9224C43.1006 18.2638 43.1006 18.2638 42.7468 18.2638H42.1882V17.5749ZM41.6296 19.288H42.1882V18.748H42.5234C43.1006 18.748 43.6965 18.748 43.6965 17.9224C43.6965 17.0907 43.1006 17.0907 42.5234 17.0907H41.6296V19.288ZM45.18 17.5562C45.7728 17.5562 45.7759 17.5562 45.7759 18.1521V18.2266C45.7759 18.8193 45.7759 18.8224 45.18 18.8224C44.5873 18.8224 44.5842 18.8224 44.5842 18.2266V18.1521C44.5842 17.5593 44.5842 17.5562 45.18 17.5562ZM45.0683 17.0287C43.9883 17.0287 43.9883 17.8355 43.9883 18.0962V18.2824C43.9883 18.5431 43.9883 19.35 45.0683 19.35H45.2918C46.3718 19.35 46.3718 18.5431 46.3718 18.2824V18.0962C46.3718 17.8355 46.3718 17.0287 45.2918 17.0287H45.0683ZM47.3707 17.9473V17.5749H47.9976C48.2024 17.5749 48.2024 17.5749 48.2024 17.7611C48.2024 17.9473 48.2024 17.9473 47.9976 17.9473H47.3707ZM48.0411 18.4314C48.2459 18.4314 48.2459 18.4314 48.2459 18.6176C48.2459 18.8038 48.2459 18.8038 48.0411 18.8038H47.3707V18.4314H48.0411ZM46.8121 17.0907V19.288H47.8549C48.2645 19.288 48.879 19.288 48.879 18.7107C48.879 18.6176 48.879 18.3197 48.5066 18.2266V18.1521C48.8324 18.059 48.8355 17.7611 48.8355 17.668C48.8355 17.0907 48.2211 17.0907 47.8114 17.0907H46.8121ZM49.8833 17.0907L49.0764 19.108V19.288H49.6164L49.8026 18.8224H50.8826L51.0688 19.288H51.6088V19.108L50.8019 17.0907H49.8833ZM50.1937 17.6121H50.4916C50.4916 17.7983 50.5661 17.9845 50.715 18.3569H49.9702C50.1192 17.9845 50.1937 17.7983 50.1937 17.6121ZM52.4593 17.0907H51.9007V19.288H52.4593V18.4314H53.4276V19.288H53.9862V17.0907H53.4276V17.9473H52.4593V17.0907ZM55.0778 18.5059V17.0907H54.5192V19.288H55.1895C55.8226 18.3383 55.9716 18.1149 55.9716 17.8728H56.1206V19.288H56.6792V17.0907H56.0088C55.3757 18.059 55.2268 18.2824 55.2268 18.5059H55.0778ZM57.7721 18.4314H58.8149V17.9473H57.7721V17.5749H59.0383V17.0907H57.2135V19.288H59.0383V18.8038H57.7721V18.4314ZM28.5521 23.288H29.1107V21.5749H30.0789V23.288H30.6376V21.0907H28.5521V23.288ZM32.6199 21.0907C32.3313 21.6649 32.2816 21.8324 32.2816 22.0776H31.8658C31.8658 21.8324 31.8161 21.6649 31.5275 21.0907H30.9502V21.2769L31.5616 22.5618H31.9713L31.9247 22.6549C31.8502 22.8038 31.8502 22.8038 31.6827 22.8038H31.3599V23.288H31.5523C32.0644 23.288 32.2382 23.2849 32.5206 22.6921L33.1971 21.2769V21.0907H32.6199ZM33.2564 21.0907V21.5749H34.0447V23.288H34.6033V21.5749H35.3916V21.0907H33.2564ZM36.2541 22.4314H37.2968V21.9473H36.2541V21.5749H37.5203V21.0907H35.6954V23.288H37.5203V22.8038H36.2541V22.4314ZM40.6438 22.8038H39.8617V21.0907H39.3031V22.8038H38.521V21.0907H37.9624V23.288H41.2024V21.0907H40.6438V22.8038ZM42.2943 22.4314H43.337V21.9473H42.2943V21.5749H43.5605V21.0907H41.7356V23.288H43.5605V22.8038H42.2943V22.4314ZM44.9523 21.0287C43.9095 21.0287 43.9095 21.8355 43.9095 22.0962V22.2824C43.9095 22.6176 43.9095 23.35 45.0268 23.35C45.213 23.35 45.5047 23.35 45.9764 23.2321V22.7169H45.8275L45.3806 22.8287H45.1012C44.5054 22.8287 44.5054 22.8287 44.5054 22.2452V22.1335C44.5054 21.55 44.5054 21.55 45.0268 21.55C45.393 21.55 45.393 21.55 45.4923 21.9473L46.0509 21.8076C46.0509 21.6493 46.0509 21.0287 45.1012 21.0287H44.9523ZM46.2248 21.0907V21.5749H47.0131V23.288H47.5717V21.5749H48.36V21.0907H46.2248ZM49.2225 21.9473V21.5749H49.8494C50.0542 21.5749 50.0542 21.5749 50.0542 21.7611C50.0542 21.9473 50.0542 21.9473 49.8494 21.9473H49.2225ZM49.8928 22.4314C50.0976 22.4314 50.0976 22.4314 50.0976 22.6176C50.0976 22.8038 50.0976 22.8038 49.8928 22.8038H49.2225V22.4314H49.8928ZM48.6639 21.0907V23.288H49.7066C50.1163 23.288 50.7308 23.288 50.7308 22.7107C50.7308 22.6176 50.7308 22.3197 50.3583 22.2266V22.1521C50.6842 22.059 50.6873 21.7611 50.6873 21.668C50.6873 21.0907 50.0728 21.0907 49.6632 21.0907H48.6639ZM51.7289 22.5059V21.0907H51.1703V23.288H51.8406C52.4737 22.3383 52.6227 22.1149 52.6227 21.8728H52.7716V23.288H53.3303V21.0907H52.6599C52.0268 22.059 51.8778 22.2824 51.8778 22.5059H51.7289ZM54.4232 22.5059V21.0907H53.8646V23.288H54.5349C55.168 22.3383 55.317 22.1149 55.317 21.8728H55.4659V23.288H56.0246V21.0907H55.3542C54.7211 22.059 54.5721 22.2824 54.5721 22.5059H54.4232ZM54.8577 20.6314C54.6777 20.6314 54.6342 20.5693 54.5597 20.4576L54.2804 20.6438C54.5039 20.9418 54.6528 20.9418 54.8887 20.9418H55.0004C55.2363 20.9418 55.3852 20.9418 55.6087 20.6469L55.3294 20.4576C55.258 20.5693 55.2146 20.6314 55.0315 20.6314H54.8577Z" fill="black"/>
<defs>
<linearGradient id="paint0_linear_305_504" x1="8.69902" y1="19.2215" x2="16.7919" y2="22.2563" gradientUnits="userSpaceOnUse">
<stop stop-color="#F73217"/>
<stop offset="1" stop-color="#FF2E2E"/>
</linearGradient>
</defs>
</svg>
