<svg width="51" height="50" viewBox="0 0 51 50" fill="none" xmlns="http://www.w3.org/2000/svg">
<path fill-rule="evenodd" clip-rule="evenodd" d="M0.236328 38.8825L0.236328 41.2846H0.726303H1.21633L1.79035 40.1311C2.47629 38.7529 2.69243 38.2258 2.76901 37.7446C2.82091 37.4182 2.83656 37.3842 2.9345 37.3842H3.04271L3.04271 39.3344L3.04271 41.2846H3.42323H3.80376L3.80376 38.8825L3.80376 36.4805H3.28881H2.77382L2.12621 37.8004C1.4561 39.1662 1.24486 39.6975 1.20034 40.129C1.17704 40.3546 1.16262 40.3809 1.06207 40.3809H0.949814L0.949814 38.4307L0.949814 36.4805H0.593071H0.236328L0.236328 38.8825ZM13.7444 37.8261C13.2376 37.9414 12.9565 38.2017 12.8168 38.6855C12.7518 38.9107 12.7402 39.1068 12.7563 39.7082C12.7797 40.5772 12.8338 40.7582 13.1554 41.0413C13.4287 41.2818 13.7043 41.3568 14.2984 41.3523C14.725 41.3491 14.8117 41.3335 15.0511 41.2163C15.3519 41.0691 15.5644 40.8199 15.6583 40.5043C15.6926 40.3888 15.7168 40.0093 15.7176 39.5722C15.7187 38.9722 15.7024 38.7874 15.63 38.5795C15.5182 38.2583 15.2588 37.9937 14.9528 37.8886C14.6425 37.782 14.0689 37.7523 13.7444 37.8261ZM21.0133 37.8131C20.4128 37.9077 20.4298 37.8951 20.4139 38.2551C20.4 38.5713 20.4007 38.5734 20.526 38.5734C20.5953 38.5734 20.7836 38.5393 20.9444 38.4976C21.132 38.4489 21.3702 38.4278 21.6099 38.4387C22.0888 38.4603 22.1641 38.5343 22.1641 38.9829V39.2868L21.7479 39.2872C20.8569 39.288 20.4132 39.44 20.2226 39.8101C20.1269 39.9956 20.1145 40.0781 20.1296 40.4284C20.1502 40.9076 20.2433 41.105 20.5145 41.2442C20.9091 41.4468 21.5169 41.3845 21.9889 41.0931C22.1149 41.0153 22.2377 40.9516 22.2617 40.9516C22.2858 40.9516 22.3622 41.0373 22.4314 41.1419C22.5007 41.2466 22.5777 41.3322 22.6026 41.3322C22.6588 41.3322 23.0679 41.0416 23.0679 41.0017C23.0679 40.9858 23.0304 40.9199 22.9846 40.8552C22.9142 40.7556 22.8973 40.5845 22.8743 39.7387C22.8424 38.5626 22.7903 38.3359 22.4938 38.0821C22.3914 37.9945 22.22 37.8965 22.113 37.8644C21.8482 37.7851 21.3414 37.7615 21.0133 37.8131ZM33.0916 37.8316C32.7071 37.9142 32.4471 38.1114 32.2726 38.4527C32.1356 38.7205 32.1286 38.7634 32.112 39.4442C32.0913 40.2943 32.1626 40.6444 32.4168 40.9414C32.6764 41.2446 32.9797 41.3493 33.6037 41.351C34.0521 41.3522 34.163 41.3363 34.3787 41.2404C34.9268 40.9966 35.102 40.591 35.102 39.5659C35.102 38.8569 35.0324 38.5158 34.8342 38.2533C34.5287 37.8488 33.8153 37.6762 33.0916 37.8316ZM44.5055 37.8339C43.9716 37.9279 43.9968 37.9067 43.9968 38.2627C43.9968 38.5657 43.9999 38.5734 44.1208 38.5734C44.1889 38.5734 44.3762 38.5393 44.537 38.4976C44.7246 38.4489 44.9628 38.4278 45.2025 38.4387C45.6815 38.4603 45.7568 38.5343 45.7568 38.9829V39.2868L45.3405 39.2872C44.4495 39.288 44.0059 39.44 43.8152 39.8101C43.7195 39.9956 43.7071 40.0781 43.7222 40.4284C43.7428 40.9076 43.8359 41.105 44.1071 41.2442C44.5017 41.4468 45.1095 41.3845 45.5815 41.0931C45.7075 41.0153 45.8303 40.9516 45.8544 40.9516C45.8784 40.9516 45.9548 41.0373 46.024 41.1419C46.0933 41.2466 46.1703 41.3322 46.1953 41.3322C46.2514 41.3322 46.6605 41.0416 46.6605 41.0017C46.6605 40.9858 46.6231 40.9199 46.5773 40.8552C46.5069 40.7558 46.4896 40.5831 46.4656 39.7387C46.4496 39.1801 46.4109 38.6455 46.3777 38.5258C46.3026 38.2554 45.9972 37.9518 45.7154 37.8673C45.4057 37.7746 44.9191 37.7611 44.5055 37.8339ZM5.02463 37.8916C5.00717 37.909 4.9929 38.6796 4.9929 39.604V41.2846H5.34965H5.70639V40.5711V39.8576H6.41859H7.13084L7.14397 40.5592L7.15714 41.2608L7.502 41.2748L7.84685 41.2888V39.5722L7.84685 37.8557L7.502 37.8697L7.15714 37.8837L7.14397 38.5615L7.13075 39.2393H6.41859H5.70639V38.5496V37.8599H5.38137C5.20257 37.8599 5.04204 37.8741 5.02463 37.8916ZM8.94086 39.5722V41.2846H9.2976H9.65435V40.5711V39.8576H10.3678H11.0813V40.5711V41.2846H11.4381H11.7948V39.5722V37.8599H11.4381H11.0813V38.5496V39.2393H10.3678H9.65435V38.5496V37.8599H9.2976H8.94086V39.5722ZM16.6465 39.5763V41.2928L17.6573 41.2768C18.6248 41.2615 18.6781 41.2557 18.9034 41.1419C19.2349 40.9744 19.3276 40.8276 19.3469 40.4388C19.3666 40.043 19.2671 39.8573 18.9539 39.705C18.8359 39.6477 18.7395 39.5891 18.7395 39.5747C18.7396 39.5603 18.8181 39.5057 18.9141 39.4533C19.1999 39.2974 19.2865 39.1387 19.2859 38.772C19.2847 38.0404 18.9115 37.8628 17.3719 37.8608L16.6465 37.8599V39.5763ZM23.8765 39.5715V41.2831L25.244 41.2958L26.6115 41.3084L26.6251 41.7959L26.6386 42.2835H26.9462H27.2537V41.4987V40.7138H26.9921H26.7304V39.2868V37.8599H26.3737H26.017V39.2868V40.7138H25.3035L24.59 40.7138V39.2868V37.8599H24.2332H23.8765V39.5715ZM27.9672 39.5722V41.2846H28.5052H29.0432L29.6481 40.0578C29.9809 39.383 30.2661 38.7506 30.2821 38.6524C30.3032 38.5224 30.3319 38.4778 30.3877 38.4886C30.4558 38.5016 30.4658 38.6591 30.477 39.8939L30.4896 41.2846H30.8218H31.1541V39.5722V37.8599H30.5861H30.0182L29.4661 38.9658C29.0758 39.7479 28.8976 40.1587 28.8579 40.369C28.8239 40.5482 28.7776 40.6663 28.7411 40.6663C28.6936 40.6663 28.6806 40.3664 28.6806 39.2631V37.8599H28.3239H27.9672V39.5722ZM36.0533 39.5702V41.2846H36.4101H36.7668V40.5711V39.8576H37.4803H38.1938V40.5711V41.2846H38.5512H38.9085L38.896 39.5841L38.8835 37.8837L38.5386 37.8697L38.1938 37.8557V38.5475V39.2393H37.4816H36.7694L36.7562 38.5615L36.743 37.8837L36.3982 37.8697L36.0533 37.8557V39.5702ZM40.0013 39.5722V41.2846H40.3343H40.6672V40.5711V39.8576H41.4045H42.1418V40.5711V41.2846H42.4747H42.8077V39.5722V37.8599H42.4747H42.1418V38.5496V39.2393H41.4045H40.6672V38.5496V37.8599H40.3343H40.0013V39.5722ZM48.3249 37.9062C47.9347 37.9566 47.7401 38.0347 47.5791 38.2056C47.3929 38.4033 47.3264 38.6088 47.3264 38.9867C47.3264 39.38 47.4325 39.5877 47.7975 39.9089L48.08 40.1576L47.727 40.6237C47.5328 40.88 47.374 41.1336 47.374 41.1872C47.374 41.2775 47.4026 41.2846 47.7664 41.2845L48.1588 41.2844L48.3105 41.0586C48.4976 40.7797 48.5967 40.554 48.634 40.3214L48.6626 40.143H49.0409H49.4193V40.7138V41.2846H49.7761H50.1328V39.5722V37.8599L49.3599 37.8661C48.9348 37.8695 48.469 37.8876 48.3249 37.9062ZM14.8658 38.5322C14.9838 38.6502 15.027 38.929 15.027 39.5722C15.027 40.6438 14.9785 40.7138 14.236 40.7138C13.9625 40.7138 13.6996 40.6928 13.6517 40.6673C13.5016 40.5869 13.4596 40.3478 13.4596 39.5722C13.4596 38.7437 13.4992 38.5556 13.6893 38.4821C13.8925 38.4036 14.7747 38.4411 14.8658 38.5322ZM18.4592 38.531C18.5456 38.6174 18.5568 38.674 18.54 38.9386C18.5273 39.1375 18.4962 39.2612 18.4515 39.2894C18.4137 39.3133 18.1526 39.3333 17.8713 39.3337L17.36 39.3344V38.8825V38.4307H17.8594C18.3041 38.4307 18.3699 38.4417 18.4592 38.531ZM34.2565 38.5628C34.361 38.6673 34.3648 38.7005 34.3648 39.5141C34.3648 39.9777 34.3492 40.4123 34.3302 40.4797C34.2795 40.6599 34.1068 40.7138 33.5803 40.7138C33.1513 40.7138 33.0977 40.7036 32.9761 40.599L32.8426 40.4842V39.5837C32.8426 38.4167 32.8368 38.4248 33.662 38.4435C34.0965 38.4533 34.1598 38.466 34.2565 38.5628ZM49.4193 39.0015V39.5722H48.8591C48.109 39.5722 48.0875 39.5572 48.0875 39.0316C48.0875 38.4533 48.099 38.4449 48.908 38.4362L49.4193 38.4307V39.0015ZM18.522 39.8848C18.5754 39.9383 18.5967 40.0528 18.5967 40.2874C18.5967 40.7019 18.5769 40.7138 17.8864 40.7138H17.36V40.2619V39.8101H17.9036C18.3344 39.8101 18.4627 39.8256 18.522 39.8848ZM22.1641 40.165V40.5199L21.962 40.5723C21.8508 40.6012 21.6849 40.6447 21.5933 40.669C21.5018 40.6934 21.3152 40.7134 21.1788 40.7135C20.8809 40.7139 20.8323 40.6522 20.8323 40.2742C20.8323 40.0184 20.8886 39.891 21.0226 39.8431C21.0618 39.829 21.3347 39.8159 21.629 39.8138L22.1641 39.8101V40.165ZM45.7568 40.165V40.5199L45.5546 40.5723C45.4434 40.6012 45.2775 40.6447 45.186 40.669C45.0944 40.6934 44.9078 40.7134 44.7714 40.7135C44.4735 40.7139 44.4249 40.6522 44.4249 40.2742C44.4249 40.0184 44.4812 39.891 44.6152 39.8431C44.6544 39.829 44.9273 39.8159 45.2216 39.8138L45.7568 39.8101V40.165ZM15.3207 44.5686C15.241 44.6764 15.1455 44.7188 14.7988 44.8002C14.2694 44.9245 14.0773 45.004 13.8728 45.1836C13.611 45.4135 13.4719 45.7914 13.4078 46.4472C13.3449 47.0894 13.3763 48.4285 13.4614 48.735C13.5375 49.0093 13.7666 49.2679 14.0508 49.4002C14.2603 49.4978 14.3644 49.5126 14.8422 49.513C15.527 49.5136 15.8208 49.4354 16.0698 49.1865C16.3258 48.9304 16.3849 48.6795 16.3848 47.8487C16.3847 47.1777 16.3809 47.1512 16.2421 46.8736C16.1191 46.6273 16.0636 46.5698 15.8379 46.454C15.5906 46.3271 15.5488 46.3207 15.0768 46.3374C14.5659 46.3555 14.2859 46.4425 14.1284 46.6323C14.0255 46.7563 13.9828 46.718 13.9828 46.5017C13.9828 46.1904 14.1102 45.8156 14.2462 45.7265C14.3105 45.6843 14.6006 45.5882 14.8909 45.5127C15.5193 45.3493 15.7147 45.263 15.8334 45.0959C15.9101 44.988 16.0454 44.6096 16.015 44.5884C16.0091 44.5843 15.8725 44.5485 15.7113 44.5088L15.4183 44.4367L15.3207 44.5686ZM10.5343 45.9874C10.0915 46.1035 9.76103 46.4037 9.64807 46.7923C9.60507 46.9404 9.583 47.2742 9.583 47.7773C9.583 48.667 9.63323 48.8565 9.95187 49.1689C10.2283 49.4399 10.4644 49.5135 11.0575 49.5135C11.8211 49.5135 12.1794 49.338 12.407 48.8527C12.5276 48.5956 12.5321 48.5549 12.532 47.7298C12.532 46.7876 12.5088 46.6832 12.2283 46.3638C11.9836 46.0851 11.7046 45.9815 11.1527 45.9646C10.8911 45.9566 10.6128 45.9668 10.5343 45.9874ZM33.7308 46.034C33.445 46.1357 33.1354 46.4087 33.0214 46.6595C32.922 46.8784 32.8782 48.2322 32.959 48.5929C33.0305 48.9124 33.2322 49.1874 33.5185 49.3557C33.738 49.4848 33.77 49.4897 34.3885 49.4897C34.9559 49.4897 35.0528 49.4778 35.2209 49.3871C35.7614 49.0954 35.9486 48.5779 35.897 47.518C35.8559 46.6708 35.6965 46.3431 35.21 46.1051C34.9754 45.9903 34.8694 45.9695 34.4605 45.9577C34.0878 45.9469 33.9291 45.9636 33.7308 46.034ZM37.4788 46.0162C37.3603 46.0543 37.1756 46.1607 37.0682 46.2525C36.7584 46.5177 36.7047 46.7043 36.6818 47.5949C36.652 48.7582 36.7634 49.1011 37.2546 49.3564C37.4778 49.4724 37.5641 49.4878 38.0749 49.5025C38.434 49.513 38.7604 49.4953 38.9548 49.4549L39.264 49.3906L39.2784 49.0882C39.2862 48.922 39.2733 48.7664 39.2495 48.7426C39.2235 48.7167 39.0529 48.7385 38.8229 48.7972C38.4019 48.9047 37.9839 48.9222 37.7024 48.844C37.4126 48.7635 37.3762 48.6197 37.3941 47.6247C37.4124 46.5992 37.4045 46.6115 38.0445 46.6127C38.2705 46.6131 38.4846 46.6319 38.5202 46.6545C38.5559 46.6771 38.6244 46.8105 38.6726 46.9511C38.7704 47.2366 38.815 47.2514 39.2333 47.1377L39.4403 47.0813L39.4071 46.8596C39.3446 46.4428 39.1721 46.2155 38.7884 46.0442C38.5756 45.9492 37.7421 45.9314 37.4788 46.0162ZM4.37455 47.7535V49.4659H4.70751H5.04047V48.0627C5.04047 46.7158 5.04408 46.6595 5.13084 46.6595C5.20077 46.6595 5.23454 46.7161 5.27977 46.9093C5.31197 47.0466 5.50766 47.678 5.71457 48.3124L6.09082 49.4659H6.48285H6.87484L7.26821 48.2749C7.48454 47.6197 7.67409 46.9776 7.68945 46.8479C7.71414 46.6396 7.73055 46.612 7.82968 46.612H7.94198V48.0389V49.4659H8.27494H8.6079V47.7535V46.0412H7.96576C7.61259 46.0412 7.32362 46.0498 7.32362 46.0603C7.32362 46.0708 7.17351 46.5447 6.99 47.1135C6.80654 47.6822 6.63216 48.2943 6.60253 48.4737C6.55848 48.7403 6.53251 48.8 6.46045 48.8C6.38848 48.8 6.37226 48.7628 6.37202 48.5978C6.37169 48.343 6.34277 48.2335 5.9573 47.0282L5.64165 46.0412H5.00808H4.37455V47.7535ZM17.2649 47.7535V49.4659H17.7895H18.314L18.9548 48.1754C19.3072 47.4656 19.5956 46.8342 19.5956 46.7722C19.5956 46.7043 19.6236 46.6595 19.6662 46.6595C19.7268 46.6595 19.7387 46.8578 19.7495 48.0508L19.7621 49.4421L20.1069 49.4561L20.4518 49.4701V47.7556L20.4518 46.0412H19.8812H19.3106L18.8045 47.052C18.2772 48.1053 18.121 48.4845 18.121 48.7123C18.121 48.8008 18.0964 48.8476 18.0497 48.8476C17.9879 48.8476 17.9784 48.66 17.9784 47.4444V46.0412H17.6216H17.2649L17.2649 47.7535ZM22.0956 46.4098C22.0221 47.3424 21.9171 48.3187 21.8705 48.5039C21.8081 48.7517 21.6564 48.8799 21.376 48.9219L21.1653 48.9535V49.2158V49.4781L21.5339 49.4565C22.0251 49.4277 22.2443 49.3215 22.362 49.0556C22.4566 48.8416 22.6132 47.8419 22.6683 47.0995L22.701 46.6595H23.2405H23.7799L23.7925 48.0508L23.8052 49.4421L24.15 49.4561L24.4949 49.4701V47.7556L24.4949 46.0412H23.3098H22.1247L22.0956 46.4098ZM25.5889 47.7591V49.477L26.5283 49.457C27.3452 49.4396 27.4958 49.4243 27.6833 49.3398C28.0885 49.1571 28.2518 48.8507 28.2523 48.272C28.2527 47.7596 28.112 47.4735 27.7608 47.2726C27.5927 47.1764 27.4984 47.1593 27.1348 47.1592C26.8993 47.1591 26.6157 47.1769 26.5045 47.1988L26.3024 47.2387V46.6399V46.0412H25.9456H25.5889L25.5889 47.7591ZM29.1087 47.7556V49.4701L29.4536 49.4561L29.7984 49.4421L29.8116 48.7168L29.8247 47.9914H30.5369H31.2492V48.7307V49.4701L31.594 49.4561L31.9389 49.4421L31.9514 47.7417L31.9639 46.0412H31.6066H31.2492V46.7309V47.4206H30.5357H29.8222V46.7309V46.0412H29.4655H29.1087L29.1087 47.7556ZM39.8586 46.3266V46.612H40.3811H40.9036L40.9162 48.0271L40.9288 49.4421L41.2737 49.4561L41.6185 49.4701V48.041V46.612H42.1655H42.7125V46.3266V46.0412H41.2856H39.8586V46.3266ZM43.426 47.7591V49.477L44.3654 49.453C45.4284 49.4258 45.5906 49.3896 45.8279 49.127C46.0323 48.9006 46.1033 48.6371 46.0821 48.1834C46.0603 47.7206 45.9456 47.4932 45.6374 47.3017C45.4261 47.1704 45.3729 47.159 44.9757 47.159C44.7382 47.159 44.4529 47.1769 44.3417 47.1988L44.1395 47.2387V46.6399V46.0412H43.7828H43.426V47.7591ZM11.6958 46.7032C11.82 46.8274 11.8588 47.1928 11.8331 47.9973C11.8067 48.824 11.7899 48.8499 11.2555 48.8842C10.7374 48.9175 10.4789 48.8686 10.3808 48.7188C10.2877 48.5767 10.2379 47.6421 10.295 47.1086C10.3453 46.6389 10.3867 46.612 11.0575 46.612C11.5333 46.612 11.6164 46.6239 11.6958 46.7032ZM35.0328 46.7287C35.1481 46.844 35.1496 46.8561 35.1496 47.7007C35.1496 48.1711 35.1297 48.6083 35.1054 48.6721C35.0798 48.7395 34.9969 48.8108 34.9081 48.8417C34.7121 48.91 34.0674 48.9109 33.873 48.8431C33.6525 48.7663 33.6176 48.5859 33.6358 47.6185C33.6553 46.5792 33.6306 46.612 34.396 46.612C34.8848 46.612 34.9231 46.619 35.0328 46.7287ZM15.5309 47.1093C15.6438 47.2222 15.6476 47.248 15.6476 47.8972C15.6476 48.287 15.6261 48.6087 15.5963 48.6644C15.5182 48.8102 15.2581 48.8954 14.9 48.8925C14.4412 48.8886 14.258 48.8159 14.1876 48.6097C14.12 48.4113 14.1097 47.5701 14.1716 47.303C14.2365 47.0229 14.3078 46.9925 14.8979 46.9925C15.3826 46.9925 15.4213 46.9996 15.5309 47.1093ZM27.4439 47.8001C27.5391 47.8602 27.5472 48.7156 27.4536 48.8095C27.4123 48.8509 27.212 48.8766 26.8471 48.8873L26.3024 48.9033V48.3284V47.7535L26.8375 47.7543C27.1318 47.7547 27.4047 47.7753 27.4439 47.8001ZM45.2811 47.8001C45.3762 47.8602 45.3844 48.7156 45.2907 48.8095C45.2494 48.8509 45.0491 48.8766 44.6843 48.8873L44.1395 48.9033V48.3284V47.7535L44.6746 47.7543C44.969 47.7547 45.2418 47.7753 45.2811 47.8001Z" fill="black"/>
<path fill-rule="evenodd" clip-rule="evenodd" d="M2.06962 0.0452108C1.32974 0.192712 0.652116 0.696338 0.296943 1.36273C-0.0231746 1.96339 0.000513437 0.824861 0.000513437 15.5984C0.000513437 30.4701 -0.0269793 29.2442 0.320393 29.8679C0.640463 30.4428 1.19922 30.8803 1.87936 31.0887C2.15472 31.1731 2.97104 31.1762 25.1152 31.1762C47.2166 31.1762 48.0763 31.1729 48.3511 31.0892C49.03 30.8822 49.6019 30.4217 49.91 29.8341C50.2577 29.1707 50.2299 30.4083 50.2299 15.5896C50.2299 0.864436 50.2547 2.03836 49.9306 1.37791C49.7312 0.971411 49.3072 0.548267 48.8694 0.31881C48.2005 -0.031845 50.4278 -0.00226007 25.0914 0.00273433C12.5341 0.00520775 2.17427 0.0243294 2.06962 0.0452108ZM48.4355 0.839179C48.8358 1.02878 49.212 1.39584 49.4004 1.78055L49.5402 2.06595V15.5746L49.5402 29.0833L49.3925 29.3949C49.1267 29.956 48.5873 30.377 47.9942 30.4863C47.819 30.5186 40.1968 30.5305 24.9486 30.5224L2.16475 30.5103L1.89587 30.4016C1.37435 30.1907 0.962198 29.7786 0.751339 29.257L0.642651 28.9882L0.628904 15.86C0.619819 7.16447 0.631472 2.60758 0.663484 2.3638C0.766892 1.57611 1.27884 0.981115 2.06962 0.729444C2.22274 0.68069 6.73597 0.670605 25.1866 0.677692L48.1133 0.68654L48.4355 0.839179ZM14.4704 9.63599C14.2724 9.73468 14.1413 9.90059 14.0794 10.1307C14.0473 10.2495 14.0351 12.1464 14.0435 15.7016L14.0562 21.0922L14.165 21.2672C14.2297 21.3712 14.3581 21.483 14.4813 21.5427C14.6841 21.6409 14.7353 21.6428 16.7033 21.6288C18.5633 21.6155 18.7377 21.6072 18.9792 21.521C19.3921 21.3736 19.7754 21.082 20.0762 20.6865C20.392 20.2713 22.3935 17.5519 22.8933 16.8589L23.2364 16.3832L23.2602 18.0243C23.2837 19.6442 23.2854 19.6676 23.3958 19.8451C23.4573 19.9441 23.5902 20.0671 23.6912 20.1186C23.8651 20.2074 23.9776 20.2122 25.8387 20.2111C26.9893 20.2104 27.8891 20.19 28.0114 20.1618C28.3489 20.084 28.7123 19.8889 28.9798 19.6417C29.1172 19.5148 29.7327 18.7255 30.3475 17.8876C30.9622 17.0498 31.4813 16.3632 31.5009 16.3618C31.5206 16.3605 31.5366 17.42 31.5366 18.7163C31.5366 21.3302 31.5253 21.2316 31.8539 21.4822L32.0286 21.6155L33.8483 21.6155C35.62 21.6155 35.6714 21.6129 35.8022 21.516C35.876 21.4612 35.9846 21.3457 36.0435 21.2592L36.1505 21.1019V15.6104C36.1505 9.4403 36.1782 9.89926 35.7921 9.67299L35.5889 9.55389L33.4082 9.56763L31.2274 9.58133L30.9896 9.70791C30.8588 9.7775 30.6847 9.90592 30.6027 9.9933C30.5207 10.0806 29.904 10.8906 29.2323 11.7931C28.5606 12.6957 27.9909 13.4413 27.9663 13.45C27.939 13.4597 27.9216 12.8113 27.9216 11.7803C27.9216 10.1107 27.9206 10.0934 27.8146 9.9376C27.7557 9.85113 27.6472 9.73559 27.5733 9.68084C27.4425 9.5839 27.3844 9.58095 25.314 9.5673C23.8283 9.5575 23.1297 9.56963 22.9924 9.60759C22.6569 9.70025 22.4167 9.90235 22.029 10.4183C21.5123 11.1057 20.122 12.9824 19.3826 13.9904C19.043 14.4534 18.7497 14.8333 18.7308 14.8347C18.7119 14.8362 18.6905 13.758 18.6832 12.4387C18.6704 10.1009 18.6676 10.0368 18.572 9.90877C18.518 9.83657 18.4148 9.73335 18.3426 9.67941C18.2162 9.58495 18.1455 9.58091 16.4192 9.56963C14.8377 9.55931 14.6086 9.56711 14.4704 9.63599ZM18.0164 13.0324L18.0287 15.8176L17.517 16.5051C17.2355 16.8833 16.4916 17.8866 15.8637 18.7347L14.7221 20.2768L14.7098 15.3096C14.7031 12.5776 14.7079 10.3154 14.7205 10.2823C14.7385 10.2352 15.095 10.2249 16.3738 10.2347L18.0041 10.2473L18.0164 13.0324ZM27.3033 12.6881V14.3862L26.4114 15.58C25.9209 16.2366 25.1771 17.2363 24.7585 17.8015C24.3399 18.3667 23.9814 18.83 23.9618 18.831C23.9421 18.832 23.9261 18.0705 23.9261 17.1387V15.4445L24.1784 15.1052C24.8247 14.2364 26.4405 12.0376 27.0198 11.239C27.1364 11.0782 27.2479 10.9564 27.2676 10.9683C27.2872 10.9803 27.3033 11.7542 27.3033 12.6881Z" fill="#E8331A"/>
</svg>
