<svg width="56" height="27" viewBox="0 0 56 27" fill="none" xmlns="http://www.w3.org/2000/svg">
<path d="M40.4171 2.82453V3.71153L47.8392 3.71153C48.3327 3.71153 49.0768 3.71153 49.5722 4.21783C50.0677 4.72607 50.0677 5.48746 50.0677 5.9957V13.6096C50.0677 14.1178 50.0677 14.8792 49.5722 15.3855C49.0768 15.8938 48.3327 15.8938 47.8392 15.8938H44.26C43.6421 15.8938 42.8359 15.8938 42.5269 15.1961C42.2199 14.4966 42.6501 13.8627 43.0243 13.3564L47.8467 6.76675L40.4247 6.76675L37.4483 10.8249C36.951 11.5051 36.5215 12.0945 36.5215 12.854C36.5215 13.6154 36.9208 14.1642 37.4483 14.8831L38.1905 15.8976C38.9327 16.9122 39.6749 17.9267 40.6582 18.4292C41.6491 18.9335 42.8246 18.9335 44.4258 18.9335L47.647 18.9335C49.5044 18.9335 52.2811 18.9335 54.146 17.032C55.9997 15.1285 55.9997 12.3361 55.9997 11.3312V8.27793C55.9997 7.26146 55.9997 4.47098 54.146 2.57717C52.2886 0.671763 49.512 0.677561 47.647 0.675628L42.5232 0.672729C42.0315 0.672729 41.4099 0.672729 40.9144 1.18097C40.4228 1.6892 40.4228 2.32305 40.4228 2.83129" fill="#E8331A"/>
<path d="M31.3173 6.75867L38.9575 6.75867L29.7501 18.9325H21.9141L31.3173 6.75867Z" fill="#E8331A"/>
<path d="M0.0265337 9.05773C0.0265337 8.51799 0.0265337 7.84022 0.563331 7.29841C1.09809 6.75867 1.77163 6.75867 2.30639 6.75867L15.7773 6.75867C17.5184 6.75867 18.7981 6.75867 19.8594 7.29841C20.929 7.84228 21.7331 8.92382 22.5332 9.99713L23.3394 11.0787C23.913 11.8471 24.3477 12.4322 24.3477 13.2418C24.3477 14.0535 23.8783 14.6818 23.3394 15.4049L20.1146 19.7311L12.0728 19.7311L17.2979 12.7062C17.7 12.1644 18.1715 11.4907 17.8347 10.7449C17.502 10.0033 16.6305 10.0033 15.961 10.0033L9.65418 10.0033L9.65418 26.2368H3.22486L3.22486 10.0033H0L0 9.05567" fill="#E8331A"/>
</svg>
