<svg width="165" height="50" viewBox="0 0 165 50" fill="none" xmlns="http://www.w3.org/2000/svg">
<path d="M7.47038 29.5404H8.68698V39.3428H7.47038V34.9877H1.4598V39.3428H0.243199V29.5404H1.4598V33.8674H7.47038V29.5404Z" fill="#D1D1D1"/>
<path d="M12.2876 29.5404H19.1237V30.6607H13.5042V33.8394H18.6892V34.9597H13.5042V38.2225H19.2106V39.3428H12.2876V29.5404Z" fill="#D1D1D1"/>
<path d="M23.4269 39.3428H22.2103V29.5404H26.1788C26.845 29.5404 27.4485 29.6291 27.9892 29.8064C28.5299 29.9745 28.9934 30.2919 29.3796 30.7587C29.7755 31.2161 29.9734 31.7996 29.9734 32.5091C29.9734 33.3493 29.7223 34.0028 29.2203 34.4696C28.7182 34.9364 28.0664 35.2398 27.265 35.3798L30.6976 39.3428H29.1768L25.8601 35.4778H23.4269V39.3428ZM23.4269 30.6607V34.3576H26.2367C26.9512 34.3576 27.545 34.2175 28.0181 33.9375C28.5009 33.6481 28.7423 33.1719 28.7423 32.5091C28.7423 31.8369 28.5009 31.3608 28.0181 31.0808C27.545 30.8007 26.9512 30.6607 26.2367 30.6607H23.4269Z" fill="#D1D1D1"/>
<path d="M32.7756 36.304C32.5535 35.7066 32.4425 35.0857 32.4425 34.4416C32.4425 33.7974 32.5535 33.1766 32.7756 32.5791C33.0073 31.9816 33.3356 31.4448 33.7604 30.9687C34.1853 30.4833 34.7405 30.0958 35.426 29.8064C36.1116 29.517 36.884 29.3723 37.7434 29.3723C38.6027 29.3723 39.3751 29.517 40.0607 29.8064C40.7462 30.0958 41.3014 30.4833 41.7263 30.9687C42.1511 31.4448 42.4746 31.9816 42.6967 32.5791C42.9284 33.1766 43.0443 33.7974 43.0443 34.4416C43.0443 35.0857 42.9284 35.7066 42.6967 36.304C42.4746 36.9015 42.1511 37.443 41.7263 37.9284C41.3014 38.4046 40.7462 38.7873 40.0607 39.0767C39.3751 39.3661 38.6027 39.5108 37.7434 39.5108C36.884 39.5108 36.1116 39.3661 35.426 39.0767C34.7405 38.7873 34.1853 38.4046 33.7604 37.9284C33.3356 37.443 33.0073 36.9015 32.7756 36.304ZM41.5525 35.9119C41.7263 35.4452 41.8132 34.955 41.8132 34.4416C41.8132 33.9281 41.7263 33.438 41.5525 32.9712C41.3883 32.5044 41.1421 32.0843 40.8138 31.7109C40.4952 31.3375 40.0703 31.0434 39.5393 30.8287C39.0082 30.6046 38.4096 30.4926 37.7434 30.4926C37.0771 30.4926 36.4785 30.6046 35.9474 30.8287C35.4164 31.0434 34.9867 31.3375 34.6584 31.7109C34.3398 32.0843 34.0936 32.5044 33.9198 32.9712C33.7556 33.438 33.6735 33.9281 33.6735 34.4416C33.6735 34.955 33.7556 35.4452 33.9198 35.9119C34.0936 36.3787 34.3398 36.7988 34.6584 37.1723C34.9867 37.5457 35.4164 37.8444 35.9474 38.0685C36.4785 38.2832 37.0771 38.3906 37.7434 38.3906C38.4096 38.3906 39.0082 38.2832 39.5393 38.0685C40.0703 37.8444 40.4952 37.5457 40.8138 37.1723C41.1421 36.7988 41.3883 36.3787 41.5525 35.9119Z" fill="#D1D1D1"/>
<path d="M48.3635 40.8832H45.6551V28H48.3635V29.1203H46.8717V39.7629H48.3635V40.8832Z" fill="#D1D1D1"/>
<path d="M51.0452 29.5404H52.2618V39.3428H51.0452V29.5404Z" fill="#D1D1D1"/>
<path d="M57.0786 39.3428H55.862V29.5404H56.9917L63.0892 37.3683V29.5404H64.3058V39.3428H63.1761L57.0786 31.5009V39.3428Z" fill="#D1D1D1"/>
<path d="M69.6878 40.8832H66.9794V39.7629H68.4712V29.1203H66.9794V28H69.6878V40.8832Z" fill="#D1D1D1"/>
<path d="M82.3919 29.5404H83.4347V39.3428H82.2181V31.7669L78.5828 37.0322H77.8297L74.1944 31.7669V39.3428H72.9778V29.5404H74.0206L78.2063 35.5899L82.3919 29.5404Z" fill="#D1D1D1"/>
<path d="M87.1316 39.3428H85.8136L90.231 29.5404H91.578L95.9809 39.3428H94.6774L93.6346 36.9762H88.1744L87.1316 39.3428ZM90.7379 31.1228L88.6524 35.8839H93.1567L91.0566 31.1228C91.0373 31.0761 90.9842 30.9501 90.8973 30.7447C90.8104 30.9594 90.7573 31.0854 90.7379 31.1228Z" fill="#D1D1D1"/>
<path d="M99.5843 39.3428H98.3677V29.5404H102.336C103.002 29.5404 103.606 29.6291 104.147 29.8064C104.687 29.9745 105.151 30.2919 105.537 30.7587C105.933 31.2161 106.131 31.7996 106.131 32.5091C106.131 33.3493 105.88 34.0028 105.378 34.4696C104.876 34.9364 104.224 35.2398 103.422 35.3798L106.855 39.3428H105.334L102.018 35.4778H99.5843V39.3428ZM99.5843 30.6607V34.3576H102.394C103.109 34.3576 103.702 34.2175 104.176 33.9375C104.658 33.6481 104.9 33.1719 104.9 32.5091C104.9 31.8369 104.658 31.3608 104.176 31.0808C103.702 30.8007 103.109 30.6607 102.394 30.6607H99.5843Z" fill="#D1D1D1"/>
<path d="M110.596 39.3428H109.38V29.5404H110.596V33.7834H112.899L115.955 29.5404H117.345L113.898 34.3156L117.65 39.3428H116.259L112.942 34.9037H110.596V39.3428Z" fill="#D1D1D1"/>
<path d="M119.953 29.5404H126.789V30.6607H121.17V33.8394H126.355V34.9597H121.17V38.2225H126.876V39.3428H119.953V29.5404Z" fill="#D1D1D1"/>
<path d="M128.746 29.5404H137.088V30.6607H133.526V39.3428H132.309V30.6607H128.746V29.5404Z" fill="#D1D1D1"/>
<path d="M139.558 29.5404H140.775V39.3428H139.558V29.5404Z" fill="#D1D1D1"/>
<path d="M145.592 39.3428H144.375V29.5404H145.505L151.602 37.3683V29.5404H152.819V39.3428H151.689L145.592 31.5009V39.3428Z" fill="#D1D1D1"/>
<path d="M155.753 34.4416C155.753 33.368 156.019 32.4391 156.55 31.6549C157.081 30.8614 157.747 30.2826 158.548 29.9185C159.35 29.5544 160.214 29.3723 161.141 29.3723C162.261 29.3723 163.275 29.5917 164.182 30.0305V31.2068C163.4 30.7307 162.444 30.4926 161.315 30.4926C160.764 30.4926 160.238 30.572 159.736 30.7307C159.234 30.88 158.77 31.1088 158.346 31.4168C157.93 31.7156 157.597 32.1263 157.346 32.6491C157.105 33.1719 156.984 33.7694 156.984 34.4416C156.984 35.1511 157.11 35.7719 157.361 36.304C157.612 36.8268 157.95 37.2376 158.375 37.5363C158.799 37.8258 159.258 38.0405 159.75 38.1805C160.253 38.3205 160.784 38.3906 161.344 38.3906C162.068 38.3906 162.691 38.2692 163.212 38.0265V34.1335H164.429V38.8527C163.444 39.2914 162.386 39.5108 161.257 39.5108C160.533 39.5108 159.852 39.4175 159.215 39.2308C158.577 39.0441 157.993 38.7593 157.462 38.3766C156.941 37.9845 156.525 37.4523 156.216 36.7802C155.908 36.108 155.753 35.3285 155.753 34.4416Z" fill="#D1D1D1"/>
<path d="M1.29777 50H0V43.8268H1.29777V44.3636H0.582954V49.4632H1.29777V50Z" fill="#D1D1D1"/>
<path d="M2.77012 44.5649H4.3663C5.19446 44.5649 5.82831 44.7819 6.26784 45.2158C6.71199 45.6452 6.93407 46.2111 6.93407 46.9134C6.93407 47.6157 6.71199 48.1838 6.26784 48.6177C5.82831 49.0472 5.19446 49.2619 4.3663 49.2619H2.77012V44.5649ZM5.83756 48.2487C6.17531 47.9311 6.34418 47.486 6.34418 46.9134C6.34418 46.3408 6.17531 45.8957 5.83756 45.5781C5.50445 45.2605 5.01402 45.1017 4.3663 45.1017H3.35307V48.7251H4.3663C5.01402 48.7251 5.50445 48.5663 5.83756 48.2487Z" fill="#D1D1D1"/>
<path d="M8.53221 44.5649H9.11516V49.2619H8.53221V44.5649Z" fill="#D1D1D1"/>
<path d="M10.7084 46.9134C10.7084 46.399 10.8356 45.9539 11.0901 45.5781C11.3446 45.1979 11.6638 44.9205 12.0478 44.7461C12.4318 44.5716 12.8459 44.4844 13.2901 44.4844C13.8268 44.4844 14.3126 44.5895 14.7475 44.7998V45.3634C14.3727 45.1353 13.9147 45.0212 13.3733 45.0212C13.1096 45.0212 12.8575 45.0592 12.6169 45.1353C12.3763 45.2068 12.1542 45.3164 11.9507 45.4641C11.7517 45.6072 11.5921 45.804 11.4718 46.0545C11.3561 46.305 11.2983 46.5913 11.2983 46.9134C11.2983 47.2534 11.3585 47.5509 11.4787 47.8058C11.599 48.0563 11.761 48.2532 11.9645 48.3963C12.1681 48.535 12.3879 48.6379 12.6238 48.705C12.8644 48.7721 13.1189 48.8056 13.3872 48.8056C13.7342 48.8056 14.0326 48.7475 14.2825 48.6312V46.7658H14.8654V49.0271C14.3935 49.2373 13.8869 49.3424 13.3456 49.3424C12.9986 49.3424 12.6724 49.2977 12.3671 49.2082C12.0617 49.1188 11.7818 48.9823 11.5273 48.7989C11.2775 48.611 11.0785 48.3561 10.9305 48.034C10.7824 47.7119 10.7084 47.3384 10.7084 46.9134Z" fill="#D1D1D1"/>
<path d="M16.5593 44.5649H17.1423V49.2619H16.5593V44.5649Z" fill="#D1D1D1"/>
<path d="M18.5134 44.5649H22.5108V45.1017H20.8036V49.2619H20.2207V45.1017H18.5134V44.5649Z" fill="#D1D1D1"/>
<path d="M23.3675 49.2619H22.736L24.8526 44.5649H25.498L27.6078 49.2619H26.9832L26.4835 48.1279H23.8672L23.3675 49.2619ZM25.0955 45.3231L24.0962 47.6045H26.2545L25.2482 45.3231C25.239 45.3008 25.2135 45.2404 25.1719 45.142C25.1302 45.2449 25.1048 45.3052 25.0955 45.3231Z" fill="#D1D1D1"/>
<path d="M28.9388 44.5649H29.5218V48.7251H32.2145V49.2619H28.9388V44.5649Z" fill="#D1D1D1"/>
<path d="M35.5979 49.2619H34.9664L37.0831 44.5649H37.7285L39.8382 49.2619H39.2136L38.7139 48.1279H36.0976L35.5979 49.2619ZM37.326 45.3231L36.3266 47.6045H38.4849L37.4786 45.3231C37.4694 45.3008 37.4439 45.2404 37.4023 45.142C37.3607 45.2449 37.3352 45.3052 37.326 45.3231Z" fill="#D1D1D1"/>
<path d="M41.1693 44.5649H42.7655C43.5936 44.5649 44.2275 44.7819 44.667 45.2158C45.1112 45.6452 45.3332 46.2111 45.3332 46.9134C45.3332 47.6157 45.1112 48.1838 44.667 48.6177C44.2275 49.0472 43.5936 49.2619 42.7655 49.2619H41.1693V44.5649ZM44.2367 48.2487C44.5745 47.9311 44.7433 47.486 44.7433 46.9134C44.7433 46.3408 44.5745 45.8957 44.2367 45.5781C43.9036 45.2605 43.4132 45.1017 42.7655 45.1017H41.7522V48.7251H42.7655C43.4132 48.7251 43.9036 48.5663 44.2367 48.2487Z" fill="#D1D1D1"/>
<path d="M46.9314 44.5649H48.5275C49.3557 44.5649 49.9896 44.7819 50.4291 45.2158C50.8732 45.6452 51.0953 46.2111 51.0953 46.9134C51.0953 47.6157 50.8732 48.1838 50.4291 48.6177C49.9896 49.0472 49.3557 49.2619 48.5275 49.2619H46.9314V44.5649ZM49.9988 48.2487C50.3366 47.9311 50.5054 47.486 50.5054 46.9134C50.5054 46.3408 50.3366 45.8957 49.9988 45.5781C49.6657 45.2605 49.1753 45.1017 48.5275 45.1017H47.5143V48.7251H48.5275C49.1753 48.7251 49.6657 48.5663 49.9988 48.2487Z" fill="#D1D1D1"/>
<path d="M52.6935 44.5649H53.2764V49.2619H52.6935V44.5649Z" fill="#D1D1D1"/>
<path d="M54.8627 46.947C54.8627 46.428 54.99 45.9785 55.2444 45.5982C55.4989 45.2135 55.8158 44.9317 56.1952 44.7528C56.5746 44.5739 56.9817 44.4844 57.4166 44.4844C57.9163 44.4844 58.372 44.5895 58.7838 44.7998V45.3634C58.4322 45.1353 58.0088 45.0212 57.5138 45.0212C56.9586 45.0212 56.4774 45.1867 56.0703 45.5177C55.6631 45.8443 55.4572 46.3207 55.4526 46.947C55.4526 47.3451 55.5567 47.6895 55.7649 47.9803C55.9777 48.2711 56.2368 48.4813 56.5422 48.611C56.8522 48.7408 57.183 48.8056 57.5346 48.8056C58.0574 48.8056 58.4854 48.6916 58.8185 48.4634V49.0271C58.3975 49.2373 57.9279 49.3424 57.4097 49.3424C57.0997 49.3424 56.7943 49.291 56.4936 49.1881C56.1929 49.0807 55.9199 48.9309 55.6747 48.7385C55.4295 48.5417 55.2328 48.289 55.0848 47.9803C54.9367 47.6672 54.8627 47.3227 54.8627 46.947Z" fill="#D1D1D1"/>
<path d="M59.8201 44.5649H63.8175V45.1017H62.1102V49.2619H61.5273V45.1017H59.8201V44.5649Z" fill="#D1D1D1"/>
<path d="M65.1882 44.5649H65.7711V49.2619H65.1882V44.5649Z" fill="#D1D1D1"/>
<path d="M67.5171 47.8058C67.4107 47.5195 67.3575 47.2221 67.3575 46.9134C67.3575 46.6047 67.4107 46.3073 67.5171 46.021C67.6281 45.7347 67.7854 45.4775 67.989 45.2493C68.1926 45.0167 68.4586 44.8311 68.7871 44.6924C69.1156 44.5537 69.4857 44.4844 69.8975 44.4844C70.3092 44.4844 70.6794 44.5537 71.0079 44.6924C71.3364 44.8311 71.6024 45.0167 71.806 45.2493C72.0095 45.4775 72.1645 45.7347 72.2709 46.021C72.382 46.3073 72.4375 46.6047 72.4375 46.9134C72.4375 47.2221 72.382 47.5195 72.2709 47.8058C72.1645 48.0921 72.0095 48.3516 71.806 48.5842C71.6024 48.8123 71.3364 48.9957 71.0079 49.1344C70.6794 49.2731 70.3092 49.3424 69.8975 49.3424C69.4857 49.3424 69.1156 49.2731 68.7871 49.1344C68.4586 48.9957 68.1926 48.8123 67.989 48.5842C67.7854 48.3516 67.6281 48.0921 67.5171 47.8058ZM71.7227 47.618C71.806 47.3943 71.8476 47.1594 71.8476 46.9134C71.8476 46.6674 71.806 46.4325 71.7227 46.2089C71.644 45.9852 71.526 45.7839 71.3687 45.605C71.2161 45.426 71.0125 45.2851 70.758 45.1822C70.5036 45.0749 70.2167 45.0212 69.8975 45.0212C69.5782 45.0212 69.2914 45.0749 69.0369 45.1822C68.7825 45.2851 68.5766 45.426 68.4193 45.605C68.2666 45.7839 68.1486 45.9852 68.0653 46.2089C67.9867 46.4325 67.9474 46.6674 67.9474 46.9134C67.9474 47.1594 67.9867 47.3943 68.0653 47.618C68.1486 47.8416 68.2666 48.0429 68.4193 48.2219C68.5766 48.4008 68.7825 48.5439 69.0369 48.6513C69.2914 48.7542 69.5782 48.8056 69.8975 48.8056C70.2167 48.8056 70.5036 48.7542 70.758 48.6513C71.0125 48.5439 71.2161 48.4008 71.3687 48.2219C71.526 48.0429 71.644 47.8416 71.7227 47.618Z" fill="#D1D1D1"/>
<path d="M74.6115 49.2619H74.0286V44.5649H74.5699L77.4916 48.3158V44.5649H78.0746V49.2619H77.5332L74.6115 45.5043V49.2619Z" fill="#D1D1D1"/>
<path d="M80.8408 50H79.5431V49.4632H80.2579V44.3636H79.5431V43.8268H80.8408V50Z" fill="#D1D1D1"/>
<path d="M89.4823 44.5649H89.9819V49.2619H89.399V45.6318L87.6571 48.1548H87.2962L85.5543 45.6318V49.2619H84.9713V44.5649H85.471L87.4766 47.4636L89.4823 44.5649Z" fill="#D1D1D1"/>
<path d="M91.9408 49.2619H91.3092L93.4259 44.5649H94.0713L96.181 49.2619H95.5564L95.0568 48.1279H92.4404L91.9408 49.2619ZM93.6688 45.3231L92.6694 47.6045H94.8278L93.8215 45.3231C93.8122 45.3008 93.7868 45.2404 93.7451 45.142C93.7035 45.2449 93.678 45.3052 93.6688 45.3231Z" fill="#D1D1D1"/>
<path d="M98.095 49.2619H97.5121V44.5649H99.4136C99.7329 44.5649 100.022 44.6074 100.281 44.6924C100.54 44.7729 100.762 44.925 100.947 45.1487C101.137 45.3679 101.232 45.6475 101.232 45.9874C101.232 46.39 101.112 46.7032 100.871 46.9268C100.63 47.1505 100.318 47.2959 99.9341 47.363L101.579 49.2619H100.85L99.261 47.4099H98.095V49.2619ZM98.095 45.1017V46.8731H99.4414C99.7838 46.8731 100.068 46.806 100.295 46.6718C100.526 46.5332 100.642 46.305 100.642 45.9874C100.642 45.6653 100.526 45.4372 100.295 45.303C100.068 45.1688 99.7838 45.1017 99.4414 45.1017H98.095Z" fill="#D1D1D1"/>
<path d="M103.559 49.2619H102.976V44.5649H103.559V46.598H104.662L106.127 44.5649H106.793L105.141 46.853L106.939 49.2619H106.272L104.683 47.1348H103.559V49.2619Z" fill="#D1D1D1"/>
<path d="M108.23 44.5649H111.505V45.1017H108.813V46.6249H111.297V47.1617H108.813V48.7251H111.547V49.2619H108.23V44.5649Z" fill="#D1D1D1"/>
<path d="M112.631 44.5649H116.628V45.1017H114.921V49.2619H114.338V45.1017H112.631V44.5649Z" fill="#D1D1D1"/>
<path d="M117.999 44.5649H118.582V49.2619H117.999V44.5649Z" fill="#D1D1D1"/>
<path d="M121.077 49.2619H120.494V44.5649H121.035L123.957 48.3158V44.5649H124.54V49.2619H123.999L121.077 45.5043V49.2619Z" fill="#D1D1D1"/>
<path d="M126.133 46.9134C126.133 46.399 126.261 45.9539 126.515 45.5781C126.77 45.1979 127.089 44.9205 127.473 44.7461C127.857 44.5716 128.271 44.4844 128.715 44.4844C129.252 44.4844 129.738 44.5895 130.173 44.7998V45.3634C129.798 45.1353 129.34 45.0212 128.798 45.0212C128.535 45.0212 128.283 45.0592 128.042 45.1353C127.801 45.2068 127.579 45.3164 127.376 45.4641C127.177 45.6072 127.017 45.804 126.897 46.0545C126.781 46.305 126.723 46.5913 126.723 46.9134C126.723 47.2534 126.784 47.5509 126.904 47.8058C127.024 48.0563 127.186 48.2532 127.39 48.3963C127.593 48.535 127.813 48.6379 128.049 48.705C128.289 48.7721 128.544 48.8056 128.812 48.8056C129.159 48.8056 129.458 48.7475 129.708 48.6312V46.7658H130.29V49.0271C129.819 49.2373 129.312 49.3424 128.771 49.3424C128.424 49.3424 128.097 49.2977 127.792 49.2082C127.487 49.1188 127.207 48.9823 126.952 48.7989C126.703 48.611 126.504 48.3561 126.356 48.034C126.208 47.7119 126.133 47.3384 126.133 46.9134Z" fill="#D1D1D1"/>
<path d="M134.176 49.2619H133.544L135.661 44.5649H136.306L138.416 49.2619H137.792L137.292 48.1279H134.676L134.176 49.2619ZM135.904 45.3231L134.905 47.6045H137.063L136.057 45.3231C136.047 45.3008 136.022 45.2404 135.98 45.142C135.939 45.2449 135.913 45.3052 135.904 45.3231Z" fill="#D1D1D1"/>
<path d="M139.238 46.9134C139.238 46.399 139.365 45.9539 139.62 45.5781C139.874 45.1979 140.194 44.9205 140.578 44.7461C140.962 44.5716 141.376 44.4844 141.82 44.4844C142.357 44.4844 142.842 44.5895 143.277 44.7998V45.3634C142.902 45.1353 142.444 45.0212 141.903 45.0212C141.639 45.0212 141.387 45.0592 141.147 45.1353C140.906 45.2068 140.684 45.3164 140.48 45.4641C140.281 45.6072 140.122 45.804 140.002 46.0545C139.886 46.305 139.828 46.5913 139.828 46.9134C139.828 47.2534 139.888 47.5509 140.009 47.8058C140.129 48.0563 140.291 48.2532 140.494 48.3963C140.698 48.535 140.918 48.6379 141.154 48.705C141.394 48.7721 141.649 48.8056 141.917 48.8056C142.264 48.8056 142.562 48.7475 142.812 48.6312V46.7658H143.395V49.0271C142.923 49.2373 142.417 49.3424 141.875 49.3424C141.528 49.3424 141.202 49.2977 140.897 49.2082C140.591 49.1188 140.312 48.9823 140.057 48.7989C139.807 48.611 139.608 48.3561 139.46 48.034C139.312 47.7119 139.238 47.3384 139.238 46.9134Z" fill="#D1D1D1"/>
<path d="M145.089 44.5649H148.365V45.1017H145.672V46.6249H148.157V47.1617H145.672V48.7251H148.406V49.2619H145.089V44.5649Z" fill="#D1D1D1"/>
<path d="M150.614 49.2619H150.031V44.5649H150.572L153.494 48.3158V44.5649H154.077V49.2619H153.536L150.614 45.5043V49.2619Z" fill="#D1D1D1"/>
<path d="M155.664 46.947C155.664 46.428 155.791 45.9785 156.045 45.5982C156.3 45.2135 156.617 44.9317 156.996 44.7528C157.375 44.5739 157.783 44.4844 158.217 44.4844C158.717 44.4844 159.173 44.5895 159.585 44.7998V45.3634C159.233 45.1353 158.81 45.0212 158.315 45.0212C157.759 45.0212 157.278 45.1867 156.871 45.5177C156.464 45.8443 156.258 46.3207 156.253 46.947C156.253 47.3451 156.358 47.6895 156.566 47.9803C156.779 48.2711 157.038 48.4813 157.343 48.611C157.653 48.7408 157.984 48.8056 158.335 48.8056C158.858 48.8056 159.286 48.6916 159.619 48.4634V49.0271C159.198 49.2373 158.729 49.3424 158.211 49.3424C157.901 49.3424 157.595 49.291 157.294 49.1881C156.994 49.0807 156.721 48.9309 156.476 48.7385C156.23 48.5417 156.034 48.289 155.886 47.9803C155.738 47.6672 155.664 47.3227 155.664 46.947Z" fill="#D1D1D1"/>
<path d="M163.092 49.2619H162.509V47.4838L160.6 44.5649H161.245L162.8 46.9805L164.355 44.5649H165L163.092 47.4838V49.2619Z" fill="#D1D1D1"/>
<path d="M6.61719 10.2871H7.74219C7.68359 10.8262 7.5293 11.3086 7.2793 11.7344C7.0293 12.1602 6.67578 12.498 6.21875 12.748C5.76172 12.9941 5.19141 13.1172 4.50781 13.1172C4.00781 13.1172 3.55273 13.0234 3.14258 12.8359C2.73633 12.6484 2.38672 12.3828 2.09375 12.0391C1.80078 11.6914 1.57422 11.2754 1.41406 10.791C1.25781 10.3027 1.17969 9.75977 1.17969 9.16211V8.3125C1.17969 7.71484 1.25781 7.17383 1.41406 6.68945C1.57422 6.20117 1.80273 5.7832 2.09961 5.43555C2.40039 5.08789 2.76172 4.82031 3.18359 4.63281C3.60547 4.44531 4.08008 4.35156 4.60742 4.35156C5.25195 4.35156 5.79688 4.47266 6.24219 4.71484C6.6875 4.95703 7.0332 5.29297 7.2793 5.72266C7.5293 6.14844 7.68359 6.64258 7.74219 7.20508H6.61719C6.5625 6.80664 6.46094 6.46484 6.3125 6.17969C6.16406 5.89062 5.95312 5.66797 5.67969 5.51172C5.40625 5.35547 5.04883 5.27734 4.60742 5.27734C4.22852 5.27734 3.89453 5.34961 3.60547 5.49414C3.32031 5.63867 3.08008 5.84375 2.88477 6.10938C2.69336 6.375 2.54883 6.69336 2.45117 7.06445C2.35352 7.43555 2.30469 7.84766 2.30469 8.30078V9.16211C2.30469 9.58008 2.34766 9.97266 2.43359 10.3398C2.52344 10.707 2.6582 11.0293 2.83789 11.3066C3.01758 11.584 3.24609 11.8027 3.52344 11.9629C3.80078 12.1191 4.12891 12.1973 4.50781 12.1973C4.98828 12.1973 5.37109 12.1211 5.65625 11.9688C5.94141 11.8164 6.15625 11.5977 6.30078 11.3125C6.44922 11.0273 6.55469 10.6855 6.61719 10.2871ZM10.2031 7.65625V13H9.11914V6.66016H10.1738L10.2031 7.65625ZM12.1836 6.625L12.1777 7.63281C12.0879 7.61328 12.002 7.60156 11.9199 7.59766C11.8418 7.58984 11.752 7.58594 11.6504 7.58594C11.4004 7.58594 11.1797 7.625 10.9883 7.70312C10.7969 7.78125 10.6348 7.89062 10.502 8.03125C10.3691 8.17188 10.2637 8.33984 10.1855 8.53516C10.1113 8.72656 10.0625 8.9375 10.0391 9.16797L9.73438 9.34375C9.73438 8.96094 9.77148 8.60156 9.8457 8.26562C9.92383 7.92969 10.043 7.63281 10.2031 7.375C10.3633 7.11328 10.5664 6.91016 10.8125 6.76562C11.0625 6.61719 11.3594 6.54297 11.7031 6.54297C11.7812 6.54297 11.8711 6.55273 11.9727 6.57227C12.0742 6.58789 12.1445 6.60547 12.1836 6.625ZM15.6992 13.1172C15.2578 13.1172 14.8574 13.043 14.498 12.8945C14.1426 12.7422 13.8359 12.5293 13.5781 12.2559C13.3242 11.9824 13.1289 11.6582 12.9922 11.2832C12.8555 10.9082 12.7871 10.498 12.7871 10.0527V9.80664C12.7871 9.29102 12.8633 8.83203 13.0156 8.42969C13.168 8.02344 13.375 7.67969 13.6367 7.39844C13.8984 7.11719 14.1953 6.9043 14.5273 6.75977C14.8594 6.61523 15.2031 6.54297 15.5586 6.54297C16.0117 6.54297 16.4023 6.62109 16.7305 6.77734C17.0625 6.93359 17.334 7.15234 17.5449 7.43359C17.7559 7.71094 17.9121 8.03906 18.0137 8.41797C18.1152 8.79297 18.166 9.20312 18.166 9.64844V10.1348H13.4316V9.25H17.082V9.16797C17.0664 8.88672 17.0078 8.61328 16.9062 8.34766C16.8086 8.08203 16.6523 7.86328 16.4375 7.69141C16.2227 7.51953 15.9297 7.43359 15.5586 7.43359C15.3125 7.43359 15.0859 7.48633 14.8789 7.5918C14.6719 7.69336 14.4941 7.8457 14.3457 8.04883C14.1973 8.25195 14.082 8.5 14 8.79297C13.918 9.08594 13.877 9.42383 13.877 9.80664V10.0527C13.877 10.3535 13.918 10.6367 14 10.9023C14.0859 11.1641 14.209 11.3945 14.3691 11.5938C14.5332 11.793 14.7305 11.9492 14.9609 12.0625C15.1953 12.1758 15.4609 12.2324 15.7578 12.2324C16.1406 12.2324 16.4648 12.1543 16.7305 11.998C16.9961 11.8418 17.2285 11.6328 17.4277 11.3711L18.084 11.8926C17.9473 12.0996 17.7734 12.2969 17.5625 12.4844C17.3516 12.6719 17.0918 12.8242 16.7832 12.9414C16.4785 13.0586 16.1172 13.1172 15.6992 13.1172ZM23.1699 11.916V8.65234C23.1699 8.40234 23.1191 8.18555 23.0176 8.00195C22.9199 7.81445 22.7715 7.66992 22.5723 7.56836C22.373 7.4668 22.127 7.41602 21.834 7.41602C21.5605 7.41602 21.3203 7.46289 21.1133 7.55664C20.9102 7.65039 20.75 7.77344 20.6328 7.92578C20.5195 8.07812 20.4629 8.24219 20.4629 8.41797H19.3789C19.3789 8.19141 19.4375 7.9668 19.5547 7.74414C19.6719 7.52148 19.8398 7.32031 20.0586 7.14062C20.2812 6.95703 20.5469 6.8125 20.8555 6.70703C21.168 6.59766 21.5156 6.54297 21.8984 6.54297C22.3594 6.54297 22.7656 6.62109 23.1172 6.77734C23.4727 6.93359 23.75 7.16992 23.9492 7.48633C24.1523 7.79883 24.2539 8.19141 24.2539 8.66406V11.6172C24.2539 11.8281 24.2715 12.0527 24.3066 12.291C24.3457 12.5293 24.4023 12.7344 24.4766 12.9062V13H23.3457C23.291 12.875 23.248 12.709 23.2168 12.502C23.1855 12.291 23.1699 12.0957 23.1699 11.916ZM23.3574 9.15625L23.3691 9.91797H22.2734C21.9648 9.91797 21.6895 9.94336 21.4473 9.99414C21.2051 10.041 21.002 10.1133 20.8379 10.2109C20.6738 10.3086 20.5488 10.4316 20.4629 10.5801C20.377 10.7246 20.334 10.8945 20.334 11.0898C20.334 11.2891 20.3789 11.4707 20.4688 11.6348C20.5586 11.7988 20.6934 11.9297 20.873 12.0273C21.0566 12.1211 21.2812 12.168 21.5469 12.168C21.8789 12.168 22.1719 12.0977 22.4258 11.957C22.6797 11.8164 22.8809 11.6445 23.0293 11.4414C23.1816 11.2383 23.2637 11.041 23.2754 10.8496L23.7383 11.3711C23.7109 11.5352 23.6367 11.7168 23.5156 11.916C23.3945 12.1152 23.2324 12.3066 23.0293 12.4902C22.8301 12.6699 22.5918 12.8203 22.3145 12.9414C22.041 13.0586 21.7324 13.1172 21.3887 13.1172C20.959 13.1172 20.582 13.0332 20.2578 12.8652C19.9375 12.6973 19.6875 12.4727 19.5078 12.1914C19.332 11.9062 19.2441 11.5879 19.2441 11.2363C19.2441 10.8965 19.3105 10.5977 19.4434 10.3398C19.5762 10.0781 19.7676 9.86133 20.0176 9.68945C20.2676 9.51367 20.5684 9.38086 20.9199 9.29102C21.2715 9.20117 21.6641 9.15625 22.0977 9.15625H23.3574ZM28.6133 6.66016V7.49219H25.1855V6.66016H28.6133ZM26.3457 5.11914H27.4297V11.4297C27.4297 11.6445 27.4629 11.8066 27.5293 11.916C27.5957 12.0254 27.6816 12.0977 27.7871 12.1328C27.8926 12.168 28.0059 12.1855 28.127 12.1855C28.2168 12.1855 28.3105 12.1777 28.4082 12.1621C28.5098 12.1426 28.5859 12.127 28.6367 12.1152L28.6426 13C28.5566 13.0273 28.4434 13.0527 28.3027 13.0762C28.166 13.1035 28 13.1172 27.8047 13.1172C27.5391 13.1172 27.2949 13.0645 27.0723 12.959C26.8496 12.8535 26.6719 12.6777 26.5391 12.4316C26.4102 12.1816 26.3457 11.8457 26.3457 11.4238V5.11914ZM32.5156 13.1172C32.0742 13.1172 31.6738 13.043 31.3145 12.8945C30.959 12.7422 30.6523 12.5293 30.3945 12.2559C30.1406 11.9824 29.9453 11.6582 29.8086 11.2832C29.6719 10.9082 29.6035 10.498 29.6035 10.0527V9.80664C29.6035 9.29102 29.6797 8.83203 29.832 8.42969C29.9844 8.02344 30.1914 7.67969 30.4531 7.39844C30.7148 7.11719 31.0117 6.9043 31.3438 6.75977C31.6758 6.61523 32.0195 6.54297 32.375 6.54297C32.8281 6.54297 33.2188 6.62109 33.5469 6.77734C33.8789 6.93359 34.1504 7.15234 34.3613 7.43359C34.5723 7.71094 34.7285 8.03906 34.8301 8.41797C34.9316 8.79297 34.9824 9.20312 34.9824 9.64844V10.1348H30.248V9.25H33.8984V9.16797C33.8828 8.88672 33.8242 8.61328 33.7227 8.34766C33.625 8.08203 33.4688 7.86328 33.2539 7.69141C33.0391 7.51953 32.7461 7.43359 32.375 7.43359C32.1289 7.43359 31.9023 7.48633 31.6953 7.5918C31.4883 7.69336 31.3105 7.8457 31.1621 8.04883C31.0137 8.25195 30.8984 8.5 30.8164 8.79297C30.7344 9.08594 30.6934 9.42383 30.6934 9.80664V10.0527C30.6934 10.3535 30.7344 10.6367 30.8164 10.9023C30.9023 11.1641 31.0254 11.3945 31.1855 11.5938C31.3496 11.793 31.5469 11.9492 31.7773 12.0625C32.0117 12.1758 32.2773 12.2324 32.5742 12.2324C32.957 12.2324 33.2812 12.1543 33.5469 11.998C33.8125 11.8418 34.0449 11.6328 34.2441 11.3711L34.9004 11.8926C34.7637 12.0996 34.5898 12.2969 34.3789 12.4844C34.168 12.6719 33.9082 12.8242 33.5996 12.9414C33.2949 13.0586 32.9336 13.1172 32.5156 13.1172ZM40.2441 11.7695V4H41.334V13H40.3379L40.2441 11.7695ZM35.9785 9.90039V9.77734C35.9785 9.29297 36.0371 8.85352 36.1543 8.45898C36.2754 8.06055 36.4453 7.71875 36.6641 7.43359C36.8867 7.14844 37.1504 6.92969 37.4551 6.77734C37.7637 6.62109 38.1074 6.54297 38.4863 6.54297C38.8848 6.54297 39.2324 6.61328 39.5293 6.75391C39.8301 6.89062 40.084 7.0918 40.291 7.35742C40.502 7.61914 40.668 7.93555 40.7891 8.30664C40.9102 8.67773 40.9941 9.09766 41.041 9.56641V10.1055C40.998 10.5703 40.9141 10.9883 40.7891 11.3594C40.668 11.7305 40.502 12.0469 40.291 12.3086C40.084 12.5703 39.8301 12.7715 39.5293 12.9121C39.2285 13.0488 38.877 13.1172 38.4746 13.1172C38.1035 13.1172 37.7637 13.0371 37.4551 12.877C37.1504 12.7168 36.8867 12.4922 36.6641 12.2031C36.4453 11.9141 36.2754 11.5742 36.1543 11.1836C36.0371 10.7891 35.9785 10.3613 35.9785 9.90039ZM37.0684 9.77734V9.90039C37.0684 10.2168 37.0996 10.5137 37.1621 10.791C37.2285 11.0684 37.3301 11.3125 37.4668 11.5234C37.6035 11.7344 37.7773 11.9004 37.9883 12.0215C38.1992 12.1387 38.4512 12.1973 38.7441 12.1973C39.1035 12.1973 39.3984 12.1211 39.6289 11.9688C39.8633 11.8164 40.0508 11.6152 40.1914 11.3652C40.332 11.1152 40.4414 10.8438 40.5195 10.5508V9.13867C40.4727 8.92383 40.4043 8.7168 40.3145 8.51758C40.2285 8.31445 40.1152 8.13477 39.9746 7.97852C39.8379 7.81836 39.668 7.69141 39.4648 7.59766C39.2656 7.50391 39.0293 7.45703 38.7559 7.45703C38.459 7.45703 38.2031 7.51953 37.9883 7.64453C37.7773 7.76562 37.6035 7.93359 37.4668 8.14844C37.3301 8.35938 37.2285 8.60547 37.1621 8.88672C37.0996 9.16406 37.0684 9.46094 37.0684 9.77734ZM45.9922 4H47.082V11.7695L46.9883 13H45.9922V4ZM51.3652 9.77734V9.90039C51.3652 10.3613 51.3105 10.7891 51.2012 11.1836C51.0918 11.5742 50.9316 11.9141 50.7207 12.2031C50.5098 12.4922 50.252 12.7168 49.9473 12.877C49.6426 13.0371 49.293 13.1172 48.8984 13.1172C48.4961 13.1172 48.1426 13.0488 47.8379 12.9121C47.5371 12.7715 47.2832 12.5703 47.0762 12.3086C46.8691 12.0469 46.7031 11.7305 46.5781 11.3594C46.457 10.9883 46.373 10.5703 46.3262 10.1055V9.56641C46.373 9.09766 46.457 8.67773 46.5781 8.30664C46.7031 7.93555 46.8691 7.61914 47.0762 7.35742C47.2832 7.0918 47.5371 6.89062 47.8379 6.75391C48.1387 6.61328 48.4883 6.54297 48.8867 6.54297C49.2852 6.54297 49.6387 6.62109 49.9473 6.77734C50.2559 6.92969 50.5137 7.14844 50.7207 7.43359C50.9316 7.71875 51.0918 8.06055 51.2012 8.45898C51.3105 8.85352 51.3652 9.29297 51.3652 9.77734ZM50.2754 9.90039V9.77734C50.2754 9.46094 50.2461 9.16406 50.1875 8.88672C50.1289 8.60547 50.0352 8.35938 49.9062 8.14844C49.7773 7.93359 49.6074 7.76562 49.3965 7.64453C49.1855 7.51953 48.9258 7.45703 48.6172 7.45703C48.3438 7.45703 48.1055 7.50391 47.9023 7.59766C47.7031 7.69141 47.5332 7.81836 47.3926 7.97852C47.252 8.13477 47.1367 8.31445 47.0469 8.51758C46.9609 8.7168 46.8965 8.92383 46.8535 9.13867V10.5508C46.916 10.8242 47.0176 11.0879 47.1582 11.3418C47.3027 11.5918 47.4941 11.7969 47.7324 11.957C47.9746 12.1172 48.2734 12.1973 48.6289 12.1973C48.9219 12.1973 49.1719 12.1387 49.3789 12.0215C49.5898 11.9004 49.7598 11.7344 49.8887 11.5234C50.0215 11.3125 50.1191 11.0684 50.1816 10.791C50.2441 10.5137 50.2754 10.2168 50.2754 9.90039ZM54.4473 12.3438L56.2109 6.66016H57.3711L54.8281 13.9785C54.7695 14.1348 54.6914 14.3027 54.5938 14.4824C54.5 14.666 54.3789 14.8398 54.2305 15.0039C54.082 15.168 53.9023 15.3008 53.6914 15.4023C53.4844 15.5078 53.2363 15.5605 52.9473 15.5605C52.8613 15.5605 52.752 15.5488 52.6191 15.5254C52.4863 15.502 52.3926 15.4824 52.3379 15.4668L52.332 14.5879C52.3633 14.5918 52.4121 14.5957 52.4785 14.5996C52.5488 14.6074 52.5977 14.6113 52.625 14.6113C52.8711 14.6113 53.0801 14.5781 53.252 14.5117C53.4238 14.4492 53.5684 14.3418 53.6855 14.1895C53.8066 14.041 53.9102 13.8359 53.9961 13.5742L54.4473 12.3438ZM53.1523 6.66016L54.7988 11.582L55.0801 12.7246L54.3008 13.123L51.9688 6.66016H53.1523Z" fill="#D1D1D1"/>
</svg>
