<svg width="77" height="76" viewBox="0 0 77 76" fill="none" xmlns="http://www.w3.org/2000/svg">
<path fill-rule="evenodd" clip-rule="evenodd" d="M0.363281 59.6041L0.363281 63.2863H1.11438H1.86555L2.74549 61.5181C3.797 59.4053 4.12833 58.5973 4.24572 57.8597C4.32527 57.3594 4.34926 57.3073 4.49939 57.3073H4.66528L4.66528 60.2968V63.2863H5.2486H5.83192V59.6041L5.83192 55.9219H5.04254H4.25309L3.26035 57.9453C2.23312 60.039 1.9093 60.8533 1.84105 61.5148C1.80532 61.8607 1.78323 61.9009 1.62909 61.9009H1.45701L1.45701 58.9114L1.45701 55.9219H0.910145H0.363281L0.363281 59.6041ZM21.0702 57.9846C20.2933 58.1613 19.8625 58.5605 19.6484 59.3021C19.5486 59.6473 19.5309 59.9479 19.5556 60.8698C19.5914 62.2019 19.6744 62.4793 20.1674 62.9133C20.5864 63.282 21.0088 63.397 21.9196 63.3901C22.5735 63.3852 22.7063 63.3612 23.0733 63.1816C23.5344 62.956 23.8603 62.574 24.0041 62.0902C24.0568 61.9132 24.0938 61.3313 24.0951 60.6614C24.0968 59.7416 24.0718 59.4583 23.9608 59.1396C23.7893 58.6472 23.3917 58.2416 22.9227 58.0805C22.447 57.9171 21.5677 57.8716 21.0702 57.9846ZM32.213 57.9647C31.2924 58.1098 31.3186 58.0904 31.2942 58.6423C31.2728 59.1269 31.2739 59.1301 31.466 59.1301C31.5723 59.1301 31.8609 59.0779 32.1073 59.014C32.3949 58.9394 32.7601 58.907 33.1276 58.9236C33.8617 58.9569 33.9772 59.0703 33.9772 59.758V60.2239L33.3392 60.2245C31.9732 60.2256 31.2932 60.4587 31.0008 61.0259C30.8542 61.3103 30.8353 61.4367 30.8584 61.9738C30.8899 62.7084 31.0327 63.011 31.4483 63.2243C32.0532 63.5349 32.9849 63.4394 33.7085 62.9927C33.9017 62.8735 34.09 62.7759 34.1268 62.7759C34.1637 62.7759 34.2807 62.9071 34.3869 63.0676C34.493 63.228 34.6112 63.3592 34.6494 63.3592C34.7354 63.3592 35.3626 62.9138 35.3626 62.8527C35.3626 62.8283 35.3051 62.7272 35.235 62.6281C35.1269 62.4754 35.101 62.2131 35.0658 60.9166C35.0169 59.1137 34.937 58.7661 34.4825 58.3771C34.3255 58.2428 34.0628 58.0926 33.8987 58.0433C33.4928 57.9218 32.716 57.8856 32.213 57.9647ZM50.7282 57.9931C50.1388 58.1197 49.7403 58.4219 49.4727 58.9452C49.2627 59.3557 49.2521 59.4214 49.2267 60.4651C49.1949 61.7682 49.3042 62.3049 49.6939 62.7602C50.0917 63.225 50.5568 63.3855 51.5133 63.388C52.2006 63.3898 52.3706 63.3656 52.7013 63.2185C53.5415 62.8449 53.8101 62.2231 53.8101 60.6516C53.8101 59.5648 53.7034 59.0419 53.3996 58.6396C52.9312 58.0195 51.8376 57.7548 50.7282 57.9931ZM68.225 57.9967C67.4066 58.1408 67.4452 58.1082 67.4452 58.6539C67.4452 59.1184 67.4499 59.1301 67.6352 59.1301C67.7397 59.1301 68.0268 59.0779 68.2732 59.014C68.5608 58.9394 68.9261 58.907 69.2935 58.9236C70.0277 58.9569 70.1431 59.0703 70.1431 59.758V60.2239L69.5051 60.2245C68.1392 60.2256 67.4591 60.4587 67.1668 61.0259C67.0201 61.3103 67.0012 61.4367 67.0243 61.9738C67.0559 62.7084 67.1986 63.011 67.6143 63.2243C68.2192 63.5349 69.1509 63.4394 69.8745 62.9927C70.0676 62.8735 70.2559 62.7759 70.2927 62.7759C70.3296 62.7759 70.4466 62.9071 70.5528 63.0676C70.659 63.228 70.7771 63.3592 70.8153 63.3592C70.9013 63.3592 71.5285 62.9138 71.5285 62.8527C71.5285 62.8283 71.4711 62.7272 71.4009 62.6281C71.293 62.4757 71.2665 62.2109 71.2297 60.9166C71.2052 60.0602 71.1459 59.2407 71.0949 59.0572C70.9799 58.6428 70.5117 58.1773 70.0797 58.0479C69.605 57.9057 68.8591 57.885 68.225 57.9967ZM7.70343 58.085C7.67667 58.1117 7.6548 59.293 7.6548 60.71V63.2863H8.20166H8.74852V62.1926L8.74852 61.0988H9.84028H10.9321L10.9522 62.1743L10.9724 63.2498L11.5011 63.2713L12.0297 63.2927L12.0297 60.6614V58.03L11.5011 58.0514L10.9724 58.0729L10.9522 59.1119L10.932 60.151H9.84028H8.74852V59.0937V58.0364H8.25029C7.97621 58.0364 7.73012 58.0583 7.70343 58.085ZM13.7068 60.6614L13.7068 63.2863H14.2536H14.8005V62.1926L14.8005 61.0988H15.8942H16.9879V62.1926V63.2863H17.5348H18.0817V60.6614V58.0364H17.5348H16.9879V59.0937V60.151H15.8942H14.8005V59.0937V58.0364H14.2536H13.7068V60.6614ZM25.519 60.6676V63.2988L27.0685 63.2744C28.5516 63.2509 28.6334 63.242 28.9787 63.0676C29.4869 62.8108 29.6289 62.5857 29.6585 61.9897C29.6887 61.3829 29.5363 61.0983 29.0561 60.8649C28.8752 60.7771 28.7274 60.6872 28.7275 60.6651C28.7276 60.643 28.848 60.5593 28.995 60.4791C29.4332 60.2401 29.566 59.9968 29.565 59.4347C29.5632 58.3132 28.9912 58.0409 26.631 58.0379L25.519 58.0364V60.6676ZM36.6021 60.6603V63.284L38.6984 63.3034L40.7947 63.3228L40.8155 64.0701L40.8363 64.8175H41.3077H41.7791V63.6144V62.4113H41.3781H40.977V60.2239V58.0364H40.4302H39.8833V60.2239V62.4113H38.7896H37.6958V60.2239V58.0364H37.149H36.6021V60.6603ZM42.8728 60.6614V63.2863H43.6976H44.5223L45.4496 61.4057C45.9597 60.3713 46.397 59.4018 46.4215 59.2513C46.4538 59.052 46.4978 58.9837 46.5833 59.0001C46.6877 59.0202 46.7031 59.2616 46.7202 61.1545L46.7395 63.2863H47.2488H47.7581V60.6614V58.0364H46.8875H46.0169L45.1707 59.7317C44.5723 60.9306 44.2992 61.5604 44.2382 61.8827C44.1862 62.1574 44.1151 62.3384 44.0592 62.3384C43.9864 62.3384 43.9665 61.8788 43.9665 60.1874V58.0364H43.4197H42.8728V60.6614ZM55.2684 60.6582V63.2863H55.8153H56.3621V62.1926V61.0988H57.4559H58.5496V62.1926V63.2863H59.0974H59.6451L59.626 60.6796L59.6068 58.0729L59.0782 58.0514L58.5496 58.03V59.0905V60.151H57.4578H56.3661L56.3459 59.1119L56.3257 58.0729L55.797 58.0514L55.2684 58.03V60.6582ZM61.3204 60.6614V63.2863H61.8308H62.3412V62.1926V61.0988H63.4714L64.6015 61.0988V62.1926V63.2863H65.1119H65.6224V60.6614V58.0364L65.1119 58.0364H64.6015V59.0937V60.151L63.4714 60.151H62.3412V59.0937V58.0364H61.8308H61.3204V60.6614ZM74.0799 58.1074C73.4817 58.1847 73.1834 58.3044 72.9366 58.5664C72.6512 58.8694 72.5493 59.1845 72.5493 59.7637C72.5493 60.3666 72.7119 60.685 73.2714 61.1775L73.7044 61.5587L73.1633 62.2731C72.8657 62.6661 72.6222 63.0548 72.6222 63.137C72.6222 63.2754 72.666 63.2863 73.2238 63.2862L73.8253 63.286L74.0578 62.9398C74.3447 62.5123 74.4966 62.1663 74.5537 61.8098L74.5975 61.5363H75.1775H75.7576V62.4113V63.2863H76.3044H76.8513V60.6614V58.0364L75.6664 58.046C75.0148 58.0512 74.3008 58.0789 74.0799 58.1074ZM22.7893 59.067C22.9702 59.2479 23.0364 59.6753 23.0364 60.6614C23.0364 62.3039 22.962 62.4113 21.8239 62.4113C21.4046 62.4113 21.0016 62.3792 20.9282 62.3399C20.698 62.2167 20.6337 61.8502 20.6337 60.6614C20.6337 59.3913 20.6944 59.1029 20.9857 58.9903C21.2972 58.8698 22.6497 58.9274 22.7893 59.067ZM28.2978 59.0652C28.4302 59.1977 28.4474 59.2844 28.4216 59.69C28.4021 59.9949 28.3544 60.1845 28.286 60.2277C28.228 60.2645 27.8277 60.295 27.3966 60.2957L26.6127 60.2968V59.6041V58.9114H27.3783C28.06 58.9114 28.1608 58.9282 28.2978 59.0652ZM52.514 59.1139C52.6741 59.2741 52.6799 59.325 52.6799 60.5722C52.6799 61.283 52.6561 61.949 52.627 62.0525C52.5492 62.3286 52.2844 62.4113 51.4775 62.4113C50.8197 62.4113 50.7377 62.3957 50.5512 62.2354L50.3466 62.0594V60.6789C50.3466 58.89 50.3377 58.9024 51.6026 58.931C52.2687 58.946 52.3657 58.9655 52.514 59.1139ZM75.7576 59.7864V60.6614H74.8988C73.7489 60.6614 73.7159 60.6383 73.7159 59.8326C73.7159 58.946 73.7336 58.9333 74.9737 58.9199L75.7576 58.9114V59.7864ZM28.394 61.1405C28.4759 61.2225 28.5085 61.398 28.5085 61.7577C28.5085 62.3931 28.4782 62.4113 27.4196 62.4113H26.6127V61.7186V61.0259H27.4461C28.1064 61.0259 28.3031 61.0497 28.394 61.1405ZM33.9772 61.57V62.114L33.6673 62.1944C33.4969 62.2387 33.2425 62.3054 33.1022 62.3426C32.9618 62.38 32.6758 62.4107 32.4667 62.4109C32.0101 62.4114 31.9355 62.3169 31.9355 61.7374C31.9355 61.3453 32.0218 61.15 32.2272 61.0765C32.2874 61.055 32.7057 61.0348 33.1569 61.0317L33.9772 61.0259V61.57ZM70.1431 61.57V62.114L69.8332 62.1944C69.6627 62.2387 69.4085 62.3054 69.2681 62.3426C69.1277 62.38 68.8418 62.4107 68.6327 62.4109C68.176 62.4114 68.1015 62.3169 68.1015 61.7374C68.1015 61.3453 68.1877 61.15 68.3931 61.0765C68.4533 61.055 68.8717 61.0348 69.3228 61.0317L70.1431 61.0259V61.57ZM23.4866 68.3205C23.3645 68.4857 23.218 68.5507 22.6866 68.6755C21.8751 68.866 21.5806 68.9879 21.267 69.2632C20.8657 69.6156 20.6526 70.1949 20.5542 71.2002C20.4579 72.1847 20.506 74.2374 20.6364 74.7073C20.7531 75.1278 21.1043 75.5242 21.54 75.727C21.8611 75.8766 22.0206 75.8993 22.7532 75.8999C23.8028 75.9008 24.2533 75.781 24.6349 75.3993C25.0274 75.0068 25.118 74.6222 25.1178 73.3486C25.1177 72.3201 25.1118 72.2794 24.8991 71.8538C24.7105 71.4764 24.6254 71.3881 24.2795 71.2106C23.9004 71.0161 23.8363 71.0063 23.1128 71.0319C22.3296 71.0596 21.9004 71.193 21.659 71.4839C21.5012 71.674 21.4358 71.6153 21.4358 71.2838C21.4358 70.8066 21.631 70.2321 21.8395 70.0954C21.9381 70.0308 22.3827 69.8834 22.8277 69.7677C23.7911 69.5173 24.0905 69.3849 24.2726 69.1288C24.3901 68.9634 24.5976 68.3834 24.5509 68.3508C24.5419 68.3445 24.3325 68.2896 24.0854 68.2288L23.6362 68.1182L23.4866 68.3205ZM16.1494 70.4954C15.4706 70.6734 14.964 71.1335 14.7909 71.7293C14.7249 71.9562 14.6911 72.468 14.6911 73.2392C14.6911 74.603 14.7681 74.8934 15.2566 75.3724C15.6803 75.7878 16.0422 75.9006 16.9515 75.9006C18.122 75.9006 18.6713 75.6316 19.0202 74.8876C19.2049 74.4936 19.2119 74.4312 19.2118 73.1663C19.2117 71.7221 19.1761 71.562 18.7461 71.0723C18.3711 70.6451 17.9433 70.4864 17.0973 70.4604C16.6963 70.4481 16.2697 70.4639 16.1494 70.4954ZM51.7082 70.5669C51.27 70.7227 50.7954 71.1412 50.6207 71.5257C50.4682 71.8613 50.4012 73.9365 50.525 74.4895C50.6346 74.9793 50.9437 75.4008 51.3826 75.6588C51.7192 75.8567 51.7682 75.8642 52.7164 75.8642C53.5861 75.8642 53.7347 75.8459 53.9924 75.7068C54.8208 75.2598 55.1078 74.4665 55.0288 72.8417C54.9657 71.543 54.7215 71.0407 53.9757 70.6758C53.6159 70.4998 53.4535 70.4679 52.8267 70.4498C52.2554 70.4333 52.0121 70.4588 51.7082 70.5669ZM57.4536 70.5395C57.272 70.5979 56.9887 70.761 56.8242 70.9018C56.3492 71.3084 56.2669 71.5944 56.2318 72.9596C56.186 74.7429 56.3569 75.2685 57.1099 75.6598C57.4521 75.8376 57.5843 75.8613 58.3673 75.8839C58.9177 75.8998 59.4181 75.8727 59.7162 75.8108L60.1902 75.7123L60.2122 75.2488C60.2242 74.9939 60.2043 74.7554 60.1679 74.719C60.128 74.6791 59.8666 74.7127 59.514 74.8027C58.8686 74.9675 58.2279 74.9942 57.7964 74.8743C57.3521 74.751 57.2963 74.5306 57.3237 73.0052C57.3518 71.4333 57.3396 71.4521 58.3207 71.4539C58.6671 71.4546 58.9953 71.4834 59.05 71.518C59.1046 71.5526 59.2097 71.7572 59.2835 71.9726C59.4335 72.4103 59.5019 72.4331 60.1431 72.2587L60.4605 72.1723L60.4095 71.8325C60.3137 71.1935 60.0492 70.845 59.461 70.5825C59.1349 70.4369 57.8571 70.4095 57.4536 70.5395ZM6.7069 73.2028L6.7069 75.8277H7.21731H7.72771L7.72771 73.6767C7.72771 71.612 7.73325 71.5257 7.86625 71.5257C7.97344 71.5257 8.02521 71.6125 8.09455 71.9085C8.14391 72.1191 8.44388 73.087 8.76107 74.0595L9.33782 75.8277H9.93879H10.5397L11.1427 74.0019C11.4743 72.9977 11.7649 72.0133 11.7884 71.8145C11.8263 71.4951 11.8514 71.4528 12.0034 71.4528H12.1755L12.1755 73.6403V75.8277H12.6859H13.1963V73.2028L13.1963 70.5778H12.212C11.6706 70.5778 11.2276 70.591 11.2276 70.6071C11.2276 70.6232 10.9975 71.3497 10.7162 72.2215C10.435 73.0933 10.1677 74.0317 10.1222 74.3068C10.0547 74.7154 10.0149 74.8069 9.90445 74.8069C9.79413 74.8069 9.76926 74.7499 9.7689 74.497C9.76839 74.1063 9.72406 73.9385 9.13315 72.0908L8.64929 70.5778H7.67806H6.7069V73.2028ZM26.4669 73.2028V75.8277H27.2711H28.0752L29.0575 73.8495C29.5977 72.7614 30.0398 71.7935 30.0398 71.6985C30.0398 71.5943 30.0828 71.5257 30.148 71.5257C30.2408 71.5257 30.2591 71.8296 30.2756 73.6585L30.295 75.7913L30.8236 75.8127L31.3522 75.8341V73.206V70.5778H30.4776H29.6029L28.8271 72.1273C28.0187 73.742 27.7794 74.3232 27.7794 74.6725C27.7794 74.8081 27.7416 74.8798 27.67 74.8798C27.5753 74.8798 27.5606 74.5922 27.5606 72.7288V70.5778H27.0138H26.4669V73.2028ZM33.8721 71.1429C33.7594 72.5726 33.5985 74.0691 33.527 74.3531C33.4314 74.7328 33.1989 74.9293 32.769 74.9938L32.4459 75.0422V75.4443V75.8464L33.011 75.8133C33.764 75.7691 34.1001 75.6063 34.2804 75.1987C34.4255 74.8707 34.6656 73.3382 34.7501 72.2002L34.8002 71.5257H35.6271H36.4541L36.4734 73.6585L36.4927 75.7913L37.0214 75.8127L37.55 75.8341V73.206V70.5778H35.7333H33.9167L33.8721 71.1429ZM39.2271 73.2113V75.8448L40.6671 75.8141C41.9195 75.7874 42.1503 75.7639 42.4377 75.6343C43.0588 75.3543 43.3091 74.8846 43.3099 73.9975C43.3106 73.2121 43.0948 72.7734 42.5564 72.4654C42.2988 72.318 42.1542 72.2918 41.5968 72.2916C41.2359 72.2915 40.8011 72.3188 40.6307 72.3524L40.3208 72.4135V71.4957V70.5778H39.7739H39.2271V73.2113ZM44.6228 73.206V75.8341L45.1514 75.8127L45.6801 75.7913L45.7002 74.6793L45.7203 73.5673H46.8121H47.904V74.7007V75.8341L48.4326 75.8127L48.9612 75.7913L48.9804 73.1845L48.9995 70.5778H48.4518H47.904V71.6351V72.6924H46.8102H45.7165V71.6351V70.5778H45.1696H44.6228V73.206ZM61.1016 71.0153V71.4528H61.9026H62.7036L62.7229 73.622L62.7422 75.7913L63.2708 75.8127L63.7995 75.8341V73.6435V71.4528H64.638H65.4765V71.0153V70.5778H63.2891H61.1016V71.0153ZM66.5703 73.2113V75.8448L68.0103 75.8079C69.6398 75.7662 69.8883 75.7108 70.2521 75.3081C70.5656 74.9611 70.6744 74.5572 70.6418 73.8616C70.6084 73.1522 70.4326 72.8036 69.9601 72.5101C69.6363 72.3089 69.5547 72.2913 68.9458 72.2913C68.5817 72.2913 68.1443 72.3188 67.9739 72.3524L67.664 72.4135V71.4957V70.5778H67.1171H66.5703V73.2113ZM17.9299 71.5927C18.1203 71.7831 18.1797 72.3432 18.1404 73.5765C18.1 74.8437 18.0741 74.8835 17.2549 74.936C16.4607 74.987 16.0645 74.912 15.914 74.6824C15.7713 74.4646 15.695 73.0319 15.7826 72.2141C15.8597 71.4941 15.9231 71.4528 16.9515 71.4528C17.6808 71.4528 17.8082 71.471 17.9299 71.5927ZM53.704 71.6318C53.8808 71.8085 53.883 71.8271 53.883 73.1218C53.883 73.8429 53.8525 74.513 53.8153 74.6109C53.776 74.7141 53.6489 74.8234 53.5127 74.8708C53.2124 74.9755 52.2241 74.9769 51.926 74.873C51.5881 74.7552 51.5346 74.4787 51.5624 72.9957C51.5924 71.4026 51.5545 71.4528 52.7277 71.4528C53.4771 71.4528 53.5359 71.4636 53.704 71.6318ZM23.8088 72.2151C23.982 72.3882 23.9878 72.4278 23.9878 73.423C23.9878 74.0206 23.9548 74.5136 23.909 74.5991C23.7894 74.8226 23.3907 74.9532 22.8417 74.9486C22.1384 74.9427 21.8576 74.8313 21.7497 74.5152C21.6461 74.2111 21.6302 72.9215 21.7252 72.512C21.8247 72.0828 21.9338 72.0361 22.8384 72.0361C23.5815 72.0361 23.6408 72.0471 23.8088 72.2151ZM42.0708 73.2742C42.2166 73.3663 42.2291 74.6775 42.0856 74.8215C42.0222 74.885 41.7151 74.9244 41.1559 74.9408L40.3208 74.9653V74.084V73.2028L41.1411 73.2039C41.5923 73.2045 42.0106 73.2361 42.0708 73.2742ZM69.4139 73.2742C69.5598 73.3663 69.5723 74.6775 69.4287 74.8215C69.3654 74.885 69.0583 74.9244 68.4991 74.9408L67.664 74.9653V74.084V73.2028L68.4843 73.2039C68.9355 73.2045 69.3538 73.2361 69.4139 73.2742Z" fill="white"/>
<path fill-rule="evenodd" clip-rule="evenodd" d="M3.1726 0.0693052C2.0384 0.295415 0.999651 1.06744 0.455194 2.08898C-0.0355251 3.00975 0.000787065 1.26446 0.000787065 23.9113C0.000787065 46.7087 -0.0413574 44.8294 0.491142 45.7856C0.981788 46.6667 1.83832 47.3374 2.88094 47.6569C3.30304 47.7863 4.55441 47.791 38.5 47.791C72.3799 47.791 73.6977 47.7861 74.119 47.6577C75.1598 47.3403 76.0364 46.6344 76.5087 45.7337C77.0418 44.7168 76.9992 46.6139 76.9992 23.8979C76.9992 1.32512 77.0371 3.12467 76.5403 2.11224C76.2347 1.48911 75.5847 0.840457 74.9136 0.488714C73.8881 -0.0488164 77.3025 -0.00346454 38.4635 0.00419155C19.2139 0.00798314 3.33301 0.0372954 3.1726 0.0693052ZM74.2484 1.28641C74.8621 1.57705 75.4388 2.13973 75.7276 2.72947L75.9419 3.16696V23.8749L75.9419 44.5828L75.7155 45.0604C75.308 45.9206 74.4811 46.566 73.5719 46.7335C73.3033 46.783 61.6191 46.8013 38.2445 46.7888L3.31843 46.7702L2.90624 46.6036C2.10679 46.2804 1.47499 45.6486 1.15175 44.8491L0.985142 44.4369L0.964069 24.3124C0.950142 10.9827 0.968006 3.99724 1.01708 3.62355C1.1756 2.41608 1.96038 1.50398 3.1726 1.11819C3.40731 1.04345 10.3258 1.02799 38.6094 1.03886L73.7545 1.05242L74.2484 1.28641ZM22.1822 14.7713C21.8787 14.9226 21.6777 15.177 21.5827 15.5297C21.5337 15.7119 21.5149 18.6196 21.5277 24.0695L21.5472 32.333L21.714 32.6013C21.8131 32.7607 22.01 32.932 22.1989 33.0235C22.5098 33.174 22.5883 33.177 25.605 33.1555C28.4563 33.1351 28.7236 33.1225 29.0939 32.9903C29.7268 32.7643 30.3144 32.3173 30.7754 31.7111C31.2596 31.0745 34.3277 26.9059 35.0939 25.8436L35.6198 25.1144L35.6563 27.63C35.6923 30.1133 35.6949 30.1491 35.8642 30.4213C35.9585 30.5729 36.1622 30.7616 36.317 30.8405C36.5836 30.9766 36.7562 30.984 39.609 30.9823C41.3728 30.9812 42.7522 30.95 42.9397 30.9067C43.457 30.7875 44.0141 30.4883 44.4242 30.1095C44.6348 29.9149 45.5782 28.7049 46.5207 27.4205C47.4631 26.1362 48.2587 25.0836 48.2889 25.0816C48.319 25.0796 48.3435 26.7037 48.3435 28.6909C48.3435 32.6977 48.3262 32.5466 48.83 32.9308L49.0978 33.1351H51.8871C54.6031 33.1351 54.6819 33.1311 54.8823 32.9825C54.9956 32.8986 55.1621 32.7215 55.2523 32.589L55.4163 32.3479V23.9298C55.4163 14.4714 55.4587 15.1749 54.867 14.8281L54.5554 14.6455L51.2125 14.6666L47.8696 14.6876L47.505 14.8816C47.3045 14.9883 47.0376 15.1851 46.9119 15.3191C46.7862 15.4529 45.8409 16.6945 44.8112 18.0781C43.7815 19.4617 42.9081 20.6046 42.8705 20.618C42.8286 20.6328 42.802 19.6389 42.802 18.0585C42.802 15.4991 42.8005 15.4725 42.6379 15.2337C42.5477 15.1011 42.3813 14.924 42.2681 14.8401C42.0676 14.6915 41.9786 14.687 38.8046 14.666C36.5273 14.651 35.4563 14.6696 35.2458 14.7278C34.7315 14.8698 34.3634 15.1797 33.769 15.9705C32.977 17.0243 30.8456 19.9011 29.7122 21.4464C29.1917 22.156 28.7421 22.7384 28.7131 22.7407C28.6841 22.7429 28.6513 21.0901 28.6402 19.0677C28.6205 15.484 28.6162 15.3857 28.4696 15.1895C28.387 15.0788 28.2287 14.9206 28.118 14.8379C27.9242 14.6931 27.8159 14.6869 25.1695 14.6696C22.7453 14.6538 22.394 14.6657 22.1822 14.7713ZM27.618 19.9778L27.6368 24.2473L26.8524 25.3013C26.4209 25.881 25.2805 27.4191 24.318 28.7191L22.568 31.083L22.5492 23.4686C22.5389 19.2807 22.5462 15.8128 22.5655 15.7621C22.5931 15.6898 23.1396 15.6741 25.0999 15.6892L27.5992 15.7084L27.618 19.9778ZM41.8541 19.4501V22.0531L40.4869 23.8832C39.735 24.8897 38.5948 26.4222 37.9531 27.2885C37.3115 28.155 36.7619 28.8651 36.7318 28.8667C36.7017 28.8682 36.6771 27.7009 36.6771 26.2725V23.6754L37.0639 23.1553C38.0546 21.8234 40.5316 18.4529 41.4195 17.2287C41.5984 16.9821 41.7693 16.7954 41.7994 16.8138C41.8295 16.8321 41.8541 18.0185 41.8541 19.4501Z" fill="white"/>
</svg>
