<svg width="26" height="365" viewBox="0 0 26 365" fill="none" xmlns="http://www.w3.org/2000/svg">
<line x1="13" y1="352" x2="13" y2="8" stroke="#E8331A" stroke-width="10"/>
<circle cx="12.5" cy="97.5" r="12.5" transform="rotate(-90 12.5 97.5)" fill="#F30000"/>
<circle cx="12.5" cy="97.5" r="7.5" transform="rotate(-90 12.5 97.5)" fill="white"/>
<circle cx="12.5" cy="182.5" r="12.5" transform="rotate(-90 12.5 182.5)" fill="#F30000"/>
<circle cx="12.5" cy="182.5" r="7.5" transform="rotate(-90 12.5 182.5)" fill="white"/>
<circle cx="12.5" cy="267.5" r="12.5" transform="rotate(-90 12.5 267.5)" fill="#F30000"/>
<circle cx="12.5" cy="267.5" r="7.5" transform="rotate(-90 12.5 267.5)" fill="white"/>
<circle cx="12.5" cy="352.5" r="12.5" transform="rotate(-90 12.5 352.5)" fill="#F30000"/>
<circle cx="12.5" cy="352.5" r="7.5" transform="rotate(-90 12.5 352.5)" fill="white"/>
<circle cx="13.5" cy="12.5" r="12.5" transform="rotate(-90 13.5 12.5)" fill="#F30000"/>
<circle cx="13.5" cy="12.5" r="7.5" transform="rotate(-90 13.5 12.5)" fill="white"/>
</svg>
