<svg width="57" height="57" viewBox="0 0 57 57" fill="none" xmlns="http://www.w3.org/2000/svg">
<circle cx="28.5" cy="28.5" r="28.5" fill="#A0A0A0"/>
<path d="M21.9992 12.9999C21.9992 11.8956 22.8929 11 23.9991 11H31.9985C33.1047 11 33.9984 11.8956 33.9984 12.9999V14.9997H36.9982C38.6543 14.9997 39.998 16.3427 39.998 17.9995V25.9989L42.7728 26.9238C44.2227 27.405 44.6165 29.2674 43.4915 30.2923L37.1794 36.0856C36.167 36.6668 35.0108 37.0293 33.9984 37.0293C32.7735 37.0293 31.4486 36.5481 30.2987 35.7544C28.9237 34.7857 27.0801 34.7857 25.699 35.7544C24.624 36.4918 23.3241 37.0293 21.9992 37.0293C20.9868 37.0293 19.8306 36.6668 18.8182 36.0794L12.5055 30.2923C11.3812 29.2674 11.778 27.405 13.2242 26.9238L15.9996 25.9426V17.9432C15.9996 16.3427 17.3433 14.9435 18.9994 14.9435H21.9992V12.9999ZM19.9993 24.6677L26.7364 22.4179C27.5551 22.1492 28.4425 22.1492 29.2612 22.4179L35.9983 24.6677V18.9994H19.9993V24.6677ZM33.9984 38.9979C35.6795 38.9979 37.4607 38.323 38.8356 37.3668H38.8418C39.5855 36.8356 40.5917 36.8793 41.2917 37.473C42.1854 38.2167 43.3228 38.7854 44.454 39.0479C45.5289 39.2979 46.1976 40.3791 45.9476 41.454C45.6976 42.5289 44.5665 43.1976 43.5415 42.9476C42.0104 42.5851 40.7417 41.9102 39.9043 41.3852C38.0919 42.3539 36.0608 42.9976 33.9984 42.9976C32.0048 42.9976 30.2112 42.3789 28.9737 41.8164C28.605 41.654 28.28 41.4852 27.9988 41.3352C27.7176 41.4852 27.3926 41.654 27.0239 41.8164C25.7865 42.3789 23.9928 42.9976 21.9992 42.9976C19.8806 42.9976 17.9057 42.3539 16.0934 41.3852C15.2572 41.9102 13.9866 42.5851 12.4542 42.9476C11.3787 43.1976 10.3033 42.5289 10.0526 41.454C9.80196 40.3791 10.4707 39.2979 11.5462 39.0479C12.6773 38.7854 13.8098 38.2167 14.7066 37.473C15.4034 36.8793 16.4121 36.8356 17.1558 37.3668H17.162C18.5432 38.323 20.3181 38.9979 21.9992 38.9979C23.7178 38.9979 25.4365 38.3355 26.8426 37.3668C27.5363 36.8731 28.4613 36.8731 29.155 37.3668C30.5049 38.3355 32.2798 38.9979 33.9984 38.9979Z" fill="white"/>
</svg>
