<svg width="64" height="64" viewBox="0 0 64 64" fill="none" xmlns="http://www.w3.org/2000/svg">
<rect width="63.5692" height="63.5692" rx="31.7846" fill="#E8331A"/>
<path d="M43.3288 18.4956C42.9677 18.5219 42.6132 18.6066 42.2792 18.7465H42.2747C41.9541 18.8736 40.4297 19.5149 38.1122 20.4869L29.8074 23.9845C23.8483 26.4932 17.9904 28.9637 17.9904 28.9637L18.0602 28.9367C18.0602 28.9367 17.6563 29.0695 17.2344 29.3586C16.9738 29.5245 16.7495 29.7415 16.5752 29.9965C16.3682 30.3002 16.2017 30.7649 16.2636 31.2452C16.3648 32.0575 16.8913 32.5446 17.2693 32.8135C17.6518 33.0857 18.0163 33.2129 18.0163 33.2129H18.0253L23.5187 35.0635C23.7651 35.8544 25.1927 40.5479 25.5358 41.629C25.7383 42.2747 25.9352 42.6786 26.1816 42.9869C26.3008 43.1444 26.4403 43.276 26.6079 43.3817C26.6951 43.4324 26.788 43.4725 26.8847 43.501L26.8284 43.4875C26.8453 43.492 26.8588 43.5055 26.8712 43.51C26.9162 43.5224 26.9466 43.5269 27.0039 43.5359C27.8736 43.7991 28.5722 43.2591 28.5722 43.2591L28.6116 43.2276L31.8549 40.2745L37.2909 44.4449L37.4147 44.4977C38.5476 44.995 39.6951 44.7182 40.3014 44.23C40.9123 43.7384 41.1497 43.1095 41.1497 43.1095L41.1891 43.0082L45.3898 21.4881C45.5091 20.9571 45.5394 20.4599 45.4078 19.9772C45.2721 19.4888 44.9587 19.0687 44.5292 18.7994C44.1685 18.5801 43.7503 18.4743 43.3288 18.4956V18.4956ZM43.2152 20.8019C43.2107 20.8727 43.2242 20.8649 43.1927 21.001V21.0134L39.0313 42.3096C39.0133 42.34 38.9829 42.4064 38.8997 42.4727C38.8119 42.5425 38.7422 42.5864 38.3766 42.4412L31.7278 37.3439L27.7116 41.0046L28.5553 35.6159L39.4183 25.4909C39.8661 25.0746 39.7164 24.9869 39.7164 24.9869C39.7479 24.4761 39.0403 24.8372 39.0403 24.8372L25.3423 33.3231L25.3378 33.3006L18.7723 31.09V31.0855L18.7554 31.0821C18.767 31.0783 18.7782 31.0738 18.7892 31.0686L18.8252 31.0506L18.8601 31.0382C18.8601 31.0382 24.7224 28.5677 30.6816 26.059C33.6651 24.8024 36.6711 23.5367 38.9829 22.5602C40.354 21.9831 41.7265 21.4094 43.1004 20.839C43.1927 20.803 43.1488 20.803 43.2152 20.803V20.8019Z" fill="white"/>
</svg>
