<svg width="64" height="65" viewBox="0 0 64 65" fill="none" xmlns="http://www.w3.org/2000/svg">
<rect x="0.164062" y="0.621094" width="63.5692" height="63.5692" rx="31.7846" fill="#E8331A"/>
<path fill-rule="evenodd" clip-rule="evenodd" d="M15.0097 22.9079C14.8937 22.9594 14.7196 23.0873 14.623 23.1921C13.7977 24.0864 15.8827 29.4262 18.9147 34.1836C20.4291 36.5599 21.6244 38.1002 22.9646 39.4023C24.8115 41.197 26.7479 42.4182 28.8634 43.1223C30.2058 43.5691 30.9341 43.6969 32.3769 43.7387C34.1287 43.7894 34.8632 43.6279 35.2523 43.1064C35.394 42.9165 35.4019 42.8072 35.4373 40.54C35.4687 38.5319 35.4923 38.1317 35.5921 37.9078C35.7407 37.5746 35.966 37.4844 36.5676 37.5172C37.722 37.5801 39.3448 38.8068 41.9373 41.5763C42.6983 42.3891 43.4746 43.1672 43.6628 43.3052C44.2879 43.7642 44.3404 43.7708 47.1505 43.7475C49.6322 43.7269 49.678 43.724 49.93 43.5672C50.5188 43.2011 50.5517 42.5845 50.0371 41.56C49.4378 40.3668 48.1063 38.7514 45.6144 36.1943C44.8182 35.3772 44.1165 34.6115 44.0551 34.4926C43.9935 34.3738 43.9433 34.1332 43.9433 33.9581C43.9433 33.675 44.0063 33.5477 44.5108 32.812C47.8047 28.009 49.23 25.5951 49.57 24.2442C49.7605 23.4868 49.6818 23.2 49.2194 22.9668C48.9122 22.8119 48.8554 22.8086 46.4854 22.8086C44.8519 22.8086 43.9765 22.8351 43.7927 22.8902C43.3579 23.0204 43.0034 23.3774 42.7406 23.9496C41.4524 26.7542 40.0335 29.1733 38.6661 30.8963C38.0722 31.6447 37.0886 32.5953 36.7063 32.7903C36.0958 33.1017 35.6644 32.9369 35.5127 32.3342C35.461 32.1289 35.435 30.638 35.4339 27.8224C35.4324 23.8434 35.4252 23.6014 35.2988 23.323C35.0583 22.7933 35.178 22.8086 31.273 22.8089C27.9202 22.8091 27.799 22.8138 27.5738 22.951C27.2901 23.124 27.1106 23.5164 27.1702 23.8337C27.1938 23.9596 27.4044 24.3104 27.6383 24.6133C28.1703 25.3024 28.3767 25.7022 28.5494 26.3774C28.675 26.8682 28.6855 27.1779 28.685 30.396C28.6848 32.5785 28.6575 33.9807 28.6121 34.1444C28.3575 35.0612 27.3375 34.642 26.101 33.1123C24.4848 31.1131 22.9511 28.1899 21.4461 24.2399C21.1674 23.5086 20.8825 23.1157 20.5073 22.9454C20.2354 22.822 20.0211 22.8118 17.7167 22.8129C15.7911 22.8138 15.1724 22.8355 15.0097 22.9079Z" stroke="white" stroke-width="2"/>
</svg>
