<svg width="64" height="64" viewBox="0 0 64 64" fill="none" xmlns="http://www.w3.org/2000/svg">
<rect width="63.5692" height="63.5692" rx="31.7846" fill="#E8331A"/>
<path d="M36.5208 33.1628C36.7014 33.1628 37.3785 33.4755 38.5521 34.1008C39.7257 34.7261 40.3472 35.1027 40.4167 35.2306C40.4444 35.3017 40.4583 35.4083 40.4583 35.5504C40.4583 36.0194 40.3403 36.5594 40.1042 37.1705C39.8819 37.7248 39.3889 38.1902 38.625 38.5669C37.8611 38.9435 37.1528 39.1318 36.5 39.1318C35.7083 39.1318 34.3889 38.6912 32.5417 37.8101C31.1806 37.1705 30 36.332 29 35.2946C28 34.2571 26.9722 32.9425 25.9167 31.3508C24.9167 29.8301 24.4236 28.4516 24.4375 27.2151V27.0446C24.4792 25.7513 24.9931 24.6286 25.9792 23.6764C26.3125 23.3637 26.6736 23.2074 27.0625 23.2074C27.1458 23.2074 27.2708 23.218 27.4375 23.2393C27.6042 23.2607 27.7361 23.2713 27.8333 23.2713C28.0972 23.2713 28.2813 23.3175 28.3854 23.4099C28.4896 23.5023 28.5972 23.6977 28.7083 23.9961C28.8194 24.2804 29.0486 24.9057 29.3958 25.8721C29.7431 26.8385 29.9167 27.3714 29.9167 27.4709C29.9167 27.7694 29.6771 28.178 29.1979 28.6967C28.7188 29.2154 28.4792 29.5459 28.4792 29.688C28.4792 29.7875 28.5139 29.8941 28.5833 30.0078C29.0556 31.0452 29.7639 32.0187 30.7083 32.9283C31.4861 33.6815 32.5347 34.3992 33.8542 35.0814C34.0208 35.1809 34.1736 35.2306 34.3125 35.2306C34.5208 35.2306 34.8958 34.886 35.4375 34.1967C35.9792 33.5074 36.3403 33.1628 36.5208 33.1628ZM32.2917 44.4612C34.0556 44.4612 35.7465 44.1059 37.3646 43.3953C38.9826 42.6848 40.375 41.7326 41.5417 40.5388C42.7083 39.345 43.6389 37.9202 44.3333 36.2645C45.0278 34.6089 45.375 32.8786 45.375 31.0736C45.375 29.2687 45.0278 27.5384 44.3333 25.8828C43.6389 24.2271 42.7083 22.8023 41.5417 21.6085C40.375 20.4147 38.9826 19.4625 37.3646 18.7519C35.7465 18.0413 34.0556 17.686 32.2917 17.686C30.5278 17.686 28.8368 18.0413 27.2188 18.7519C25.6007 19.4625 24.2083 20.4147 23.0417 21.6085C21.875 22.8023 20.9444 24.2271 20.25 25.8828C19.5556 27.5384 19.2083 29.2687 19.2083 31.0736C19.2083 33.9587 20.0417 36.5736 21.7083 38.9186L20.0625 43.8857L25.1042 42.2442C27.2986 43.7222 29.6944 44.4612 32.2917 44.4612ZM32.2917 15C34.4167 15 36.4479 15.4264 38.3854 16.2791C40.3229 17.1318 41.9931 18.2758 43.3958 19.7112C44.7986 21.1466 45.9167 22.8556 46.75 24.8382C47.5833 26.8207 48 28.8992 48 31.0736C48 33.2481 47.5833 35.3266 46.75 37.3091C45.9167 39.2917 44.7986 41.0006 43.3958 42.436C41.9931 43.8714 40.3229 45.0155 38.3854 45.8682C36.4479 46.7209 34.4167 47.1473 32.2917 47.1473C29.5833 47.1473 27.0486 46.4793 24.6875 45.1434L16 48L18.8333 39.3663C17.3333 36.8366 16.5833 34.0724 16.5833 31.0736C16.5833 28.8992 17 26.8207 17.8333 24.8382C18.6667 22.8556 19.7847 21.1466 21.1875 19.7112C22.5903 18.2758 24.2604 17.1318 26.1979 16.2791C28.1354 15.4264 30.1667 15 32.2917 15Z" fill="white"/>
</svg>
