<svg width="40" height="40" fill="none" xmlns="http://www.w3.org/2000/svg"><circle cx="20" cy="20" r="20" fill="#A0A0A0"/><path d="M15.438 9.123c0-.775.627-1.404 1.403-1.404h5.614c.776 0 1.404.629 1.404 1.404v1.403h2.105c1.162 0 2.105.943 2.105 2.105v5.614l1.947.649a1.4 1.4 0 01.504 2.364l-4.43 4.065c-.71.408-1.521.662-2.231.662-.86 0-1.79-.337-2.597-.894a2.81 2.81 0 00-3.228 0c-.754.517-1.666.894-2.596.894-.71 0-1.522-.254-2.232-.666l-4.43-4.061c-.79-.72-.51-2.026.504-2.364l1.948-.689v-5.613c0-1.123.943-2.105 2.105-2.105h2.105V9.123zm-1.403 8.188l4.727-1.58a2.845 2.845 0 011.772 0l4.728 1.58v-3.978H14.035v3.978zm9.824 10.056c1.18 0 2.43-.474 3.394-1.145h.005a1.398 1.398 0 011.719.075 5.511 5.511 0 002.219 1.105 1.407 1.407 0 011.048 1.688c-.175.755-.97 1.224-1.689 1.049-1.074-.255-1.964-.728-2.552-1.097-1.272.68-2.697 1.132-4.144 1.132-1.4 0-2.658-.434-3.527-.83a9.987 9.987 0 01-.684-.337 9.982 9.982 0 01-.684.338c-.868.395-2.127.829-3.526.829-1.487 0-2.873-.452-4.144-1.132-.587.369-1.479.842-2.554 1.097a1.404 1.404 0 01-.637-2.737 5.52 5.52 0 002.217-1.105 1.397 1.397 0 011.72-.075h.004c.969.671 2.214 1.145 3.394 1.145 1.206 0 2.412-.465 3.399-1.145a1.397 1.397 0 011.623 0c.947.68 2.192 1.145 3.399 1.145z" fill="#fff"/></svg>