<svg width="873" height="1056" fill="none" xmlns="http://www.w3.org/2000/svg"><path d="M10.5 25H.5V5h10v20zM686 237.501l-9.699 2.436 9.699-2.436zm-21 369.998l9.88 1.541-9.88-1.541zM873 1055.5c-1.026 0-2.05 0-3.073-.01l.112-20c.985.01 1.972.01 2.961.01v20zm-9.195-.08c-2.04-.04-4.074-.08-6.102-.14l.6-20c1.941.06 3.892.11 5.85.14l-.348 20zm-12.253-.37c-2.044-.09-4.081-.19-6.111-.31l1.158-19.97c1.932.12 3.873.21 5.824.3l-.871 19.98zm-12.27-.71c-2.051-.16-4.095-.32-6.132-.51l1.795-19.92c1.924.18 3.859.34 5.804.48l-1.467 19.95zm-12.278-1.11a305.95 305.95 0 01-6.145-.72l2.515-19.84c1.913.24 3.837.46 5.773.67l-2.143 19.89zm-12.273-1.56c-2.058-.3-4.107-.63-6.146-.97l3.326-19.72c1.896.32 3.806.62 5.728.9l-2.908 19.79zm-12.247-2.07c-2.054-.39-4.098-.81-6.13-1.25l4.233-19.55c1.873.41 3.761.79 5.662 1.16l-3.765 19.64zm-12.194-2.64c-2.042-.5-4.072-1.02-6.089-1.57l5.237-19.3c1.842.5 3.7.98 5.573 1.43l-4.721 19.44zm-12.107-3.29c-2.016-.61-4.02-1.24-6.01-1.91l6.339-18.97c1.799.6 3.614 1.18 5.446 1.73l-5.775 19.15zm-11.949-3.99c-1.981-.74-3.948-1.5-5.9-2.29l7.525-18.53c1.748.71 3.513 1.39 5.296 2.05l-6.921 18.77zm-11.723-4.77c-1.933-.86-3.851-1.76-5.751-2.68l8.781-17.97c1.687.82 3.392 1.62 5.116 2.39l-8.146 18.26zm-11.412-5.58c-1.871-1-3.724-2.03-5.558-3.1l10.079-17.28c1.616.95 3.252 1.86 4.906 2.74l-9.427 17.64zm-11.007-6.42a171.106 171.106 0 01-5.316-3.53l11.382-16.45c1.537 1.07 3.092 2.1 4.667 3.1l-10.733 16.88zm-10.5-7.27a169.254 169.254 0 01-5.029-3.94l12.651-15.494a142.462 142.462 0 004.402 3.45l-12.024 15.984zm-9.899-8.09c-1.589-1.4-3.157-2.85-4.703-4.33l13.846-14.434a140.59 140.59 0 004.117 3.795l-13.26 14.969zm-9.218-8.838a165.58 165.58 0 01-4.352-4.698l14.935-13.303a142.404 142.404 0 003.821 4.126l-14.404 13.875zm-8.482-9.517a170.468 170.468 0 01-3.991-5.03l15.897-12.137a148.103 148.103 0 003.523 4.441l-15.429 12.726zm-7.721-10.103a180.33 180.33 0 01-3.601-5.281l16.72-10.975a158.989 158.989 0 003.203 4.698l-16.322 11.558zm-6.963-10.597a195.679 195.679 0 01-3.205-5.459l17.409-9.845a176.248 176.248 0 002.875 4.898l-17.079 10.406zm-6.231-11.014c-.96-1.828-1.9-3.687-2.821-5.576l17.977-8.765a187.109 187.109 0 002.553 5.047l-17.709 9.294zm-5.527-11.337a232.625 232.625 0 01-2.473-5.672l18.439-7.748c.737 1.756 1.49 3.482 2.257 5.179l-18.223 8.241zm-4.824-11.479a252.072 252.072 0 01-2.213-5.896l18.809-6.798a229.51 229.51 0 002.038 5.428l-18.634 7.266zm-4.236-11.703a281.994 281.994 0 01-1.925-5.964l19.101-5.929a264.67 264.67 0 001.786 5.534l-18.962 6.359zm-3.704-11.922a307.846 307.846 0 01-1.633-5.912l19.33-5.134c.496 1.868 1.005 3.71 1.526 5.526l-19.223 5.52zm-3.178-11.97a334.798 334.798 0 01-1.414-6.015l19.511-4.397c.43 1.91.874 3.796 1.329 5.657l-19.426 4.755zm-2.704-11.979c-.416-2.01-.82-4.043-1.21-6.097l19.649-3.73c.37 1.946.751 3.868 1.145 5.767l-19.584 4.06zm-2.316-12.191a418.07 418.07 0 01-.989-5.973l19.755-3.121c.303 1.914.616 3.807.941 5.679l-19.707 3.415zm-1.906-12.067c-.293-2.05-.574-4.12-.844-6.211l19.836-2.554c.258 1.998.527 3.976.807 5.931l-19.799 2.834zm-1.57-12.159c-.232-2-.453-4.019-.662-6.057l19.894-2.049c.202 1.956.413 3.891.635 5.808l-19.867 2.298zm-1.259-12.224a524.272 524.272 0 01-.518-6.107l19.938-1.575c.156 1.978.322 3.936.498 5.877l-19.918 1.805zm-.958-12.102a589.666 589.666 0 01-.382-6.096l19.967-1.145c.114 1.979.237 3.94.369 5.884l-19.954 1.357zm-.705-12.292a633.57 633.57 0 01-.254-6.049l19.986-.743c.073 1.968.156 3.919.246 5.854l-19.978.938zm-.449-12.054c-.057-2.018-.104-4.05-.143-6.097l19.997-.377c.037 1.988.083 3.959.138 5.915l-19.992.559zm-.232-12.286a711.42 711.42 0 01-.035-6.053l20-.033c.003 1.977.015 3.939.034 5.886l-19.999.2zm-.021-12.039c.013-2.01.033-4.033.062-6.07l19.998.281a742.411 742.411 0 00-.06 5.914l-20-.125zm.172-12.224c.044-2.028.096-4.07.155-6.126l19.992.58a835.06 835.06 0 00-.152 5.98l-19.995-.434zm.348-12.07c.072-1.995.151-4.002.237-6.021l19.981.851a891.777 891.777 0 00-.231 5.886l-19.987-.716zm.516-12.118c.101-2.045.209-4.103.324-6.174l19.969 1.112a971.624 971.624 0 00-.317 6.044l-19.976-.982zm.676-12.157c.121-1.974.25-3.959.385-5.955l19.954 1.349a998.397 998.397 0 00-.377 5.838l-19.962-1.232zm.809-11.98c.149-2.019.303-4.051.465-6.094l19.938 1.576c-.159 2.006-.311 4-.456 5.982l-19.947-1.464zm.969-12.258c.166-1.963.338-3.937.516-5.922l19.92 1.789c-.175 1.95-.344 3.89-.507 5.818l-19.929-1.685zm1.065-11.862c.189-1.991.383-3.992.584-6.004l19.901 1.986c-.197 1.98-.389 3.948-.575 5.906l-19.91-1.888zm1.205-12.072c.213-2.033.432-4.077.657-6.132l19.881 2.178c-.222 2.023-.437 4.036-.647 6.037l-19.891-2.083zm1.321-12.075c.224-1.959.453-3.928.687-5.906l19.861 2.353c-.231 1.95-.457 3.89-.677 5.82l-19.871-2.267zm1.407-11.871c.245-1.998.496-4.006.752-6.023l19.841 2.522c-.253 1.99-.501 3.969-.742 5.939l-19.851-2.438zm1.538-12.105c.264-2.007.533-4.023.807-6.049l19.819 2.684c-.271 1.999-.536 3.989-.796 5.969l-19.83-2.604zm1.611-11.906c.274-1.962.552-3.932.835-5.911l19.798 2.832c-.279 1.955-.554 3.901-.824 5.837l-19.809-2.758zm1.699-11.876c.294-1.997.592-4.003.895-6.018l19.777 2.978c-.299 1.991-.594 3.973-.884 5.946l-19.788-2.906zm1.821-12.09c.156-1.016.314-2.035.474-3.056l19.76 3.083-.468 3.021-19.766-3.048zm.474-3.056l.463-2.961 19.758 3.105-.461 2.939-19.76-3.083zm1.408-8.931c.314-1.972.631-3.955.951-5.947l19.747 3.176c-.319 1.982-.635 3.954-.947 5.915l-19.751-3.144zm1.915-11.917l.965-5.931 19.739 3.22c-.323 1.98-.643 3.951-.961 5.912l-19.743-3.201zm1.94-11.896l.971-5.922 19.736 3.24-.97 5.914-19.737-3.232zm1.949-11.874l.972-5.923 19.736 3.238-.973 5.926-19.735-3.241zm1.946-11.867c.322-1.969.645-3.943.967-5.923l19.74 3.217-.97 5.936-19.737-3.23zm1.932-11.861c.32-1.969.638-3.943.957-5.923l19.746 3.178-.96 5.945-19.743-3.2zm1.908-11.856c.314-1.97.628-3.945.94-5.923l19.755 3.121a3418.05 3418.05 0 01-.945 5.953l-19.75-3.151zm1.872-11.854c.308-1.97.614-3.945.919-5.923l19.767 3.047c-.307 1.992-.616 3.98-.925 5.963l-19.761-3.087zm1.827-11.852c.3-1.972.597-3.947.893-5.924l19.78 2.958c-.298 1.993-.598 3.984-.9 5.97l-19.773-3.004zm1.772-11.853c.29-1.973.577-3.948.862-5.925l19.796 2.852c-.288 1.996-.578 3.989-.87 5.98l-19.788-2.907zm1.708-11.855c.278-1.973.553-3.948.826-5.926l19.813 2.73c-.276 1.999-.554 3.996-.835 5.989l-19.804-2.793zm1.633-11.856c.265-1.975.527-3.951.785-5.928l19.832 2.592c-.262 2.001-.527 4.001-.795 5.999l-19.822-2.663zm1.549-11.859c.25-1.976.497-3.953.74-5.93l19.851 2.436a1471.44 1471.44 0 01-.75 6.01l-19.841-2.516zm1.455-11.862c.234-1.978.464-3.955.689-5.932l19.872 2.262c-.229 2.008-.462 4.015-.7 6.021l-19.861-2.351zm1.351-11.866c.215-1.978.426-3.957.632-5.934l19.893 2.071c-.21 2.011-.424 4.022-.643 6.033l-19.882-2.17zm1.235-11.868c.196-1.98.386-3.959.571-5.937l19.913 1.86c-.188 2.015-.382 4.03-.581 6.045l-19.903-1.968zm1.108-11.871c.174-1.981.342-3.961.504-5.939l19.933 1.629c-.165 2.019-.336 4.038-.513 6.058l-19.924-1.748zm.97-11.872c.15-1.982.293-3.963.429-5.941l19.953 1.376a898.363 898.363 0 01-.439 6.071l-19.943-1.506zm.818-11.872c.123-1.983.24-3.964.348-5.941l19.97 1.098c-.111 2.026-.23 4.054-.356 6.083l-19.962-1.24zm.653-11.87a803 803 0 00.26-5.941l19.984.796c-.081 2.03-.17 4.061-.267 6.095l-19.977-.95zm.472-11.866c.063-1.983.117-3.963.163-5.938l19.995.466a739.054 739.054 0 01-.168 6.106l-19.99-.634zm.275-11.858c.029-1.982.049-3.96.059-5.932l20 .105a658.758 658.758 0 01-.061 6.116l-19.998-.289zm.062-11.846c-.009-1.98-.027-3.954-.056-5.923l19.998-.289c.03 2.037.049 4.079.058 6.125l-20 .087zm-.172-11.827a519.877 519.877 0 00-.18-5.91l19.987-.719c.074 2.038.136 4.081.187 6.13l-19.994.499zm-.425-11.803a488.056 488.056 0 00-.316-5.891l19.965-1.189c.121 2.038.231 4.082.328 6.132l-19.977.948zm-.702-11.768a440.981 440.981 0 00-.463-5.867l19.928-1.703c.174 2.037.335 4.08.483 6.13l-19.948 1.44zm-1.003-11.723a411.739 411.739 0 00-.622-5.834l19.871-2.264c.232 2.032.449 4.073.653 6.12l-19.902 1.978zm-1.331-11.664a372.381 372.381 0 00-.795-5.792l19.792-2.878c.295 2.027.574 4.062.838 6.105l-19.835 2.565zm-1.687-11.587c-.312-1.926-.64-3.841-.983-5.744l19.682-3.549c.364 2.02.712 4.048 1.043 6.086l-19.742 3.207zm-2.074-11.491c-.38-1.91-.777-3.808-1.19-5.694l19.536-4.282c.441 2.013.864 4.035 1.269 6.068l-19.615 3.908zm-2.493-11.368c-.226-.939-.455-1.875-.69-2.807l19.398-4.873c.251 1 .497 2.002.739 3.008l-19.447 4.672zm-.69-2.807c-.243-.968-.49-1.932-.741-2.891l19.347-5.069c.268 1.025.532 2.054.792 3.087l-19.398 4.873zm-2.298-8.594a286.687 286.687 0 00-1.652-5.6l19.122-5.86a297.08 297.08 0 011.77 5.997l-19.24 5.463zm-3.399-11.098a270.092 270.092 0 00-1.854-5.431l18.859-6.661a289.302 289.302 0 011.99 5.834l-18.995 6.258zm-3.881-10.973a261.01 261.01 0 00-2.126-5.434l18.54-7.499a276.8 276.8 0 012.291 5.853l-18.705 7.08zm-4.351-10.76a250.442 250.442 0 00-2.323-5.221l18.179-8.338a267.271 267.271 0 012.509 5.64l-18.365 7.919zm-4.833-10.526a240.263 240.263 0 00-2.614-5.2l17.759-9.199a266.36 266.36 0 012.83 5.629l-17.975 8.77zm-5.329-10.29a239.498 239.498 0 00-2.814-4.982l17.293-10.046a252.158 252.158 0 013.052 5.403l-17.531 9.625zm-5.809-9.993a233.947 233.947 0 00-3.1-4.905l16.772-10.895a249.941 249.941 0 013.366 5.327l-17.038 10.473zm-6.301-9.701a230.236 230.236 0 00-3.304-4.694l16.209-11.715a252.743 252.743 0 013.591 5.1L640.1 158.002zm-6.771-9.365a228.332 228.332 0 00-3.567-4.562l15.601-12.515a249.043 249.043 0 013.876 4.957l-15.91 12.12zm-7.233-9.017a228.557 228.557 0 00-3.774-4.361l14.96-13.274a255.154 255.154 0 014.098 4.735l-15.284 12.9zm-7.677-8.652a236.226 236.226 0 00-4.001-4.186l14.288-13.994a251.618 251.618 0 014.339 4.54l-14.626 13.64zm-8.098-8.269a242.97 242.97 0 00-4.197-3.986l13.599-14.665a260.395 260.395 0 014.544 4.316l-13.946 14.335zm-8.495-7.878a243.89 243.89 0 00-4.39-3.792l12.898-15.286a274.037 274.037 0 014.742 4.096l-13.25 14.982zm-8.871-7.486a256.87 256.87 0 00-4.56-3.589l12.193-15.853a280.804 280.804 0 014.912 3.865l-12.545 15.577zm-9.202-7.078a268.965 268.965 0 00-4.728-3.396l11.492-16.37a293.856 293.856 0 015.078 3.648l-11.842 16.118zm-9.541-6.7a282.683 282.683 0 00-4.858-3.187l10.801-16.833c1.746 1.12 3.48 2.258 5.201 3.413l-11.144 16.607zm-9.792-6.284a301.897 301.897 0 00-5.012-3.008l10.125-17.248a317.749 317.749 0 015.348 3.21L564.42 87.274zm-10.097-5.928a312.57 312.57 0 00-5.102-2.803l9.469-17.616c1.82.978 3.629 1.972 5.426 2.981l-9.793 17.438zm-10.276-5.524a334.416 334.416 0 00-5.245-2.64l8.835-17.942a343.54 343.54 0 015.559 2.798l-9.149 17.784zm-10.542-5.192a353.3 353.3 0 00-5.304-2.446l8.227-18.23c1.878.848 3.746 1.71 5.603 2.585l-8.526 18.091zm-10.671-4.816a379.36 379.36 0 00-5.43-2.296l7.644-18.481c1.916.792 3.822 1.598 5.719 2.417l-7.933 18.36zm-10.895-4.507a401.636 401.636 0 00-5.464-2.117l7.09-18.701a420.28 420.28 0 015.736 2.222l-7.362 18.596zm-10.983-4.164a423.94 423.94 0 00-5.574-1.979l6.561-18.893c1.953.678 3.898 1.368 5.835 2.071l-6.822 18.8zm-11.173-3.88a451.1 451.1 0 00-5.588-1.817l6.059-19.06c1.952.62 3.897 1.253 5.835 1.897l-6.306 18.98zm-11.225-3.57a487.98 487.98 0 00-5.684-1.69l5.584-19.205a503.02 503.02 0 015.919 1.76l-5.819 19.135zm-11.39-3.313a514.6 514.6 0 00-5.686-1.545l5.135-19.33c1.975.525 3.944 1.06 5.907 1.606l-5.356 19.27zm-11.413-3.032a544.195 544.195 0 00-5.766-1.43l4.71-19.438c1.997.484 3.99.978 5.976 1.483l-4.92 19.385zm-11.558-2.801a583.833 583.833 0 00-5.76-1.301l4.308-19.53c1.991.439 3.977.887 5.958 1.345l-4.506 19.486zm-11.555-2.55c-1.937-.407-3.88-.806-5.828-1.196l3.929-19.61c2.01.402 4.015.814 6.015 1.234l-4.116 19.572zm-11.688-2.342c-1.934-.369-3.874-.73-5.818-1.083l3.571-19.678c2.002.363 4 .735 5.994 1.115l-3.747 19.646zm-11.665-2.118a704.65 704.65 0 00-5.873-.987l3.234-19.737c2.017.33 4.03.669 6.04 1.016l-3.401 19.708zm-11.772-1.929c-1.955-.304-3.914-.6-5.877-.89l2.915-19.786c2.015.297 4.026.601 6.034.913l-3.072 19.763zm-11.763-1.734a796.157 796.157 0 00-5.907-.801l2.615-19.828c2.021.266 4.04.54 6.055.821l-2.763 19.808zm-11.835-1.561a851.83 851.83 0 00-5.922-.716l2.332-19.864a920.2 920.2 0 016.062.733l-2.472 19.847zm-11.839-1.39c-1.975-.219-3.953-.43-5.933-.636l2.066-19.893c2.023.21 4.044.426 6.064.65l-2.197 19.879zm-11.88-1.234c-1.983-.193-3.968-.38-5.954-.561l1.814-19.918c2.027.185 4.053.376 6.077.573L350.2 25.688zm-11.897-1.084a1024.91 1024.91 0 00-5.954-.489l1.578-19.937c2.024.16 4.047.326 6.07.498l-1.694 19.928zm-11.917-.943c-1.989-.146-3.979-.287-5.97-.422l1.354-19.954c2.028.138 4.054.28 6.081.43l-1.465 19.946zm-11.937-.81c-1.99-.125-3.98-.245-5.971-.359l1.145-19.967c2.025.116 4.05.237 6.074.364l-1.248 19.961zm-11.947-.686a1239.05 1239.05 0 00-5.978-.299l.949-19.977c2.025.096 4.05.197 6.075.303l-1.046 19.973zm-11.962-.569c-1.996-.085-3.992-.166-5.988-.242l.765-19.986c2.025.078 4.051.16 6.078.246l-.855 19.982zm-11.974-.458c-1.996-.068-3.991-.13-5.985-.19l.592-19.991c2.022.06 4.045.124 6.069.192l-.676 19.989zm-11.974-.355a1507.68 1507.68 0 00-6.004-.141l.431-19.995c2.026.043 4.054.09 6.083.143l-.51 19.993zm-12.002-.259c-1.998-.035-3.995-.067-5.991-.095L248.88.431c2.02.029 4.041.06 6.065.097l-.355 19.996zm-11.974-.168c-2.008-.021-4.015-.039-6.02-.053l.142-20c2.027.015 4.057.033 6.088.054l-.21 19.999zm-12.03-.086a1937 1937 0 00-5.998-.013l.013-20c2.018.001 4.038.006 6.061.014l-.076 20zm-11.983-.008a2077.4 2077.4 0 00-6.02.023l-.104-20c2.023-.01 4.049-.018 6.078-.023l.046 20zm-12.043.063c-2.005.016-4.007.034-6.006.056l-.211-20c2.015-.02 4.035-.04 6.058-.056l.159 20zm-11.992.126c-2.008.027-4.013.055-6.014.086L188.246.54c2.016-.03 4.036-.06 6.06-.086l.262 19.998zm-12.052.186c-2.009.035-4.013.073-6.014.112L176.107.753c2.014-.04 4.033-.077 6.056-.113l.353 19.997zm-12.004.236c-2.006.044-4.007.09-6.004.136l-.47-19.995c2.009-.047 4.023-.092 6.041-.136l.433 19.995zm-12.058.283c-2.013.05-4.02.103-6.023.156l-.533-19.993c2.012-.053 4.03-.106 6.054-.157l.502 19.994zm-12.014.32c-2.006.056-4.006.114-6 .172l-.584-19.991c2.001-.059 4.009-.117 6.024-.173l.56 19.992zm-12.068.353c-2.017.061-4.027.123-6.031.186l-.624-19.99c2.009-.064 4.026-.126 6.049-.187l.606 19.99zm-12.022.375l-6.005.194-.65-19.99 6.016-.194.639 19.99zm-12.087.392l-6.035.2-.661-19.99 6.039-.199.657 19.99zm-12.021.398l-6.031.2-.658-19.99 6.027-.199.662 19.989zm-12.12.398c-2.021.066-4.032.13-6.033.194l-.635-19.99c1.996-.063 4.002-.128 6.019-.193l.648 19.99zm-12.007.381c-2.04.063-4.07.125-6.089.185l-.593-19.991c2.01-.06 4.032-.121 6.065-.184l.617 19.99zm-12.176.361c-2.018.057-4.023.112-6.017.165l-.529-19.993c1.981-.053 3.975-.107 5.982-.164l.564 19.992zm-12.006.317c-2.063.05-4.114.098-6.15.142l-.437-19.995c2.019-.044 4.052-.091 6.1-.141l.487 19.994zm-12.217.266c-2.008.038-4.002.073-5.981.104L31.42 4.824c1.956-.031 3.928-.066 5.916-.103l.379 19.996zm-12.114.189c-2.056.024-4.096.044-6.119.06l-.15-20c1.992-.015 4.003-.035 6.032-.059l.237 19.999zm-12.135.09C12.474 25 11.486 25 10.5 25V5c.967 0 1.938 0 2.915-.003l.053 20z" fill="silver"/></svg>