<svg width="83" height="66" fill="none" xmlns="http://www.w3.org/2000/svg"><path d="M0 66v-5.368c8.054-2.765 14.271-7.076 18.65-12.931 4.458-5.775 6.686-11.915 6.686-18.422 0-1.545-.351-2.846-1.055-3.904-.548-.732-1.095-1.098-1.642-1.098-.86 0-2.738.814-5.63 2.44a9.53 9.53 0 01-4.458 1.098c-3.832 0-6.882-1.18-9.15-3.538C1.135 21.92 0 18.665 0 14.517c0-3.985 1.447-7.4 4.34-10.247C7.312 1.423 10.909 0 15.131 0c5.162 0 9.736 2.359 13.724 7.076 4.067 4.636 6.1 10.817 6.1 18.543 0 8.377-2.815 16.144-8.446 23.301C20.957 56.16 12.121 61.852 0 66zm48.045 0v-5.368c8.055-2.765 14.271-7.076 18.65-12.931 4.458-5.775 6.687-11.915 6.687-18.422 0-1.545-.352-2.846-1.056-3.904-.547-.732-1.095-1.098-1.642-1.098-.86 0-2.737.814-5.63 2.44a9.529 9.529 0 01-4.458 1.098c-3.832 0-6.881-1.18-9.15-3.538-2.267-2.358-3.4-5.612-3.4-9.76 0-3.985 1.446-7.4 4.34-10.247C55.355 1.423 58.953 0 63.175 0c5.162 0 9.736 2.359 13.724 7.076 4.067 4.636 6.1 10.817 6.1 18.543 0 8.377-2.815 16.144-8.445 23.301C69.002 56.16 60.166 61.852 48.045 66z" fill="#E8331A"/></svg>