<svg width="66" height="25" fill="none" xmlns="http://www.w3.org/2000/svg"><path d="M8.527 1.051A1.905 1.905 0 007.105.767a1.874 1.874 0 00-1.2.8L4.863 3.135a.625.625 0 00-.091.472c.033.164.13.308.27.4.42.28.711.711.812 1.202A1.874 1.874 0 014.38 7.424a1.904 1.904 0 01-1.422-.284.635.635 0 00-.474-.095.625.625 0 00-.4.267L1.042 8.879a1.874 1.874 0 00-.274 1.415c.1.49.392.923.811 1.202L15.266 20.6c.42.279.93.381 1.422.284a1.874 1.874 0 001.2-.8l1.042-1.567a.625.625 0 00.091-.471.635.635 0 00-.27-.401 1.904 1.904 0 01-.812-1.202 1.874 1.874 0 011.474-2.215 1.904 1.904 0 011.422.284.63.63 0 00.474.094.625.625 0 00.4-.266l1.042-1.567c.276-.415.375-.925.274-1.415a1.9 1.9 0 00-.811-1.202L8.527 1.05z" fill="#fff"/><path d="M3.974 12.066a1.646 1.646 0 011.16-.476h16.438c.435 0 .852.171 1.159.476.307.304.479.717.479 1.146v1.882c0 .097-.039.19-.109.26a.376.376 0 01-.265.109c-.57 0-1.119.225-1.523.626a2.133 2.133 0 000 3.028c.404.401.952.626 1.523.626.1 0 .195.04.265.109.07.07.109.163.109.26v1.881c0 .43-.172.843-.48 1.147a1.646 1.646 0 01-1.158.476H5.133c-.435 0-.852-.171-1.159-.476a1.615 1.615 0 01-.48-1.147v-1.881a.376.376 0 01.374-.369c.572 0 1.12-.225 1.524-.626a2.133 2.133 0 000-3.028 2.163 2.163 0 00-1.523-.626c-.1 0-.195-.04-.265-.109a.366.366 0 01-.11-.26v-1.881c0-.43.173-.843.48-1.147z" fill="url(#paint0_linear_305_504)" stroke="#fff" stroke-width=".517"/><path d="M13.555 12.544H9.448c-.467 0-.915.184-1.245.51a1.74 1.74 0 00-.515 1.235v4.653c0 .463.185.907.515 1.234.33.327.778.511 1.245.511l-.587.582v.582h.587l1.173-1.181 1.174.017V17.78H8.86v-4.072h5.28v1.163h1.174v-.581c0-.463-.185-.907-.515-1.234a1.768 1.768 0 00-1.245-.511zM9.448 18.36a.59.59 0 01.415.17.58.58 0 01-.415.993.59.59 0 01-.415-.17.58.58 0 01.415-.993zm9.135-2.525a.588.588 0 00-.569-.384h-4.219a.596.596 0 00-.575.384l-.839 2.39v3.206c0 .22.188.419.411.419h.364c.223 0 .399-.221.399-.442v-.722h4.694v.721c0 .222.182.443.405.443h.357a.425.425 0 00.411-.42v-3.204l-.839-2.39zm-4.788.198h4.219l.604 1.745h-5.427l.604-1.745zm-.24 3.49a.59.59 0 01-.415-.17.58.58 0 01.415-.993.59.59 0 01.415.17.58.58 0 01-.415.993zm4.694 0a.59.59 0 01-.415-.17.58.58 0 01.415-.993.59.59 0 01.415.17.58.58 0 01-.415.993z" fill="#fff"/><path d="M30.65 7.734l-2.122 6.369v.59h1.65l.492-1.475h2.32l.49 1.474h1.71v-.59l-2.122-6.368h-2.417zm1.435 1.651c0 1.12.236 1.828.413 2.359h-1.336c.177-.53.412-1.238.412-2.359h.511zm5.743-.118h1.061c.708 0 .708 0 .708 1.101 0 1.081 0 1.081-.708 1.081h-1.061V9.267zm-1.769 5.425h1.769v-1.71h.59c1.179 0 3.066 0 3.066-2.614 0-2.634-1.887-2.634-3.066-2.634h-2.359v6.958zm6.526-6.958v6.958h1.71V9.385h.354c0 1.18 0 1.18 1.238 5.307h1.651c1.239-4.127 1.239-4.127 1.239-5.307h.353v5.307h1.71V7.734h-2.889c-1.061 3.538-1.061 3.538-1.061 4.718h-.354c0-1.18 0-1.18-1.062-4.718h-2.889zM28.552 19.288h.559v-1.713h.968v1.713h.559v-2.197h-2.086v2.197zm2.935-2.197c-.01.586-.015.924-.105 1.542-.038.255-.13.26-.4.26v.401c.775 0 .837-.068.905-.596.069-.543.081-.866.087-1.123h.668v1.713h.558v-2.197h-1.713zm2.812 0l-.806 2.017v.18h.54l.186-.466h1.08l.186.466h.54v-.18l-.807-2.017h-.919zm.31.521h.299c0 .186.074.373.223.745h-.745c.15-.372.224-.559.224-.745zm2.266-.521h-.558v2.197h.558v-.857h.969v.857h.558v-2.197h-.558v.856h-.969v-.856zm2.619 1.415V17.09h-.559v2.197h.67c.634-.95.783-1.173.783-1.415h.149v1.415h.558V17.09h-.67c-.633.968-.782 1.191-.782 1.415h-.15zm2.694-.931h.559c.354 0 .354 0 .354.347 0 .342 0 .342-.354.342h-.559v-.69zm-.558 1.713h.558v-.54h.335c.578 0 1.173 0 1.173-.826 0-.831-.595-.831-1.173-.831h-.893v2.197zm3.55-1.732c.593 0 .596 0 .596.596v.075c0 .592 0 .595-.596.595-.593 0-.596 0-.596-.595v-.075c0-.593 0-.596.596-.596zm-.112-.527c-1.08 0-1.08.806-1.08 1.067v.186c0 .261 0 1.068 1.08 1.068h.224c1.08 0 1.08-.807 1.08-1.068v-.186c0-.26 0-1.067-1.08-1.067h-.224zm2.303.918v-.372h.627c.204 0 .204 0 .204.186s0 .186-.204.186h-.627zm.67.484c.205 0 .205 0 .205.187 0 .186 0 .186-.205.186h-.67v-.373h.67zm-1.229-1.34v2.197h1.043c.41 0 1.024 0 1.024-.577 0-.093 0-.391-.372-.484v-.075c.325-.093.329-.39.329-.484 0-.577-.615-.577-1.025-.577h-.999zm3.071 0l-.807 2.017v.18h.54l.187-.466h1.08l.186.466h.54v-.18l-.807-2.017h-.919zm.31.521h.299c0 .186.074.373.223.745h-.745c.15-.372.224-.559.224-.745zm2.266-.521h-.558v2.197h.558v-.857h.969v.857h.558v-2.197h-.558v.856h-.969v-.856zm2.619 1.415V17.09h-.559v2.197h.67c.634-.95.783-1.173.783-1.415h.149v1.415h.558V17.09h-.67c-.633.968-.782 1.191-.782 1.415h-.15zm2.694-.075h1.043v-.484h-1.043v-.372h1.266v-.484h-1.824v2.197h1.824v-.484h-1.266v-.373zm-29.22 4.857h.559v-1.713h.968v1.713h.559v-2.197h-2.086v2.197zm4.068-2.197c-.289.574-.338.741-.338.987h-.416c0-.246-.05-.413-.338-.987h-.578v.186l.612 1.285h.41l-.047.093c-.075.149-.075.149-.242.149h-.323v.484h.192c.512 0 .686-.003.969-.596l.676-1.415v-.186h-.577zm.636 0v.484h.789v1.713h.558v-1.713h.789v-.484h-2.136zm2.998 1.34h1.043v-.484h-1.043v-.372h1.266v-.484h-1.825v2.197h1.825v-.484h-1.266v-.373zm4.39.373h-.782V21.09h-.559v1.713h-.782V21.09h-.559v2.197h3.24V21.09h-.558v1.713zm1.65-.373h1.043v-.484h-1.043v-.372h1.267v-.484h-1.825v2.197h1.825v-.484h-1.267v-.373zm2.658-1.402c-1.042 0-1.042.806-1.042 1.067v.186c0 .336 0 1.068 1.117 1.068.186 0 .478 0 .95-.118v-.515h-.15l-.446.112h-.28c-.596 0-.596 0-.596-.584v-.111c0-.584 0-.584.522-.584.366 0 .366 0 .465.397l.559-.14c0-.158 0-.778-.95-.778h-.149zm1.273.062v.484h.788v1.713h.559v-1.713h.788v-.484h-2.135zm2.997.856v-.372h.627c.205 0 .205 0 .205.186s0 .186-.205.186h-.627zm.67.484c.206 0 .206 0 .206.187 0 .186 0 .186-.205.186h-.67v-.373h.67zm-1.228-1.34v2.197h1.043c.41 0 1.024 0 1.024-.577 0-.093 0-.391-.373-.484v-.075c.326-.093.33-.39.33-.484 0-.577-.615-.577-1.025-.577h-1zm3.065 1.415V21.09h-.559v2.197h.67c.634-.95.783-1.173.783-1.415h.149v1.415h.558V21.09h-.67c-.633.968-.782 1.191-.782 1.415h-.15zm2.694 0V21.09h-.558v2.197h.67c.633-.95.782-1.173.782-1.415h.149v1.415h.559V21.09h-.67c-.634.968-.783 1.191-.783 1.415h-.149zm.435-1.875c-.18 0-.224-.062-.298-.173l-.28.186c.224.298.373.298.609.298H55c.236 0 .385 0 .609-.295l-.28-.19c-.071.112-.114.174-.297.174h-.174z" fill="#000"/><defs><linearGradient id="paint0_linear_305_504" x1="8.699" y1="19.221" x2="16.792" y2="22.256" gradientUnits="userSpaceOnUse"><stop stop-color="#F73217"/><stop offset="1" stop-color="#FF2E2E"/></linearGradient></defs></svg>