<svg width="48" height="48" fill="none" xmlns="http://www.w3.org/2000/svg"><path fill-rule="evenodd" clip-rule="evenodd" d="M24 24h24v17.147C48 44.916 44.915 48 41.146 48H24V24zM6.854 0H24v24H0V6.856C0 3.086 3.085 0 6.854 0zM0 24h24v24H6.854C3.085 48.013 0 44.927 0 41.148V24zM24 0h17.146C44.915 0 48 3.087 48 6.856V24H24V0z" fill="#fff"/><path d="M17.496 38.924v-1.466l-4.694-3.317v-3.184l-.022-.232-.033-.242-.077-.254-.1-.242-.11-.176-.121-.166-.154-.099-.188-.055-.176.055-.154.1-.132.165-.11.176-.1.242-.077.254-.055.242v3.416L6.51 37.458v1.466l4.683-2.358v3.559l-1.63 1.41v.992l2.434-.992 2.414.992v-.992l-1.61-1.41v-3.56l4.695 2.359z" fill="#F77F08"/><path fill-rule="evenodd" clip-rule="evenodd" d="M33.884 38.072c1.84-1.047 1.84-1.069 3.482.033l-.01.805-3.46-.011-.012-.827zm4.882-.639a.808.808 0 01.958.617c.11.507-.242.893-.639.981-1.047.22-1.4-1.366-.32-1.598zm-6.623.011c.485-.132.893.21.992.584.253 1.07-1.311 1.433-1.587.419-.143-.518.199-.904.595-1.003zm.154-1.697c-.418-.143-.595-.264-.595-.672v-1.278c0-.485-.077-.904.177-1.102.198-.154.639-.32.958-.298.1-.055 1.422-.044 1.62-.022.044.188 0 .684.022.915l2.314.011.011-.915c.133-.055 1.587-.044 1.675.011.353 0 .76.144.948.331.154.165.132.21.132.485v1.884c0 .243-.044.33-.176.44l-7.086.21zm-.033-4.892c.276-.055.805-.022 1.113-.022.617 0 5.323-.022 5.587.01.32.034.584.2.595.53.033.76-1.069.584-1.686.584s-5.311.033-5.587-.011c-.782-.133-.804-.937-.022-1.091zm-.485 9.003c0 .815-.198 1.465.629 1.498.936.033.716-.661.727-1.41l5.003-.011c.01.738-.21 1.454.727 1.421.892-.033.562-.793.64-1.51.473-.154.837-.528 1.024-.97.21-.506.143-1.277.143-1.872v-3.99c0-.55.066-1.399-.132-1.862-.54-1.322-1.708-1.09-2.931-1.09h-3.99c-.517 0-1.498-.056-1.917.098-.451.177-.815.54-.991 1.003-.188.507-.122 1.29-.122 1.885v3.988c0 .585-.066 1.367.155 1.863a1.69 1.69 0 001.035.959z" fill="#6BC54A"/><path fill-rule="evenodd" clip-rule="evenodd" d="M10.18 6.276v-.027c0-.21.353-.496.595-.496h2.48c.34 0 .66.264.66.55 0 .353-.33.607-.66.607H10.84a.664.664 0 01-.44-.154c-.222-.18-.222-.288-.221-.48zM8.527 14.18c-.364.133-.507.397-.507.739 0 .55.948.892 1.466.451.66-.562-.056-1.51-.96-1.19zm7.14.133a1.109 1.109 0 00-.617-.199c-.672 0-1.2.75-.573 1.256a.964.964 0 00.97.133c.595-.232.617-.904.22-1.19zm-7.944-4.177v1.334c0 .143.022.275.044.407.088.331.473.595.848.595h6.788c.452 0 .75-.231.882-.506.058-.117.044-.229.028-.358a1.563 1.563 0 01-.017-.215l.003-.142c.014-.497.04-1.406-.07-1.666-.12-.275-.44-.507-.892-.507h-6.59c-.782 0-1.024.452-1.024 1.058zm-.893 4.606V9.08c0-1.101.837-1.807 2.16-1.807h6.082c.893 0 1.598.364 1.918.926.11.176.21.408.21.661v6.006c0 .473-.221.793-.475 1.069-.253.275-.672.462-1.08.54l1.18 1.333c.058.058.097.104.146.16a8.3 8.3 0 00.052.06c.066.077.121.143.176.21h-1.785a3.36 3.36 0 00-.266-.285 5.652 5.652 0 01-.164-.167l-.848-.87a3.415 3.415 0 00-.074-.072 1.877 1.877 0 01-.18-.19c-.065-.076-.115-.136-.187-.136h-3.152c-.07 0-.128.066-.184.128a.787.787 0 01-.069.07l-.815.761c-.022.022-.042.036-.061.05-.02.014-.039.027-.06.05l-.673.66H6.797l1.686-1.774c-.43-.022-.97-.33-1.18-.562-.275-.297-.473-.639-.473-1.157z" fill="#E8331A"/><path fill-rule="evenodd" clip-rule="evenodd" d="M31.65 11.197l4.31-1.487 4.375 1.498-.43-4.044-1.422-.022-.055-1.74h-5.069l-.11 1.685h-1.102l-.496 3.824c.011.066.033.198 0 .286zm1.065-3.438l-.416 2.47 3.734-1.153 3.68 1.125-.252-2.442h-6.746zm3.328 4.065l-4.63 1.579-.528-1.309 1.252-.467 3.827-1.402 3.886 1.412 1.272.499-.538 1.215-4.541-1.527zm-.214.523l-.007 3.877a2.205 2.205 0 01-.536-.084 2.798 2.798 0 01-.447-.192l-.01-.005c-.38-.188-.809-.386-1.688-.395a5.224 5.224 0 00-.467.015l-.729-1.86 3.884-1.356zm3.05 3.175c.13 0 .248.006.359.016l.827-1.882-3.875-1.31-.007 3.864c.094-.015.202-.038.326-.071.23-.06.48-.143.748-.233l.026-.009c.254-.085.526-.176.783-.245.262-.07.547-.13.814-.13zm-.935.663c.24-.071.507-.133.763-.133.653 0 1.033.17 1.39.332l.013.006c.312.142.625.285 1.22.354l.03-.002a.698.698 0 00.095-.019 2.29 2.29 0 00.284-.1c.078-.032.15-.064.226-.097l.097-.043a2.62 2.62 0 01.333-.127l.28 1.021a1.816 1.816 0 00-.188.076l-.08.035c-.08.036-.173.077-.264.114a3.34 3.34 0 01-.42.146c-.143.037-.324.07-.51.049h-.002a4.635 4.635 0 01-1.544-.445l-.01-.004c-.313-.143-.527-.237-.95-.237-.1 0-.251.027-.46.09-.202.06-.422.14-.663.23l-.009.003c-.236.087-.495.183-.742.255-.242.07-.512.13-.772.128h-.001a2.933 2.933 0 01-.906-.139 3.189 3.189 0 01-.55-.253l-.026-.014a2.097 2.097 0 00-.411-.188 2.283 2.283 0 00-.659-.087c-.537-.007-.97.114-1.372.256-.073.025-.157.056-.243.088-.124.046-.253.094-.36.13-.2.067-.422.129-.656.146h-.001c-.85.063-1.339-.22-1.67-.416l.536-.913c.269.158.53.312 1.056.273.104-.008.228-.038.398-.095a6.21 6.21 0 00.298-.107l.29-.105c.455-.16 1.023-.326 1.737-.316.393.005.698.054.96.135.258.08.453.186.607.27l.006.004c.154.085.26.142.395.188.131.043.31.08.584.084.103 0 .255-.025.464-.086.205-.06.428-.141.67-.231l.025-.01c.23-.084.477-.176.712-.246z" fill="#0AD3F7"/></svg>