<svg width="56" height="27" fill="none" xmlns="http://www.w3.org/2000/svg"><path d="M40.417 2.825v.887h7.422c.494 0 1.238 0 1.733.506.496.508.496 1.27.496 1.778v7.614c0 .508 0 1.27-.496 1.776-.495.508-1.24.508-1.733.508H44.26c-.618 0-1.424 0-1.733-.698-.307-.7.123-1.333.497-1.84l4.823-6.59h-7.422l-2.977 4.059c-.497.68-.926 1.27-.926 2.029 0 .761.399 1.31.926 2.03l.742 1.014c.743 1.014 1.485 2.029 2.468 2.531.991.505 2.167.505 3.768.505h3.221c1.857 0 4.634 0 6.499-1.902C56 15.129 56 12.336 56 11.332V8.277c0-1.017 0-3.807-1.854-5.7C52.289.671 49.512.677 47.647.675L42.523.673c-.492 0-1.113 0-1.609.508-.491.508-.491 1.142-.491 1.65" fill="#E8331A"/><path d="M31.317 6.759h7.64L29.75 18.933h-7.836l9.403-12.174zM.027 9.058c0-.54 0-1.218.536-1.76.535-.54 1.209-.54 1.743-.54h13.471c1.741 0 3.021 0 4.082.54 1.07.544 1.874 1.626 2.674 2.7l.806 1.08c.574.77 1.009 1.354 1.009 2.164 0 .811-.47 1.44-1.009 2.163l-3.224 4.326h-8.042l5.225-7.025c.402-.542.874-1.215.537-1.961-.333-.742-1.204-.742-1.874-.742H9.654v16.234h-6.43V10.003H0v-.947" fill="#E8331A"/></svg>