<svg width="51" height="50" fill="none" xmlns="http://www.w3.org/2000/svg"><path fill-rule="evenodd" clip-rule="evenodd" d="M.236 38.883v2.402h.98l.574-1.154c.686-1.378.902-1.905.979-2.386.052-.327.068-.36.165-.36h.109v3.9h.76V36.48H2.775l-.648 1.32c-.67 1.366-.881 1.898-.926 2.329-.023.226-.037.252-.138.252H.95v-3.9H.236v2.401zm13.508-1.057c-.506.115-.787.376-.927.86-.065.225-.077.42-.06 1.022.023.87.077 1.05.398 1.333.274.24.55.316 1.143.311.427-.003.514-.018.753-.136.3-.147.513-.396.607-.712.035-.115.059-.495.06-.932 0-.6-.016-.785-.088-.992a1.13 1.13 0 00-.677-.691c-.31-.107-.884-.137-1.209-.063zm7.27-.013c-.601.095-.584.082-.6.442-.014.316-.013.318.112.318.07 0 .258-.034.418-.075.188-.05.426-.07.666-.06.479.022.554.096.554.545v.304h-.416c-.891.001-1.335.153-1.525.523-.096.186-.108.268-.093.618.02.48.113.677.385.816.394.203 1.002.14 1.474-.15.126-.079.249-.142.273-.142.024 0 .1.085.17.19.069.105.146.19.17.19.057 0 .466-.29.466-.33a.556.556 0 00-.083-.147c-.07-.1-.088-.27-.11-1.116-.033-1.176-.085-1.403-.381-1.657a1.278 1.278 0 00-.381-.218c-.265-.079-.772-.102-1.1-.05zm12.078.019c-.385.082-.645.28-.82.62-.136.269-.143.311-.16.992-.02.85.05 1.2.305 1.497.26.304.563.408 1.187.41.448.001.559-.015.775-.11.548-.244.723-.65.723-1.675 0-.71-.07-1.05-.268-1.313-.305-.404-1.019-.577-1.742-.421zm11.413.002c-.533.094-.508.073-.508.429 0 .303.003.31.124.31.068 0 .255-.034.416-.075.188-.05.426-.07.666-.06.478.022.554.096.554.545v.304h-.416c-.892.001-1.335.153-1.526.523-.096.186-.108.268-.093.618.02.48.114.677.385.816.395.203 1.002.14 1.474-.15.127-.079.25-.142.273-.142.024 0 .1.085.17.19s.146.19.171.19c.056 0 .465-.29.465-.33a.555.555 0 00-.083-.147c-.07-.1-.087-.272-.111-1.116-.016-.559-.055-1.093-.088-1.213-.075-.27-.38-.574-.663-.659-.31-.092-.796-.106-1.21-.033zm-39.48.058c-.018.017-.032.788-.032 1.712v1.68h.713v-1.426h1.425l.013.701.013.702.345.014.345.014v-3.433l-.345.014-.345.014-.013.678-.013.677H5.706v-1.38h-.325c-.178 0-.339.015-.356.033zm3.916 1.68v1.713h.713v-1.427h1.427v1.427h.714V37.86h-.714v1.38H9.654v-1.38h-.713v1.712zm7.705.004v1.717l1.011-.016c.968-.016 1.021-.021 1.246-.135.332-.168.425-.314.444-.703.02-.396-.08-.582-.393-.734-.118-.057-.215-.116-.215-.13 0-.015.08-.07.175-.122.286-.156.372-.314.372-.681-.001-.732-.375-.91-1.914-.911l-.726-.001v1.716zm7.23-.005v1.712l1.368.013 1.367.012.014.488.014.487h.615v-1.569h-.524V37.86h-.713v2.854H24.59V37.86h-.714v1.712zm4.091.001v1.713h1.076l.605-1.227c.333-.675.618-1.307.634-1.406.021-.13.05-.174.106-.163.068.013.078.17.089 1.405l.013 1.39h.664V37.86h-1.136l-.552 1.106c-.39.782-.568 1.193-.608 1.403-.034.18-.08.297-.117.297-.047 0-.06-.3-.06-1.403V37.86h-.714v1.712zm8.086-.002v1.715h.714v-1.427h1.427v1.427h.714l-.012-1.7-.013-1.701-.344-.014-.345-.014v1.383h-1.425l-.013-.677-.013-.678-.345-.014-.345-.014v1.714zm3.948.002v1.713h.666v-1.427h1.475v1.427h.666V37.86h-.666v1.38h-1.475v-1.38h-.666v1.712zm8.324-1.666c-.39.05-.585.129-.746.3-.186.197-.253.403-.253.78 0 .394.106.602.471.923l.283.249-.353.466c-.194.256-.353.51-.353.563 0 .09.029.098.392.098h.393l.151-.226c.188-.28.287-.505.324-.738l.029-.178h.756v1.142h.714V37.86l-.773.006c-.425.004-.891.022-1.035.04zm-33.46.626c.119.118.162.397.162 1.04 0 1.072-.048 1.142-.791 1.142-.274 0-.536-.021-.584-.047-.15-.08-.192-.32-.192-1.095 0-.828.04-1.016.23-1.09.203-.078 1.085-.04 1.176.05zm3.594-.001c.087.086.098.143.081.408-.013.199-.044.322-.088.35-.038.024-.3.044-.58.045h-.512v-.903h.5c.444 0 .51.01.6.1zm15.798.032c.104.104.108.137.108.951 0 .464-.016.898-.035.966-.05.18-.223.234-.75.234-.429 0-.482-.01-.604-.115l-.133-.115v-.9c0-1.167-.006-1.16.819-1.14.434.01.498.022.595.119zM49.419 39v.571h-.56c-.75 0-.772-.015-.772-.54 0-.579.012-.587.821-.596l.511-.005V39zm-30.897.884c.053.053.075.168.075.402 0 .415-.02.427-.71.427h-.527v-.904h.544c.43 0 .559.016.618.075zm3.642.28v.355l-.202.052a92.48 92.48 0 00-.369.097 1.995 1.995 0 01-.414.045c-.298 0-.347-.062-.347-.44 0-.256.057-.383.19-.43.04-.015.313-.028.607-.03l.535-.004v.355zm23.593 0v.355l-.202.052-.369.097a1.997 1.997 0 01-.415.045c-.297 0-.346-.062-.346-.44 0-.256.056-.383.19-.43.04-.015.312-.028.607-.03l.535-.004v.355zM15.32 44.569c-.08.107-.175.15-.522.231-.53.125-.722.204-.926.384-.262.23-.401.607-.465 1.263-.063.642-.032 1.981.053 2.288.076.274.306.533.59.665.21.098.313.113.791.113.685 0 .979-.078 1.228-.326.256-.257.315-.508.315-1.338 0-.671-.004-.698-.143-.975-.123-.247-.178-.304-.404-.42-.247-.127-.29-.133-.761-.117-.511.018-.791.105-.949.295-.103.124-.145.086-.145-.13 0-.312.127-.686.263-.776.064-.042.355-.138.645-.213.628-.164.824-.25.942-.417.077-.108.212-.486.182-.508a5.693 5.693 0 00-.304-.08l-.293-.071-.097.132zm-4.787 1.418c-.443.116-.773.417-.886.805-.043.148-.065.482-.065.985 0 .89.05 1.08.369 1.392.276.27.512.345 1.105.345.764 0 1.122-.176 1.35-.661.12-.257.125-.298.125-1.123 0-.942-.023-1.047-.304-1.366-.244-.279-.523-.383-1.075-.4-.262-.007-.54.003-.619.023zm23.197.047c-.286.102-.596.375-.71.626-.099.218-.143 1.572-.062 1.933.072.32.273.594.56.763.219.129.251.134.87.134.567 0 .664-.012.832-.103.54-.292.728-.81.676-1.869-.041-.847-.2-1.175-.687-1.413-.235-.115-.34-.136-.75-.147-.372-.011-.53.006-.73.076zm3.748-.018a1.445 1.445 0 00-.41.236c-.31.266-.364.452-.387 1.343-.03 1.163.081 1.506.573 1.761.223.116.31.132.82.146.359.011.685-.007.88-.047l.309-.064.014-.303c.008-.166-.005-.322-.029-.345-.026-.026-.196-.005-.426.054-.421.108-.84.125-1.12.047-.29-.08-.327-.224-.309-1.22.018-1.025.01-1.013.65-1.011.227 0 .44.019.476.041.036.023.104.156.153.297.097.286.142.3.56.187l.207-.057-.033-.221c-.062-.417-.235-.645-.619-.816-.212-.095-1.046-.113-1.31-.028zM4.375 47.754v1.712h.665v-1.403c0-1.347.004-1.404.09-1.404.07 0 .105.057.15.25.032.138.228.769.435 1.403l.376 1.154h.784l.393-1.191c.217-.655.406-1.297.421-1.427.025-.208.042-.236.14-.236h.113v2.854h.666V46.04h-.642c-.353 0-.642.009-.642.02 0 .01-.15.484-.334 1.053-.183.568-.358 1.18-.387 1.36-.045.266-.07.326-.143.326-.072 0-.088-.037-.088-.202 0-.255-.03-.364-.415-1.57l-.315-.987H4.375v1.713zm12.89 0v1.712h1.049l.64-1.29c.353-.71.642-1.342.642-1.404 0-.068.028-.112.07-.112.06 0 .073.198.084 1.39l.012 1.392.345.014.345.014v-3.429H19.31l-.506 1.011c-.528 1.053-.684 1.432-.684 1.66 0 .089-.025.136-.071.136-.062 0-.072-.188-.072-1.404v-1.403h-.713v1.713zm4.83-1.344c-.073.932-.178 1.909-.224 2.094-.063.248-.215.376-.495.418l-.21.032v.524l.368-.022c.491-.028.71-.135.828-.4.095-.214.251-1.214.306-1.956l.033-.44h1.079l.012 1.39.013 1.392.345.014.345.014v-3.429h-2.37l-.03.369zm3.494 1.35v1.717l.94-.02c.816-.017.967-.033 1.154-.117.405-.183.569-.49.57-1.068 0-.512-.141-.798-.492-1-.168-.096-.263-.113-.626-.113-.236 0-.52.018-.63.04l-.203.04V46.04h-.713v1.718zm3.52-.004v1.714l.345-.014.344-.014.014-.725.013-.726h1.424v1.48l.345-.015.345-.014.012-1.7.013-1.7h-.715v1.379h-1.427v-1.38h-.713v1.715zm10.75-1.43v.286h1.045l.012 1.415.013 1.415.345.014.344.014v-2.858h1.094v-.571H39.86v.286zm3.567 1.433v1.718l.94-.024c1.062-.027 1.225-.063 1.462-.326.204-.226.275-.49.254-.944-.022-.462-.136-.69-.445-.881-.21-.132-.264-.143-.661-.143-.238 0-.523.018-.634.04l-.203.04V46.04h-.713v1.718zm-31.73-1.056c.124.124.163.49.137 1.294-.026.827-.043.853-.578.887-.518.033-.776-.015-.874-.165-.093-.142-.143-1.077-.086-1.61.05-.47.092-.497.762-.497.476 0 .56.012.639.091zm23.337.026c.115.115.117.127.117.972 0 .47-.02.907-.045.971-.025.068-.108.139-.197.17-.196.068-.84.069-1.035.001-.22-.077-.255-.257-.237-1.225.02-1.039-.005-1.006.76-1.006.489 0 .527.007.637.117zm-19.502.38c.113.113.117.139.117.788 0 .39-.022.712-.052.767-.078.146-.338.231-.696.228-.459-.003-.642-.076-.712-.282-.068-.199-.078-1.04-.016-1.307.064-.28.136-.31.726-.31.485 0 .523.007.633.116zm11.913.691c.095.06.103.916.01 1.01-.042.04-.242.067-.607.077l-.545.016v-1.15l.535.001c.295 0 .568.021.607.046zm17.837 0c.095.06.103.916.01 1.01-.042.04-.242.067-.607.077l-.544.016v-1.15l.535.001c.294 0 .567.021.606.046z" fill="#000"/><path fill-rule="evenodd" clip-rule="evenodd" d="M2.07.045A2.638 2.638 0 00.297 1.363C-.023 1.963 0 .825 0 15.598c0 14.872-.028 13.646.32 14.27.32.575.878 1.012 1.558 1.22.276.085 1.092.088 23.236.088 22.102 0 22.961-.003 23.236-.087.679-.207 1.25-.667 1.559-1.255.348-.663.32.574.32-14.244 0-14.726.025-13.552-.3-14.212-.199-.407-.623-.83-1.06-1.06-.67-.35 1.558-.32-23.779-.315C12.534.005 2.174.024 2.07.045zM48.435.84c.4.19.777.557.965.942l.14.285v27.017l-.148.312a1.986 1.986 0 01-1.398 1.091c-.175.033-7.797.044-23.045.036L2.165 30.51l-.27-.108a2.07 2.07 0 01-1.144-1.145l-.108-.269L.629 15.86C.619 7.164.63 2.608.663 2.364.767 1.576 1.28.98 2.07.729 2.223.681 6.736.671 25.187.678l22.926.009.322.152zM14.47 9.636a.739.739 0 00-.39.495c-.033.118-.045 2.015-.037 5.57l.013 5.391.109.175a.83.83 0 00.316.276c.203.098.254.1 2.222.086 1.86-.014 2.035-.022 2.276-.108a2.434 2.434 0 001.097-.835c.316-.415 2.317-3.134 2.817-3.827l.343-.476.024 1.641c.024 1.62.025 1.644.136 1.821a.887.887 0 00.295.274c.174.088.287.093 2.148.092 1.15 0 2.05-.021 2.172-.05.338-.077.701-.272.969-.52.137-.126.753-.915 1.367-1.753.615-.838 1.134-1.525 1.154-1.526.02-.002.036 1.058.036 2.354 0 2.614-.012 2.516.317 2.766l.175.134h1.82c1.771 0 1.822-.003 1.953-.1a1.27 1.27 0 00.242-.257l.107-.157V15.61c0-6.17.027-5.71-.359-5.937l-.203-.12-2.18.015-2.182.013-.237.127c-.131.07-.305.198-.387.285-.082.088-.699.898-1.37 1.8-.672.903-1.242 1.648-1.267 1.657-.027.01-.044-.639-.044-1.67 0-1.67-.001-1.687-.107-1.842a1.273 1.273 0 00-.242-.257c-.13-.097-.189-.1-2.259-.114-1.486-.01-2.184.003-2.322.04-.335.093-.575.295-.963.811-.517.688-1.907 2.564-2.646 3.572-.34.463-.633.843-.652.845-.02.001-.04-1.077-.048-2.396-.013-2.338-.015-2.402-.111-2.53a1.365 1.365 0 00-.23-.23c-.126-.094-.197-.098-1.923-.11-1.581-.01-1.81-.002-1.949.067zm3.546 3.396l.013 2.786-.512.687c-.282.378-1.025 1.382-1.653 2.23l-1.142 1.542-.012-4.967c-.007-2.732-.002-4.995.01-5.028.018-.047.375-.057 1.654-.047l1.63.012.012 2.785zm9.287-.344v1.698l-.892 1.194a732.35 732.35 0 00-1.652 2.222c-.42.565-.778 1.028-.797 1.029-.02.001-.036-.76-.036-1.692v-1.694l.252-.34c.647-.869 2.262-3.067 2.842-3.866.116-.16.228-.283.248-.27.02.011.035.785.035 1.72z" fill="#E8331A"/></svg>