<svg width="165" height="50" fill="none" xmlns="http://www.w3.org/2000/svg"><path d="M7.47 29.54h1.217v9.803H7.47v-4.355H1.46v4.355H.243V29.54H1.46v4.327h6.01V29.54zm4.818 0h6.836v1.12h-5.62v3.18h5.185v1.12h-5.185v3.262h5.707v1.12h-6.923V29.54zm11.139 9.803H22.21V29.54h3.969c.666 0 1.27.09 1.81.266.54.168 1.004.486 1.39.953.396.457.594 1.04.594 1.75 0 .84-.25 1.494-.753 1.96-.502.467-1.154.77-1.955.91l3.433 3.964h-1.521l-3.317-3.865h-2.433v3.865zm0-8.682v3.697h2.81c.714 0 1.308-.14 1.781-.42.483-.29.724-.766.724-1.429 0-.672-.241-1.148-.724-1.428-.473-.28-1.067-.42-1.781-.42h-2.81zm9.349 5.643a5.302 5.302 0 01-.334-1.862c0-.645.111-1.265.334-1.863a5.25 5.25 0 01.984-1.61c.425-.486.98-.873 1.666-1.163.686-.289 1.458-.434 2.317-.434.86 0 1.632.145 2.318.434.685.29 1.24.677 1.665 1.163a5.01 5.01 0 01.97 1.61c.232.598.348 1.218.348 1.863 0 .644-.116 1.265-.347 1.862a5.199 5.199 0 01-.97 1.624c-.426.477-.98.86-1.666 1.149-.686.29-1.458.434-2.318.434-.859 0-1.631-.145-2.317-.434-.686-.29-1.24-.672-1.666-1.149a5.43 5.43 0 01-.984-1.624zm8.776-.392c.174-.467.261-.957.261-1.47a4.18 4.18 0 00-.26-1.47 3.803 3.803 0 00-.74-1.261c-.318-.373-.743-.668-1.274-.882-.53-.224-1.13-.336-1.796-.336-.666 0-1.265.112-1.796.336-.53.214-.96.508-1.289.882a4.164 4.164 0 00-.738 1.26 4.398 4.398 0 00-.247 1.47c0 .514.083 1.004.247 1.47.174.468.42.888.738 1.261.329.374.758.672 1.29.897.53.214 1.13.322 1.795.322.667 0 1.265-.108 1.796-.322.531-.225.956-.523 1.275-.897.328-.373.574-.793.739-1.26zm6.812 4.971h-2.709V28h2.709v1.12h-1.492v10.643h1.492v1.12zm2.681-11.343h1.217v9.803h-1.217V29.54zm6.034 9.803h-1.217V29.54h1.13l6.097 7.828V29.54h1.217v9.803h-1.13L57.08 31.5v7.842zm12.609 1.54h-2.709v-1.12h1.492V29.12H66.98V28h2.709v12.883zM82.392 29.54h1.043v9.803h-1.217v-7.576l-3.635 5.265h-.753l-3.636-5.265v7.576h-1.216V29.54h1.043l4.185 6.05 4.186-6.05zm4.74 9.803h-1.318l4.417-9.803h1.347l4.403 9.803h-1.304l-1.042-2.367h-5.46l-1.043 2.367zm3.606-8.22l-2.086 4.76h4.505l-2.1-4.76-.16-.378c-.087.214-.14.34-.16.378zm8.846 8.22h-1.216V29.54h3.968c.666 0 1.27.09 1.811.266a2.9 2.9 0 011.39.953c.396.457.594 1.04.594 1.75 0 .84-.251 1.494-.753 1.96-.502.467-1.154.77-1.956.91l3.433 3.964h-1.521l-3.316-3.865h-2.434v3.865zm0-8.682v3.697h2.81c.715 0 1.308-.14 1.782-.42.482-.29.724-.766.724-1.429 0-.672-.242-1.148-.724-1.428-.474-.28-1.067-.42-1.782-.42h-2.81zm11.012 8.682h-1.216V29.54h1.216v4.243h2.303l3.056-4.243h1.39l-3.447 4.776 3.752 5.027h-1.391l-3.317-4.44h-2.346v4.44zm9.357-9.803h6.836v1.12h-5.619v3.18h5.185v1.12h-5.185v3.262h5.706v1.12h-6.923V29.54zm8.793 0h8.342v1.12h-3.562v8.683h-1.217V30.66h-3.563v-1.12zm10.812 0h1.217v9.803h-1.217V29.54zm6.034 9.803h-1.217V29.54h1.13l6.097 7.828V29.54h1.217v9.803h-1.13l-6.097-7.842v7.842zm10.161-4.901c0-1.074.266-2.003.797-2.787.531-.794 1.197-1.372 1.998-1.736a6.197 6.197 0 012.593-.547c1.12 0 2.134.22 3.041.659v1.176c-.782-.476-1.738-.714-2.867-.714-.551 0-1.077.079-1.579.238a4.555 4.555 0 00-1.39.686c-.416.299-.749.71-1 1.232-.241.523-.362 1.12-.362 1.793 0 .71.126 1.33.377 1.862.251.523.589.934 1.014 1.232a4.7 4.7 0 001.375.645c.503.14 1.034.21 1.594.21.724 0 1.347-.122 1.868-.364v-3.894h1.217v4.72a7.71 7.71 0 01-3.172.658 7.23 7.23 0 01-2.042-.28 5.724 5.724 0 01-1.753-.854c-.521-.393-.937-.925-1.246-1.597-.308-.672-.463-1.452-.463-2.338zM1.298 50H0v-6.173h1.298v.537H.583v5.1h.715V50zm1.472-5.435h1.596c.828 0 1.462.217 1.902.65.444.43.666.996.666 1.698 0 .703-.222 1.27-.666 1.705-.44.43-1.074.644-1.902.644H2.77v-4.697zm3.068 3.684c.337-.318.506-.763.506-1.336 0-.572-.169-1.017-.506-1.335-.334-.318-.824-.476-1.472-.476H3.353v3.623h1.013c.648 0 1.138-.159 1.472-.476zm2.694-3.684h.583v4.697h-.583v-4.697zm2.176 2.348c0-.514.128-.96.382-1.335.255-.38.574-.658.958-.832a2.967 2.967 0 011.242-.262c.537 0 1.023.105 1.458.316v.563c-.375-.228-.833-.342-1.375-.342-.263 0-.515.038-.756.114-.24.072-.463.181-.666.33-.2.142-.359.339-.48.59-.115.25-.173.536-.173.858 0 .34.06.638.18.893.121.25.283.447.486.59.204.139.424.242.66.309.24.067.495.1.763.1.347 0 .646-.057.896-.174v-1.865h.582v2.261c-.472.21-.978.315-1.52.315-.346 0-.673-.044-.978-.134a2.744 2.744 0 01-.84-.41 1.955 1.955 0 01-.596-.764 2.657 2.657 0 01-.223-1.12zm5.852-2.348h.582v4.697h-.583v-4.697zm1.953 0h3.998v.537h-1.707v4.16h-.583v-4.16h-1.708v-.537zm4.854 4.697h-.631l2.117-4.697h.645l2.11 4.697h-.625l-.5-1.134h-2.616l-.5 1.134zm1.729-3.939l-1 2.282h2.159l-1.007-2.282-.076-.181a3.556 3.556 0 01-.076.181zm3.843-.758h.583v4.16h2.693v.537h-3.276v-4.697zm6.659 4.697h-.632l2.117-4.697h.645l2.11 4.697h-.624l-.5-1.134h-2.616l-.5 1.134zm1.728-3.939l-1 2.282h2.159l-1.006-2.282-.077-.181a3.602 3.602 0 01-.076.181zm3.844-.758h1.596c.828 0 1.462.217 1.901.65.444.43.666.996.666 1.698 0 .703-.222 1.27-.666 1.705-.44.43-1.073.644-1.901.644h-1.597v-4.697zm3.067 3.684c.337-.318.506-.763.506-1.336 0-.572-.169-1.017-.506-1.335-.333-.318-.824-.476-1.471-.476h-1.014v3.623h1.014c.647 0 1.138-.159 1.47-.476zm2.694-3.684h1.597c.828 0 1.462.217 1.901.65.444.43.666.996.666 1.698 0 .703-.222 1.27-.666 1.705-.44.43-1.073.644-1.901.644H46.93v-4.697zM50 48.249c.338-.318.506-.763.506-1.336 0-.572-.168-1.017-.506-1.335-.333-.318-.824-.476-1.471-.476h-1.014v3.623h1.014c.647 0 1.138-.159 1.47-.476zm2.694-3.684h.582v4.697h-.583v-4.697zm2.169 2.382c0-.519.127-.969.381-1.349.255-.384.572-.666.951-.845.38-.18.787-.269 1.222-.269.5 0 .955.105 1.367.316v.563c-.352-.228-.775-.342-1.27-.342a2.22 2.22 0 00-1.444.497c-.407.326-.613.803-.617 1.429 0 .398.104.742.312 1.033.213.291.472.501.777.631.31.13.641.195.993.195.522 0 .95-.114 1.284-.343v.564a3.11 3.11 0 01-1.41.315 2.812 2.812 0 01-1.734-.603 2.141 2.141 0 01-.59-.759 2.386 2.386 0 01-.222-1.033zm4.957-2.382h3.998v.537H62.11v4.16h-.583v-4.16H59.82v-.537zm5.368 0h.583v4.697h-.583v-4.697zm2.329 3.241a2.541 2.541 0 01-.16-.893c0-.308.054-.606.16-.892a2.51 2.51 0 01.472-.772c.204-.232.47-.418.798-.557a2.83 2.83 0 011.11-.208c.412 0 .782.07 1.11.208.33.14.595.325.799.557.204.228.359.486.465.772.111.286.166.584.166.892 0 .31-.055.607-.166.893a2.492 2.492 0 01-.465.778c-.204.228-.47.412-.798.55a2.83 2.83 0 01-1.11.208 2.83 2.83 0 01-1.11-.208 2.191 2.191 0 01-.799-.55 2.6 2.6 0 01-.472-.778zm4.206-.188c.083-.224.125-.459.125-.705 0-.246-.042-.48-.125-.704a1.823 1.823 0 00-.354-.604 1.545 1.545 0 00-.611-.423 2.195 2.195 0 00-.86-.16c-.32 0-.607.053-.861.16a1.61 1.61 0 00-.618.423c-.152.179-.27.38-.354.604a2.109 2.109 0 00-.118.704c0 .246.04.481.118.705.084.224.202.425.354.604.158.179.364.322.618.43.254.102.541.154.86.154.32 0 .607-.052.861-.155a1.58 1.58 0 00.61-.43c.158-.178.276-.38.355-.603zm2.889 1.644h-.583v-4.697h.54l2.923 3.75v-3.75h.583v4.697h-.542l-2.921-3.758v3.758zM80.84 50h-1.297v-.537h.715v-5.1h-.715v-.536h1.298V50zm8.642-5.435h.5v4.697h-.583v-3.63l-1.742 2.523h-.36l-1.743-2.523v3.63h-.583v-4.697h.5l2.006 2.899 2.005-2.9zm2.458 4.697h-.63l2.116-4.697h.645l2.11 4.697h-.625l-.5-1.134H92.44l-.5 1.134zm1.729-3.939l-1 2.282h2.159l-1.007-2.282-.076-.181a3.602 3.602 0 01-.076.181zm4.426 3.939h-.583v-4.697h1.902c.319 0 .608.042.867.127.259.08.481.233.666.457.19.219.285.498.285.838 0 .403-.12.716-.361.94-.241.224-.553.369-.937.436l1.645 1.899h-.729l-1.589-1.852h-1.166v1.852zm0-4.16v1.771h1.346c.343 0 .627-.067.854-.201.231-.139.347-.367.347-.685 0-.322-.116-.55-.347-.684-.227-.134-.511-.201-.854-.201h-1.346zm5.464 4.16h-.583v-4.697h.583v2.033h1.103l1.465-2.033h.666l-1.652 2.288 1.798 2.409h-.667l-1.589-2.127h-1.124v2.127zm4.671-4.697h3.275v.537h-2.692v1.523h2.484v.537h-2.484v1.563h2.734v.537h-3.317v-4.697zm4.401 0h3.997v.537h-1.707v4.16h-.583v-4.16h-1.707v-.537zm5.368 0h.583v4.697h-.583v-4.697zm3.078 4.697h-.583v-4.697h.541l2.922 3.75v-3.75h.583v4.697h-.541l-2.922-3.758v3.758zm5.056-2.349c0-.514.128-.96.382-1.335a2.28 2.28 0 01.958-.832 2.966 2.966 0 011.242-.262c.537 0 1.023.105 1.458.316v.563c-.375-.228-.833-.342-1.375-.342-.263 0-.515.038-.756.114a2.176 2.176 0 00-.666.33 1.503 1.503 0 00-.479.59c-.116.25-.174.536-.174.858 0 .34.061.638.181.893.12.25.282.447.486.59.203.139.423.242.659.309.24.067.495.1.763.1.347 0 .646-.057.896-.174v-1.865h.582v2.261a3.69 3.69 0 01-1.519.315c-.347 0-.674-.044-.979-.134a2.755 2.755 0 01-.84-.41 1.961 1.961 0 01-.596-.764 2.659 2.659 0 01-.223-1.12zm8.043 2.349h-.632l2.117-4.697h.645l2.11 4.697h-.624l-.5-1.134h-2.616l-.5 1.134zm1.728-3.939l-.999 2.282h2.158l-1.006-2.282-.077-.181a3.343 3.343 0 01-.076.181zm3.334 1.59c0-.514.127-.96.382-1.335.254-.38.574-.658.958-.832a2.966 2.966 0 011.242-.262c.537 0 1.022.105 1.457.316v.563c-.375-.228-.833-.342-1.374-.342a2.49 2.49 0 00-.756.114 2.192 2.192 0 00-.667.33 1.501 1.501 0 00-.478.59c-.116.25-.174.536-.174.858 0 .34.06.638.181.893.12.25.282.447.485.59.204.139.424.242.66.309.24.067.495.1.763.1.347 0 .645-.057.895-.174v-1.865h.583v2.261c-.472.21-.978.315-1.52.315a3.44 3.44 0 01-.978-.134 2.744 2.744 0 01-.84-.41 1.954 1.954 0 01-.597-.764 2.659 2.659 0 01-.222-1.12zm5.851-2.348h3.276v.537h-2.693v1.523h2.485v.537h-2.485v1.563h2.734v.537h-3.317v-4.697zm5.525 4.697h-.583v-4.697h.541l2.922 3.75v-3.75h.583v4.697h-.541l-2.922-3.758v3.758zm5.05-2.315c0-.519.127-.969.381-1.349.255-.384.572-.666.951-.845a2.828 2.828 0 011.221-.269c.5 0 .956.105 1.368.316v.563c-.352-.228-.775-.342-1.27-.342-.556 0-1.037.166-1.444.497-.407.326-.613.803-.618 1.429 0 .398.105.742.313 1.033.213.291.472.501.777.631.31.13.641.195.992.195.523 0 .951-.114 1.284-.343v.564a3.107 3.107 0 01-2.325.161 2.895 2.895 0 01-.818-.45 2.133 2.133 0 01-.59-.758 2.387 2.387 0 01-.222-1.033zm7.428 2.315h-.583v-1.778l-1.909-2.92h.645l1.555 2.416 1.555-2.415H165l-1.908 2.919v1.778zM6.617 10.287h1.125a3.588 3.588 0 01-.463 1.447c-.25.426-.603.764-1.06 1.014-.457.246-1.028.37-1.711.37-.5 0-.955-.095-1.365-.282a3.034 3.034 0 01-1.05-.797 3.73 3.73 0 01-.679-1.248 5.327 5.327 0 01-.234-1.629v-.85c0-.597.078-1.138.234-1.623.16-.488.389-.906.686-1.253.3-.348.662-.616 1.084-.803a3.47 3.47 0 011.423-.281c.645 0 1.19.12 1.635.363.446.242.791.578 1.037 1.008.25.425.405.92.463 1.482H6.617a3.136 3.136 0 00-.304-1.025 1.584 1.584 0 00-.633-.668c-.274-.157-.631-.235-1.073-.235-.378 0-.712.073-1.002.217-.285.145-.525.35-.72.615a2.863 2.863 0 00-.434.955 4.857 4.857 0 00-.146 1.237v.861c0 .418.043.81.129 1.178.09.367.224.69.404.967.18.277.408.496.685.656.278.156.606.234.985.234.48 0 .863-.076 1.148-.228.285-.153.5-.371.645-.656.148-.286.254-.628.316-1.026zm3.586-2.63V13H9.12V6.66h1.055l.03.996zm1.98-1.032l-.005 1.008a1.563 1.563 0 00-.258-.035 2.736 2.736 0 00-.27-.012c-.25 0-.47.039-.662.117a1.372 1.372 0 00-.486.328c-.133.14-.238.309-.317.504a2.42 2.42 0 00-.146.633l-.305.176c0-.383.037-.742.112-1.078.078-.336.197-.633.357-.891a1.75 1.75 0 01.61-.61 1.713 1.713 0 011.16-.193.8.8 0 01.21.053zm3.516 6.492c-.441 0-.842-.074-1.201-.223a2.723 2.723 0 01-.92-.638 2.841 2.841 0 01-.586-.973 3.568 3.568 0 01-.205-1.23v-.246c0-.516.076-.975.229-1.377.152-.407.359-.75.62-1.032a2.66 2.66 0 01.891-.638 2.558 2.558 0 011.032-.217c.453 0 .843.078 1.171.234.332.157.604.375.815.657.21.277.367.605.469.984a4.7 4.7 0 01.152 1.23v.487h-4.734V9.25h3.65v-.082a2.702 2.702 0 00-.176-.82 1.475 1.475 0 00-.468-.657c-.215-.171-.508-.257-.88-.257a1.475 1.475 0 00-1.212.615 2.301 2.301 0 00-.346.744 3.77 3.77 0 00-.123 1.014v.246c0 .3.041.584.123.85.086.261.209.492.37.69.163.2.36.356.59.47.235.113.5.17.798.17.383 0 .707-.079.973-.235.265-.156.497-.365.697-.627l.656.522a3.02 3.02 0 01-.521.591c-.211.188-.471.34-.78.457a3.017 3.017 0 01-1.084.176zm7.47-1.201V8.652c0-.25-.05-.466-.151-.65a.997.997 0 00-.446-.434 1.614 1.614 0 00-.738-.152c-.273 0-.514.047-.72.14a1.255 1.255 0 00-.481.37.809.809 0 00-.17.492h-1.084c0-.227.058-.451.176-.674a1.97 1.97 0 01.504-.603c.222-.184.488-.329.796-.434a3.14 3.14 0 011.043-.164c.461 0 .868.078 1.22.234.355.157.632.393.831.71.203.312.305.704.305 1.177v2.953c0 .211.017.436.053.674.039.238.095.443.17.615V13h-1.131a2.022 2.022 0 01-.13-.498 4.011 4.011 0 01-.046-.586zm.188-2.76l.012.762h-1.096c-.308 0-.584.025-.826.076a1.89 1.89 0 00-.61.217 1.03 1.03 0 00-.374.37.979.979 0 00-.129.509c0 .2.045.38.135.545a.98.98 0 00.404.392c.184.094.408.141.674.141a1.817 1.817 0 001.482-.727c.153-.203.235-.4.246-.591l.463.521a1.575 1.575 0 01-.222.545 2.607 2.607 0 01-1.201 1.025 2.33 2.33 0 01-.926.176c-.43 0-.807-.084-1.131-.252a1.933 1.933 0 01-.75-.674 1.784 1.784 0 01-.264-.955c0-.34.067-.638.2-.896a1.73 1.73 0 01.574-.65c.25-.176.55-.31.902-.399a4.76 4.76 0 011.178-.135h1.26zm5.256-2.496v.832h-3.427V6.66h3.427zm-2.267-1.54h1.084v6.31c0 .215.033.377.1.486.066.11.152.182.257.217.106.035.219.053.34.053.09 0 .184-.008.281-.024.102-.02.178-.035.229-.047l.006.885a2.55 2.55 0 01-.34.076 2.587 2.587 0 01-.498.041c-.266 0-.51-.053-.733-.158a1.178 1.178 0 01-.533-.527c-.129-.25-.193-.586-.193-1.008V5.119zm6.17 7.997c-.442 0-.842-.074-1.201-.223a2.723 2.723 0 01-.92-.638 2.841 2.841 0 01-.586-.973 3.568 3.568 0 01-.206-1.23v-.246c0-.516.077-.975.229-1.377.152-.407.36-.75.621-1.032a2.66 2.66 0 01.89-.638 2.558 2.558 0 011.032-.217c.453 0 .844.078 1.172.234.332.157.603.375.814.657.211.277.367.605.47.984a4.7 4.7 0 01.151 1.23v.487h-4.734V9.25h3.65v-.082a2.705 2.705 0 00-.175-.82 1.475 1.475 0 00-.47-.657c-.214-.171-.507-.257-.878-.257a1.475 1.475 0 00-1.213.615 2.301 2.301 0 00-.346.744 3.77 3.77 0 00-.123 1.014v.246c0 .3.041.584.123.85.086.261.21.492.37.69.164.2.36.356.591.47.235.113.5.17.797.17.383 0 .707-.079.973-.235.266-.156.498-.365.697-.627l.656.522c-.136.207-.31.404-.521.591-.211.188-.47.34-.78.457a3.017 3.017 0 01-1.083.176zm7.728-1.348V4h1.09v9h-.996l-.094-1.23zM35.978 9.9v-.123c0-.484.06-.923.176-1.318a3.19 3.19 0 01.51-1.025c.223-.286.486-.504.791-.657a2.25 2.25 0 011.031-.234c.399 0 .746.07 1.043.21.301.138.555.339.762.604.211.262.377.579.498.95.121.37.205.79.252 1.26v.538a5.524 5.524 0 01-.252 1.254 2.957 2.957 0 01-.498.95c-.207.261-.46.463-.762.603-.3.137-.652.205-1.054.205-.372 0-.711-.08-1.02-.24a2.406 2.406 0 01-.79-.674 3.282 3.282 0 01-.51-1.02 4.489 4.489 0 01-.177-1.283zm1.09-.123V9.9c0 .317.032.614.094.891.066.277.168.521.305.732.136.211.31.377.521.498.211.118.463.176.756.176.36 0 .654-.076.885-.228.234-.153.422-.354.562-.604.141-.25.25-.521.328-.814V9.139a3.127 3.127 0 00-.204-.621 1.915 1.915 0 00-.34-.54 1.468 1.468 0 00-.51-.38 1.653 1.653 0 00-.71-.141 1.5 1.5 0 00-.767.188 1.49 1.49 0 00-.521.503 2.33 2.33 0 00-.305.739 4.045 4.045 0 00-.094.89zM45.992 4h1.09v7.77L46.988 13h-.996V4zm5.373 5.777V9.9c0 .461-.055.89-.164 1.284-.11.39-.27.73-.48 1.02a2.245 2.245 0 01-.774.673 2.22 2.22 0 01-1.049.24c-.402 0-.755-.068-1.06-.205-.3-.14-.555-.342-.762-.603a3.119 3.119 0 01-.498-.95 5.977 5.977 0 01-.252-1.254v-.539c.047-.468.131-.888.252-1.26a3.12 3.12 0 01.498-.949c.207-.265.461-.466.762-.603.3-.14.65-.211 1.049-.211.398 0 .752.078 1.06.234.309.153.567.371.774.657.21.285.37.627.48 1.025.11.395.164.834.164 1.318zm-1.09.123v-.123c0-.316-.029-.613-.087-.89a2.305 2.305 0 00-.282-.739 1.4 1.4 0 00-.51-.503c-.21-.125-.47-.188-.779-.188-.273 0-.511.047-.715.14a1.548 1.548 0 00-.51.382 2.02 2.02 0 00-.345.539c-.086.199-.15.406-.194.62v1.413c.063.273.165.537.305.79.145.25.336.456.574.616.243.16.541.24.897.24a1.5 1.5 0 00.75-.175c.21-.122.38-.288.51-.499.133-.21.23-.455.293-.732a4.07 4.07 0 00.093-.89zm4.172 2.444l1.764-5.684h1.16l-2.543 7.319a4.031 4.031 0 01-.234.503 2.416 2.416 0 01-.364.522 1.73 1.73 0 01-.539.398 1.622 1.622 0 01-.744.159c-.086 0-.195-.012-.328-.036a3.179 3.179 0 01-.281-.058l-.006-.88c.031.005.08.009.146.013a1.745 1.745 0 00.774-.088.948.948 0 00.433-.322 1.92 1.92 0 00.311-.616l.451-1.23zM53.152 6.66l1.647 4.922.281 1.143-.78.398-2.33-6.463h1.183z" fill="#D1D1D1"/></svg>