<svg width="77" height="76" fill="none" xmlns="http://www.w3.org/2000/svg"><path fill-rule="evenodd" clip-rule="evenodd" d="M.363 59.604v3.682h1.503l.88-1.768c1.051-2.113 1.382-2.92 1.5-3.658.08-.5.103-.553.253-.553h.166v5.98h1.167v-7.365H4.253l-.993 2.023c-1.027 2.094-1.35 2.908-1.419 3.57-.036.346-.058.386-.212.386h-.172v-5.98H.363v3.683zm20.707-1.62c-.777.177-1.207.576-1.422 1.318-.1.345-.117.646-.092 1.568.035 1.332.118 1.61.611 2.043.42.369.842.484 1.753.477.653-.005.786-.029 1.153-.208.461-.226.787-.608.931-1.092.053-.177.09-.759.091-1.429.002-.92-.023-1.203-.134-1.521a1.733 1.733 0 00-1.038-1.06c-.476-.163-1.355-.208-1.853-.095zm11.143-.02c-.92.146-.894.126-.919.678-.021.485-.02.488.172.488.106 0 .395-.052.641-.116a3.581 3.581 0 011.02-.09c.735.033.85.146.85.834v.466h-.638c-1.366.002-2.046.235-2.338.802-.147.284-.166.41-.143.948.032.734.175 1.037.59 1.25.605.31 1.537.215 2.26-.231.194-.12.382-.217.419-.217.037 0 .154.131.26.292.106.16.224.291.262.291.086 0 .714-.445.714-.506a.853.853 0 00-.128-.225c-.108-.153-.134-.415-.17-1.711-.048-1.803-.128-2.15-.582-2.54a1.961 1.961 0 00-.584-.334c-.406-.121-1.183-.157-1.686-.078zm18.515.03c-.59.126-.988.428-1.255.951-.21.41-.22.476-.246 1.52-.032 1.303.077 1.84.467 2.295.398.465.863.626 1.82.628.687.002.857-.022 1.187-.17.84-.373 1.11-.995 1.11-2.566 0-1.087-.108-1.61-.411-2.012-.469-.62-1.562-.885-2.672-.647zm17.497.003c-.818.144-.78.111-.78.657 0 .464.005.476.19.476.105 0 .392-.052.638-.116a3.581 3.581 0 011.02-.09c.735.033.85.146.85.834v.466h-.638c-1.366.002-2.046.235-2.338.802-.147.284-.166.41-.143.948.032.734.175 1.037.59 1.25.605.31 1.537.215 2.26-.231.194-.12.382-.217.419-.217.037 0 .154.131.26.292.106.16.224.291.262.291.086 0 .713-.445.713-.506a.85.85 0 00-.127-.225c-.108-.152-.135-.417-.171-1.711-.025-.857-.084-1.676-.135-1.86-.115-.414-.583-.88-1.015-1.01-.475-.141-1.22-.162-1.855-.05zm-60.522.088c-.026.027-.048 1.208-.048 2.625v2.576h1.094V61.1h2.183l.02 1.075.02 1.076.53.021.528.022V58.03l-.529.021-.529.022-.02 1.039-.02 1.039H8.749v-2.115H8.25c-.274 0-.52.022-.547.049zm6.004 2.576v2.625H14.8V61.1h2.188v2.186h1.094v-5.25h-1.094v2.115H14.8v-2.115h-1.093v2.625zm11.812.007v2.63l1.55-.024c1.483-.023 1.564-.032 1.91-.206.508-.257.65-.482.68-1.078.03-.607-.123-.892-.603-1.125-.18-.088-.329-.178-.329-.2 0-.022.121-.106.268-.186.438-.239.571-.482.57-1.044-.002-1.122-.574-1.394-2.934-1.397l-1.112-.002v2.632zm11.083-.008v2.624l2.096.02 2.097.019.02.747.021.748h.943V62.41h-.802v-4.375h-1.094v4.375h-2.187v-4.375h-1.094v2.624zm6.27.001v2.625h1.65l.928-1.88c.51-1.035.947-2.004.971-2.155.033-.199.077-.267.162-.25.105.02.12.26.137 2.154l.02 2.131h1.018v-5.25h-1.742l-.846 1.696c-.599 1.199-.872 1.828-.933 2.15-.052.275-.123.456-.179.456-.073 0-.092-.46-.092-2.15v-2.152h-1.094v2.625zm12.396-.003v2.628h1.094V61.1h2.188v2.186h1.095l-.019-2.606-.02-2.607-.528-.022-.528-.021v2.121h-2.184l-.02-1.04-.02-1.038-.529-.022-.529-.021v2.628zm6.052.003v2.625h1.021V61.1h2.26v2.186h1.021v-5.25h-1.02v2.115h-2.26v-2.115H61.32v2.625zm12.76-2.554c-.598.078-.897.197-1.143.46-.286.302-.388.617-.388 1.197 0 .603.163.921.722 1.413l.433.382-.54.714c-.298.393-.542.782-.542.864 0 .138.044.15.602.15l.601-.001.233-.346c.287-.428.439-.774.496-1.13l.043-.274h1.16v1.75h1.094v-5.25l-1.185.01c-.651.005-1.365.033-1.586.061zm-51.29.96c.18.18.246.608.246 1.594 0 1.643-.074 1.75-1.212 1.75-.42 0-.822-.032-.896-.071-.23-.123-.294-.49-.294-1.679 0-1.27.06-1.558.352-1.67.311-.121 1.664-.064 1.803.076zm5.508-.002c.132.133.15.22.124.625-.02.305-.068.495-.136.538-.058.036-.458.067-.89.068h-.783v-1.384h.765c.682 0 .783.017.92.154zm24.216.049c.16.16.166.211.166 1.458 0 .711-.024 1.377-.053 1.48-.078.277-.343.36-1.15.36-.657 0-.74-.016-.926-.177l-.204-.176v-1.38c0-1.789-.01-1.777 1.256-1.748.666.015.763.035.911.183zm23.244.672v.875h-.86c-1.15 0-1.182-.023-1.182-.828 0-.887.018-.9 1.258-.913l.784-.009v.875zm-47.364 1.355c.082.081.115.257.115.617 0 .635-.03.653-1.09.653h-.806v-1.385h.833c.66 0 .857.024.948.114zm5.583.429v.544l-.31.08c-.17.045-.425.111-.565.149a3.07 3.07 0 01-.635.068c-.457 0-.531-.094-.531-.674 0-.392.086-.587.291-.66.06-.022.479-.042.93-.045l.82-.006v.544zm36.166 0v.544l-.31.08-.565.149a3.07 3.07 0 01-.635.068c-.457 0-.531-.094-.531-.674 0-.392.086-.587.291-.66.06-.022.479-.042.93-.045l.82-.006v.544zm-46.656 6.75c-.122.166-.269.23-.8.356-.812.19-1.106.312-1.42.587-.401.353-.614.932-.713 1.937-.096.985-.048 3.037.082 3.507.117.42.468.817.904 1.02.321.15.48.172 1.213.173 1.05 0 1.5-.119 1.882-.5.392-.393.483-.778.483-2.051 0-1.029-.006-1.07-.219-1.495-.189-.378-.274-.466-.62-.643-.379-.195-.443-.205-1.166-.18-.783.029-1.213.162-1.454.453-.158.19-.223.131-.223-.2 0-.477.195-1.052.404-1.189.098-.064.543-.212.988-.327.963-.25 1.262-.383 1.445-.64.117-.165.325-.745.278-.777a8.638 8.638 0 00-.466-.122l-.449-.11-.15.201zm-7.338 2.175c-.678.178-1.185.638-1.358 1.234-.066.227-.1.739-.1 1.51 0 1.364.077 1.654.566 2.133.423.416.785.529 1.694.529 1.171 0 1.72-.27 2.07-1.013.184-.394.19-.457.19-1.722 0-1.444-.035-1.604-.465-2.094-.375-.427-.803-.586-1.649-.612-.4-.012-.827.004-.948.035zm35.56.072c-.439.156-.914.574-1.088.959-.153.335-.22 2.41-.096 2.964.11.49.419.91.858 1.169.336.198.385.205 1.333.205.87 0 1.019-.018 1.276-.157.829-.447 1.116-1.24 1.037-2.865-.063-1.299-.308-1.801-1.053-2.166-.36-.176-.523-.208-1.15-.226-.57-.017-.814.009-1.118.117zm5.745-.027a2.212 2.212 0 00-.63.362c-.475.406-.557.692-.592 2.058-.046 1.783.125 2.309.878 2.7.342.178.474.201 1.257.224.55.016 1.051-.011 1.35-.073l.473-.099.022-.463c.012-.255-.008-.494-.044-.53-.04-.04-.301-.006-.654.084-.645.165-1.286.191-1.718.071-.444-.123-.5-.343-.472-1.869.028-1.572.016-1.553.997-1.551.346 0 .674.03.729.064.055.035.16.24.233.455.15.437.219.46.86.286l.318-.087-.051-.34c-.096-.638-.36-.987-.949-1.25-.326-.145-1.604-.172-2.007-.042zM6.707 73.203v2.625h1.02v-2.151c0-2.065.006-2.151.14-2.151.106 0 .158.087.228.383.049.21.349 1.178.666 2.15l.577 1.769h1.202l.603-1.826c.331-1.004.622-1.989.645-2.188.038-.319.063-.361.215-.361h.172v4.375h1.021v-5.25h-.984c-.541 0-.984.013-.984.03 0 .015-.23.742-.512 1.614-.281.871-.548 1.81-.594 2.085-.067.408-.107.5-.218.5-.11 0-.135-.057-.135-.31 0-.39-.045-.558-.636-2.406l-.484-1.513H6.707v2.625zm19.76 0v2.625h1.608l.983-1.978c.54-1.089.982-2.056.982-2.151 0-.105.043-.173.108-.173.093 0 .111.304.128 2.133l.019 2.132.529.022.528.021v-5.256h-1.749l-.776 1.55c-.808 1.614-1.048 2.195-1.048 2.544 0 .136-.037.208-.109.208-.095 0-.11-.288-.11-2.151v-2.151h-1.093v2.625zm7.405-2.06c-.113 1.43-.273 2.926-.345 3.21-.096.38-.328.576-.758.64l-.323.05v.803l.565-.033c.753-.044 1.09-.207 1.27-.614.145-.328.385-1.86.47-2.999l.05-.674h1.653l.02 2.133.019 2.132.528.022.529.021v-5.256h-3.633l-.045.565zm5.355 2.068v2.634l1.44-.03c1.252-.028 1.483-.051 1.77-.18.622-.28.872-.75.873-1.638 0-.785-.215-1.224-.754-1.532-.257-.147-.402-.173-.96-.173-.36 0-.795.027-.965.06l-.31.061v-1.835h-1.094v2.633zm5.396-.005v2.628l.528-.021.53-.022.02-1.112.02-1.112h2.183v2.267l.529-.021.528-.022.02-2.606.018-2.607h-1.095v2.114h-2.187v-2.114h-1.094v2.628zm16.479-2.19v.437h1.602l.019 2.169.02 2.17.528.02.529.022v-4.381h1.676v-.875h-4.374v.437zm5.468 2.195v2.634l1.44-.037c1.63-.042 1.878-.097 2.242-.5.314-.347.422-.75.39-1.446-.034-.71-.21-1.058-.682-1.352-.324-.201-.405-.219-1.014-.219-.364 0-.802.028-.972.061l-.31.061v-1.835H66.57v2.633zm-48.64-1.618c.19.19.25.75.21 1.983-.04 1.268-.066 1.308-.885 1.36-.794.051-1.19-.024-1.341-.254-.143-.217-.219-1.65-.131-2.468.077-.72.14-.761 1.168-.761.73 0 .857.018.979.14zm35.774.039c.177.176.179.195.179 1.49 0 .72-.03 1.391-.068 1.489-.039.103-.166.212-.302.26-.3.105-1.289.106-1.587.002-.338-.118-.391-.394-.364-1.877.03-1.593-.008-1.543 1.166-1.543.75 0 .808.01.976.179zm-29.895.583c.173.173.179.213.179 1.208 0 .598-.033 1.09-.079 1.176-.12.224-.518.354-1.067.35-.704-.006-.984-.118-1.092-.434-.104-.304-.12-1.594-.025-2.003.1-.43.209-.476 1.113-.476.743 0 .803.011.97.18zm18.262 1.06c.146.091.158 1.402.015 1.546-.064.064-.37.103-.93.12l-.835.024v-1.762h.82c.451.001.87.033.93.071zm27.343 0c.146.091.158 1.402.015 1.546-.064.064-.37.103-.93.12l-.835.024v-1.762h.82c.452.001.87.033.93.071zM3.173.07A4.045 4.045 0 00.455 2.088c-.49.92-.454-.825-.454 21.822C0 46.71-.041 44.83.49 45.786c.49.88 1.347 1.551 2.39 1.87.422.13 1.673.135 35.619.135 33.88 0 35.198-.005 35.619-.133 1.04-.318 1.917-1.024 2.39-1.924.533-1.017.49.88.49-21.836 0-22.573.038-20.773-.459-21.786C76.235 1.49 75.585.84 74.914.49c-1.026-.538 2.388-.492-36.45-.485C19.214.008 3.333.037 3.173.07zm71.075 1.216c.614.291 1.19.854 1.48 1.443l.214.438v41.416l-.226.477c-.408.86-1.235 1.506-2.144 1.673-.269.05-11.953.068-35.328.056L3.319 46.77l-.412-.166a3.173 3.173 0 01-1.754-1.755l-.167-.412-.02-20.125c-.016-13.33.001-20.315.05-20.688.159-1.208.943-2.12 2.156-2.506.234-.075 7.153-.09 35.436-.08l35.145.014.494.234zM22.182 14.771c-.303.152-.504.406-.6.759-.048.182-.067 3.09-.054 8.54l.02 8.263.166.268c.1.16.296.331.485.422.31.151.39.154 3.406.133 2.851-.02 3.119-.033 3.489-.166.633-.226 1.22-.673 1.681-1.279.485-.636 3.553-4.805 4.319-5.867l.526-.73.036 2.516c.036 2.483.039 2.52.208 2.791.095.152.298.34.453.42.267.136.44.143 3.292.141 1.764 0 3.143-.032 3.33-.075a3.439 3.439 0 001.485-.797c.21-.195 1.154-1.405 2.097-2.69.942-1.284 1.738-2.336 1.768-2.338.03-.002.054 1.622.054 3.609 0 4.007-.017 3.856.487 4.24l.268.204h2.79c2.715 0 2.794-.004 2.994-.152.114-.084.28-.261.37-.394l.164-.241V23.93c0-9.459.043-8.755-.549-9.102l-.312-.182-3.343.02-3.342.022-.365.194a2.73 2.73 0 00-.593.437c-.126.134-1.071 1.376-2.1 2.76-1.03 1.383-1.904 2.526-1.941 2.539-.042.015-.069-.98-.069-2.56 0-2.559-.002-2.585-.164-2.824a1.948 1.948 0 00-.37-.394c-.2-.149-.29-.153-3.463-.174-2.278-.015-3.349.004-3.56.062-.514.142-.882.452-1.476 1.242a844.11 844.11 0 00-4.057 5.476c-.52.71-.97 1.292-.999 1.295-.029.002-.062-1.65-.073-3.673-.02-3.584-.024-3.682-.17-3.879a2.085 2.085 0 00-.352-.351c-.194-.145-.302-.151-2.948-.168-2.425-.016-2.776-.004-2.988.101zm5.436 5.207l.019 4.27-.785 1.053c-.431.58-1.572 2.118-2.534 3.418l-1.75 2.364-.019-7.614c-.01-4.188-.003-7.656.017-7.707.027-.072.574-.088 2.534-.073l2.5.02.018 4.269zm14.236-.528v2.603l-1.367 1.83a1271.64 1271.64 0 00-2.534 3.405c-.642.867-1.191 1.577-1.221 1.579-.03.001-.055-1.166-.055-2.595v-2.597l.387-.52c.99-1.332 3.468-4.702 4.355-5.926.18-.247.35-.434.38-.415.03.018.055 1.204.055 2.636z" fill="#fff"/></svg>