<svg width="57" height="57" fill="none" xmlns="http://www.w3.org/2000/svg"><circle cx="28.5" cy="28.5" r="28.5" fill="#A0A0A0"/><path d="M22 13c0-1.104.893-2 2-2h7.998c1.107 0 2 .896 2 2v2h3a3 3 0 013 3v7.999l2.775.925c1.45.481 1.843 2.343.718 3.368l-6.312 5.794c-1.012.58-2.168.943-3.18.943-1.226 0-2.55-.48-3.7-1.275a4.003 4.003 0 00-4.6 0c-1.075.738-2.375 1.275-3.7 1.275-1.012 0-2.168-.362-3.18-.95l-6.313-5.787c-1.125-1.025-.728-2.887.718-3.368L16 25.943v-8c0-1.6 1.343-3 3-3h3V13zm-2 11.668l6.736-2.25a4.055 4.055 0 012.525 0l6.737 2.25v-5.669H20v5.669zm13.998 14.33c1.681 0 3.463-.675 4.838-1.631h.006a1.992 1.992 0 012.45.106 7.853 7.853 0 003.162 1.575 2.006 2.006 0 011.494 2.406c-.25 1.075-1.382 1.744-2.407 1.494-1.53-.363-2.8-1.038-3.637-1.563-1.812.969-3.843 1.613-5.906 1.613-1.993 0-3.787-.62-5.024-1.182a14.228 14.228 0 01-.975-.48c-.281.15-.606.318-.975.48-1.238.563-3.031 1.182-5.025 1.182-2.118 0-4.093-.644-5.906-1.613-.836.525-2.106 1.2-3.639 1.563a2.001 2.001 0 01-.908-3.9 7.866 7.866 0 003.16-1.575 1.99 1.99 0 012.45-.106h.006c1.381.956 3.156 1.63 4.837 1.63 1.719 0 3.438-.661 4.844-1.63a1.99 1.99 0 012.312 0c1.35.969 3.125 1.63 4.843 1.63z" fill="#fff"/></svg>