<svg width="64" height="64" fill="none" xmlns="http://www.w3.org/2000/svg"><rect width="63.569" height="63.569" rx="31.785" fill="#E8331A"/><path d="M43.329 18.496a3.346 3.346 0 00-1.05.25h-.004c-.32.128-1.845.769-4.163 1.74l-8.305 3.498c-5.959 2.51-11.817 4.98-11.817 4.98l.07-.027s-.404.133-.826.422c-.26.165-.485.382-.659.637a1.869 1.869 0 00-.311 1.25c.1.811.627 1.299 1.005 1.567.383.273.747.4.747.4h.01l5.493 1.85c.246.791 1.674 5.485 2.017 6.566.202.646.4 1.05.646 1.358.119.157.258.289.426.395.087.05.18.09.277.119l-.057-.014c.017.005.03.018.043.023.045.012.076.017.133.026.87.263 1.568-.277 1.568-.277l.04-.031 3.243-2.953 5.436 4.17.124.053c1.133.497 2.28.22 2.886-.268.611-.492.849-1.12.849-1.12l.04-.102 4.2-21.52c.12-.53.15-1.028.018-1.51a2.032 2.032 0 00-.879-1.179 2.106 2.106 0 00-1.2-.303zm-.114 2.306c-.004.07.01.063-.022.199v.012L39.03 42.31c-.018.03-.048.096-.131.163-.088.07-.158.113-.523-.032l-6.65-5.097-4.015 3.66.843-5.388L39.418 25.49c.448-.416.298-.504.298-.504.032-.51-.676-.15-.676-.15l-13.698 8.486-.004-.022-6.566-2.211v-.005l-.017-.003a.29.29 0 00.034-.013l.036-.018.035-.013s5.862-2.47 11.822-4.979c2.983-1.257 5.99-2.522 8.3-3.499A914.24 914.24 0 0143.1 20.84c.093-.036.049-.036.115-.036v-.001z" fill="#fff"/></svg>