<svg width="64" height="65" fill="none" xmlns="http://www.w3.org/2000/svg"><rect x=".164" y=".621" width="63.569" height="63.569" rx="31.785" fill="#E8331A"/><path clip-rule="evenodd" d="M15.01 22.908a1.42 1.42 0 00-.387.284c-.825.894 1.26 6.234 4.292 10.992 1.514 2.376 2.71 3.916 4.05 5.218 1.846 1.795 3.783 3.016 5.898 3.72 1.343.447 2.071.575 3.514.617 1.752.05 2.486-.111 2.875-.633.142-.19.15-.299.185-2.566.032-2.008.055-2.408.155-2.632.149-.333.374-.424.976-.39 1.154.062 2.777 1.289 5.37 4.058.76.813 1.537 1.591 1.725 1.73.625.458.677.465 3.488.442 2.481-.021 2.527-.024 2.779-.18.589-.367.622-.983.107-2.008-.6-1.193-1.93-2.809-4.423-5.366-.796-.817-1.497-1.583-1.559-1.701a1.393 1.393 0 01-.112-.535c0-.283.063-.41.568-1.146 3.294-4.803 4.719-7.217 5.059-8.568.19-.757.112-1.044-.35-1.277-.308-.155-.365-.158-2.735-.158-1.633 0-2.508.026-2.692.081-.435.13-.79.487-1.052 1.06-1.289 2.804-2.708 5.223-4.075 6.946-.594.749-1.577 1.7-1.96 1.894-.61.312-1.042.147-1.193-.456-.052-.205-.078-1.696-.08-4.512 0-3.979-.008-4.22-.134-4.499-.24-.53-.121-.514-4.026-.514-3.353 0-3.474.005-3.7.142-.283.173-.462.565-.403.883.024.126.234.476.468.78.532.688.739 1.088.911 1.763.126.491.137.8.136 4.019 0 2.182-.027 3.585-.073 3.748-.254.917-1.274.498-2.511-1.032-1.616-1.999-3.15-4.922-4.655-8.872-.279-.731-.564-1.124-.939-1.295-.272-.123-.486-.133-2.79-.132-1.926 0-2.545.023-2.707.095z" stroke="#fff" stroke-width="2"/></svg>