<svg width="64" height="64" fill="none" xmlns="http://www.w3.org/2000/svg"><rect width="63.569" height="63.569" rx="31.785" fill="#E8331A"/><path d="M36.52 33.163c.181 0 .858.313 2.032.938s1.795 1.002 1.865 1.13a.93.93 0 01.041.32c0 .468-.118 1.008-.354 1.62-.222.554-.715 1.02-1.479 1.396-.764.377-1.472.565-2.125.565-.792 0-2.111-.44-3.958-1.322A11.891 11.891 0 0129 35.295c-1-1.038-2.028-2.352-3.083-3.944-1-1.52-1.493-2.9-1.48-4.136v-.17c.042-1.294.556-2.416 1.542-3.369.334-.312.695-.469 1.084-.469.083 0 .208.011.375.032.166.022.298.032.395.032.264 0 .448.046.552.139.105.092.212.288.323.586.111.284.34.91.688 1.876.347.966.52 1.5.52 1.599 0 .298-.239.707-.718 1.226-.48.518-.719.849-.719.991 0 .1.035.206.104.32.473 1.037 1.18 2.01 2.125 2.92.778.754 1.827 1.471 3.146 2.153.167.1.32.15.459.15.208 0 .583-.345 1.124-1.034.542-.69.903-1.034 1.084-1.034zM32.293 44.46a12.48 12.48 0 005.073-1.066c1.618-.71 3.01-1.662 4.177-2.856 1.166-1.194 2.097-2.619 2.791-4.275a13.287 13.287 0 001.042-5.19c0-1.805-.347-3.536-1.042-5.191-.694-1.656-1.625-3.08-2.791-4.274-1.167-1.194-2.56-2.147-4.177-2.857a12.484 12.484 0 00-5.073-1.066c-1.764 0-3.455.355-5.073 1.066-1.618.71-3.01 1.663-4.177 2.857-1.167 1.193-2.098 2.618-2.792 4.274a13.289 13.289 0 00-1.042 5.19c0 2.886.834 5.5 2.5 7.846l-1.645 4.967 5.041-1.642c2.195 1.478 4.59 2.217 7.188 2.217zm0-29.461c2.125 0 4.156.426 6.093 1.28 1.938.852 3.608 1.996 5.01 3.431 1.404 1.436 2.522 3.145 3.355 5.127A15.932 15.932 0 0148 31.074c0 2.174-.417 4.253-1.25 6.235-.833 1.983-1.951 3.692-3.354 5.127-1.403 1.435-3.073 2.58-5.01 3.432a14.966 14.966 0 01-6.094 1.28c-2.709 0-5.243-.669-7.605-2.005L16 48l2.833-8.634c-1.5-2.53-2.25-5.294-2.25-8.292 0-2.175.417-4.253 1.25-6.236.834-1.982 1.952-3.691 3.355-5.127 1.402-1.435 3.072-2.58 5.01-3.432A14.967 14.967 0 0132.292 15z" fill="#fff"/></svg>